{"glyphs":{"0":{"ha":833,"x_min":90,"x_max":743,"o":"m 417 978 q 660 848 578 978 q 743 481 743 718 q 660 111 743 242 q 417 -19 578 -19 q 173 111 256 -19 q 90 481 90 242 q 173 848 90 718 q 417 978 256 978 m 417 859 q 290 771 334 859 q 245 481 245 683 q 263 250 245 333 l 534 803 q 485 846 514 833 q 417 859 456 859 m 588 481 q 574 692 588 613 l 306 147 q 417 100 344 100 q 544 188 500 100 q 588 481 588 275 z "},"1":{"ha":833,"x_min":113,"x_max":736,"o":"m 736 122 l 736 0 l 156 0 l 156 122 l 390 122 l 390 799 l 179 669 l 113 778 l 407 958 l 544 958 l 544 122 l 736 122 z "},"2":{"ha":833,"x_min":72,"x_max":705,"o":"m 378 978 q 543 941 475 978 q 647 843 611 905 q 683 707 683 782 q 661 584 683 644 q 591 457 639 524 q 463 310 542 391 q 269 125 384 229 l 705 125 l 687 0 l 91 0 l 91 118 q 304 329 220 242 q 435 479 388 416 q 502 593 483 542 q 522 697 522 644 q 481 811 522 769 q 367 853 440 853 q 259 829 302 853 q 173 753 215 806 l 72 830 q 201 940 128 901 q 378 978 274 978 z "},"3":{"ha":833,"x_min":54,"x_max":712,"o":"m 375 978 q 539 944 470 978 q 644 856 608 911 q 681 735 681 801 q 627 588 681 647 q 491 510 572 528 q 601 476 551 503 q 682 399 651 449 q 712 274 712 349 q 669 125 712 192 q 548 20 626 59 q 365 -19 470 -19 q 193 15 274 -19 q 54 115 111 48 l 149 199 q 245 128 190 151 q 358 105 299 105 q 499 151 447 105 q 551 279 551 197 q 499 409 551 372 q 366 447 448 447 l 283 447 l 301 561 l 360 561 q 477 598 427 561 q 528 713 528 635 q 480 820 528 782 q 363 858 433 858 q 256 835 302 858 q 164 772 209 813 l 81 860 q 218 949 144 919 q 375 978 292 978 z "},"4":{"ha":833,"x_min":85,"x_max":747,"o":"m 633 598 l 633 342 l 747 342 l 747 221 l 633 221 l 633 0 l 484 0 l 483 221 l 85 221 l 85 329 l 361 978 l 492 926 l 248 342 l 484 342 l 503 598 l 633 598 z "},"5":{"ha":833,"x_min":87,"x_max":724,"o":"m 691 958 l 671 842 l 303 842 l 303 575 q 382 605 344 597 q 460 613 421 613 q 596 576 536 613 q 690 472 656 540 q 724 308 724 404 q 682 138 724 211 q 561 23 639 64 q 381 -19 484 -19 q 214 15 287 -19 q 87 107 142 49 l 180 194 q 374 105 260 105 q 512 158 462 105 q 563 308 563 211 q 518 456 563 414 q 406 498 474 498 q 339 490 370 498 q 269 466 307 482 l 154 466 l 154 958 l 691 958 z "},"6":{"ha":833,"x_min":94,"x_max":744,"o":"m 474 978 q 581 962 532 978 q 671 919 630 947 l 610 819 q 474 860 549 860 q 317 768 376 860 q 253 518 259 677 q 355 605 299 578 q 474 631 410 631 q 609 597 548 631 q 708 494 671 563 q 744 324 744 426 q 703 144 744 221 q 590 24 662 67 q 428 -19 519 -19 q 234 41 308 -19 q 128 206 161 101 q 94 446 94 310 q 140 725 94 606 q 270 911 185 845 q 474 978 355 978 m 441 515 q 336 484 384 515 q 255 403 289 453 q 298 173 258 247 q 428 99 338 99 q 548 159 508 99 q 587 317 587 219 q 547 471 587 427 q 441 515 508 515 z "},"7":{"ha":833,"x_min":119,"x_max":716,"o":"m 338 -17 l 191 28 l 558 836 l 119 836 l 119 958 l 716 958 l 716 847 l 338 -17 z "},"8":{"ha":833,"x_min":79,"x_max":754,"o":"m 716 730 q 676 610 716 660 q 556 517 635 560 q 703 409 651 474 q 754 258 754 344 q 714 118 754 181 q 598 18 674 56 q 413 -19 522 -19 q 231 18 306 -19 q 118 117 156 55 q 79 255 79 179 q 130 401 79 340 q 265 501 181 463 q 153 591 190 541 q 117 722 117 642 q 161 864 117 807 q 274 949 206 921 q 417 978 343 978 q 564 950 496 978 q 674 867 632 922 q 716 730 716 813 m 268 721 q 316 618 268 650 q 451 556 364 585 q 538 629 511 592 q 565 722 565 667 q 527 826 565 787 q 417 865 489 865 q 307 827 347 865 q 268 721 268 790 m 595 258 q 568 351 595 316 q 489 409 540 385 q 366 458 438 433 q 276 384 313 431 q 238 260 238 338 q 283 143 238 186 q 415 99 327 99 q 550 145 504 99 q 595 258 595 191 z "},"9":{"ha":833,"x_min":81,"x_max":733,"o":"m 406 976 q 651 870 569 976 q 733 588 733 765 q 702 343 733 446 q 605 169 670 241 q 437 49 539 98 q 194 -34 335 1 l 160 80 q 449 214 349 131 q 568 445 549 297 q 474 372 526 399 q 353 344 422 344 q 214 381 275 344 q 116 487 152 418 q 81 650 81 556 q 124 826 81 753 q 241 938 167 899 q 406 976 315 976 m 239 650 q 281 504 239 549 q 392 460 323 460 q 490 485 447 460 q 572 557 533 511 q 534 788 572 717 q 405 858 496 858 q 282 806 324 858 q 239 650 239 754 z "},"A":{"ha":833,"x_min":12,"x_max":822,"o":"m 585 231 l 242 231 l 176 0 l 12 0 l 317 958 l 517 958 l 822 0 l 651 0 l 585 231 m 276 355 l 551 355 l 414 833 l 276 355 z "},"Á":{"ha":833,"x_min":12,"x_max":822,"o":"m 585 231 l 242 231 l 176 0 l 12 0 l 317 958 l 517 958 l 822 0 l 651 0 l 585 231 m 276 355 l 551 355 l 414 833 l 276 355 m 529 1283 l 593 1159 l 284 1047 l 244 1128 l 529 1283 z "},"Ă":{"ha":833,"x_min":12,"x_max":822,"o":"m 585 231 l 242 231 l 176 0 l 12 0 l 317 958 l 517 958 l 822 0 l 651 0 l 585 231 m 276 355 l 551 355 l 414 833 l 276 355 m 415 1050 q 264 1102 322 1050 q 197 1234 206 1153 l 293 1253 q 337 1187 308 1210 q 415 1164 366 1164 q 495 1187 464 1164 q 540 1253 526 1210 l 635 1234 q 568 1102 627 1153 q 415 1050 508 1050 z "},"Â":{"ha":833,"x_min":12,"x_max":822,"o":"m 585 231 l 242 231 l 176 0 l 12 0 l 317 958 l 517 958 l 822 0 l 651 0 l 585 231 m 276 355 l 551 355 l 414 833 l 276 355 m 467 1282 l 657 1120 l 596 1050 l 417 1164 l 239 1050 l 176 1120 l 367 1282 l 467 1282 z "},"Ä":{"ha":833,"x_min":12,"x_max":822,"o":"m 585 231 l 242 231 l 176 0 l 12 0 l 317 958 l 517 958 l 822 0 l 651 0 l 585 231 m 276 355 l 551 355 l 414 833 l 276 355 z "},"À":{"ha":833,"x_min":12,"x_max":822,"o":"m 585 231 l 242 231 l 176 0 l 12 0 l 317 958 l 517 958 l 822 0 l 651 0 l 585 231 m 276 355 l 551 355 l 414 833 l 276 355 m 316 1286 l 589 1128 l 547 1047 l 244 1162 l 316 1286 z "},"Ā":{"ha":833,"x_min":12,"x_max":822,"o":"m 585 231 l 242 231 l 176 0 l 12 0 l 317 958 l 517 958 l 822 0 l 651 0 l 585 231 m 276 355 l 551 355 l 414 833 l 276 355 z "},"Ą":{"ha":833,"x_min":12,"x_max":822,"o":"m 585 231 l 242 231 l 176 0 l 12 0 l 317 958 l 517 958 l 822 0 l 651 0 l 585 231 m 276 355 l 551 355 l 414 833 l 276 355 m 724 53 l 745 0 q 640 -55 676 -28 q 591 -106 604 -81 q 578 -157 578 -131 q 656 -224 578 -224 q 697 -221 678 -224 q 738 -214 715 -219 l 724 -321 q 684 -328 704 -326 q 639 -331 665 -331 q 505 -290 556 -331 q 454 -181 454 -249 q 524 -40 454 -94 q 724 53 594 15 z "},"Å":{"ha":833,"x_min":12,"x_max":822,"o":"m 585 231 l 242 231 l 176 0 l 12 0 l 317 958 l 517 958 l 822 0 l 651 0 l 585 231 m 276 355 l 551 355 l 414 833 l 276 355 z "},"Ã":{"ha":833,"x_min":12,"x_max":822,"o":"m 585 231 l 242 231 l 176 0 l 12 0 l 317 958 l 517 958 l 822 0 l 651 0 l 585 231 m 276 355 l 551 355 l 414 833 l 276 355 z "},"Æ":{"ha":833,"x_min":-17,"x_max":842,"o":"m 449 232 l 199 232 l 142 0 l -17 0 l 249 958 l 785 958 l 768 840 l 469 840 l 530 546 l 773 546 l 773 426 l 552 426 l 615 119 l 842 119 l 842 0 l 494 0 l 449 232 m 228 353 l 427 353 l 336 842 l 228 353 z "},"Ǽ":{"ha":833,"x_min":-17,"x_max":842,"o":"m 449 232 l 199 232 l 142 0 l -17 0 l 249 958 l 785 958 l 768 840 l 469 840 l 530 546 l 773 546 l 773 426 l 552 426 l 615 119 l 842 119 l 842 0 l 494 0 l 449 232 m 228 353 l 427 353 l 336 842 l 228 353 m 608 1283 l 672 1159 l 363 1047 l 324 1128 l 608 1283 z "},"B":{"ha":833,"x_min":113,"x_max":766,"o":"m 766 276 q 735 143 766 197 q 650 58 703 90 q 530 13 597 26 q 393 0 464 0 l 113 0 l 113 958 l 374 958 q 504 947 442 958 q 616 907 567 935 q 695 833 666 880 q 724 716 724 786 q 699 613 724 656 q 634 545 674 571 q 547 508 593 519 q 650 475 599 499 q 733 403 700 451 q 766 276 766 356 m 561 703 q 516 806 561 775 q 389 838 471 838 l 274 838 l 274 560 l 399 560 q 520 594 479 560 q 561 703 561 628 m 598 277 q 573 377 598 341 q 506 427 548 413 q 410 441 463 441 l 274 441 l 274 125 l 403 125 q 494 136 449 125 q 568 181 539 148 q 598 277 598 213 z "},"C":{"ha":833,"x_min":72,"x_max":800,"o":"m 497 978 q 661 952 594 978 q 786 880 728 927 l 702 780 q 505 851 617 851 q 373 815 433 851 q 276 697 313 778 q 240 481 240 616 q 274 267 240 348 q 369 149 309 185 q 505 112 429 112 q 633 137 582 112 q 722 194 683 163 l 800 95 q 678 15 752 49 q 499 -19 605 -19 q 281 38 377 -19 q 128 207 184 95 q 72 481 72 318 q 130 752 72 642 q 284 920 188 863 q 497 978 380 978 z "},"Ć":{"ha":833,"x_min":72,"x_max":800,"o":"m 497 978 q 661 952 594 978 q 786 880 728 927 l 702 780 q 505 851 617 851 q 373 815 433 851 q 276 697 313 778 q 240 481 240 616 q 274 267 240 348 q 369 149 309 185 q 505 112 429 112 q 633 137 582 112 q 722 194 683 163 l 800 95 q 678 15 752 49 q 499 -19 605 -19 q 281 38 377 -19 q 128 207 184 95 q 72 481 72 318 q 130 752 72 642 q 284 920 188 863 q 497 978 380 978 m 617 1283 l 681 1159 l 372 1047 l 333 1128 l 617 1283 z "},"Č":{"ha":833,"x_min":72,"x_max":800,"o":"m 497 978 q 661 952 594 978 q 786 880 728 927 l 702 780 q 505 851 617 851 q 373 815 433 851 q 276 697 313 778 q 240 481 240 616 q 274 267 240 348 q 369 149 309 185 q 505 112 429 112 q 633 137 582 112 q 722 194 683 163 l 800 95 q 678 15 752 49 q 499 -19 605 -19 q 281 38 377 -19 q 128 207 184 95 q 72 481 72 318 q 130 752 72 642 q 284 920 188 863 q 497 978 380 978 m 685 1278 l 746 1208 l 556 1046 l 456 1046 l 265 1208 l 328 1278 l 506 1164 l 685 1278 z "},"Ç":{"ha":833,"x_min":72,"x_max":800,"o":"m 497 978 q 661 952 594 978 q 786 880 728 927 l 702 780 q 505 851 617 851 q 373 815 433 851 q 276 697 313 778 q 240 481 240 616 q 274 267 240 348 q 369 149 309 185 q 505 112 429 112 q 633 137 582 112 q 722 194 683 163 l 800 95 q 678 15 752 49 q 499 -19 605 -19 q 281 38 377 -19 q 128 207 184 95 q 72 481 72 318 q 130 752 72 642 q 284 920 188 863 q 497 978 380 978 z "},"Ĉ":{"ha":833,"x_min":72,"x_max":800,"o":"m 497 978 q 661 952 594 978 q 786 880 728 927 l 702 780 q 505 851 617 851 q 373 815 433 851 q 276 697 313 778 q 240 481 240 616 q 274 267 240 348 q 369 149 309 185 q 505 112 429 112 q 633 137 582 112 q 722 194 683 163 l 800 95 q 678 15 752 49 q 499 -19 605 -19 q 281 38 377 -19 q 128 207 184 95 q 72 481 72 318 q 130 752 72 642 q 284 920 188 863 q 497 978 380 978 m 556 1282 l 746 1120 l 685 1050 l 506 1164 l 328 1050 l 265 1120 l 456 1282 l 556 1282 z "},"Ċ":{"ha":833,"x_min":72,"x_max":800,"o":"m 497 978 q 661 952 594 978 q 786 880 728 927 l 702 780 q 505 851 617 851 q 373 815 433 851 q 276 697 313 778 q 240 481 240 616 q 274 267 240 348 q 369 149 309 185 q 505 112 429 112 q 633 137 582 112 q 722 194 683 163 l 800 95 q 678 15 752 49 q 499 -19 605 -19 q 281 38 377 -19 q 128 207 184 95 q 72 481 72 318 q 130 752 72 642 q 284 920 188 863 q 497 978 380 978 z "},"D":{"ha":833,"x_min":99,"x_max":779,"o":"m 779 484 q 740 240 779 335 q 637 93 701 145 q 493 20 572 41 q 334 0 414 0 l 99 0 l 99 958 l 318 958 q 488 940 406 958 q 636 870 570 921 q 740 727 701 820 q 779 484 779 633 m 610 484 q 587 668 610 599 q 527 774 565 738 q 443 822 490 810 q 349 835 397 835 l 260 835 l 260 122 l 349 122 q 446 138 399 122 q 530 194 492 154 q 588 304 567 233 q 610 484 610 374 z "},"Ð":{"ha":833,"x_min":22,"x_max":794,"o":"m 794 484 q 755 240 794 335 q 652 93 717 145 q 508 20 587 41 q 349 0 429 0 l 115 0 l 115 435 l 22 435 l 22 545 l 115 545 l 115 958 l 333 958 q 502 940 420 958 q 651 870 585 921 q 755 727 717 820 q 794 484 794 633 m 475 545 l 475 435 l 276 435 l 276 122 l 365 122 q 461 138 415 122 q 544 194 508 154 q 603 304 581 233 q 625 484 625 374 q 602 668 625 599 q 542 774 580 738 q 458 822 504 810 q 364 835 412 835 l 276 835 l 276 545 l 475 545 z "},"Ď":{"ha":833,"x_min":99,"x_max":779,"o":"m 779 484 q 740 240 779 335 q 637 93 701 145 q 493 20 572 41 q 334 0 414 0 l 99 0 l 99 958 l 318 958 q 488 940 406 958 q 636 870 570 921 q 740 727 701 820 q 779 484 779 633 m 610 484 q 587 668 610 599 q 527 774 565 738 q 443 822 490 810 q 349 835 397 835 l 260 835 l 260 122 l 349 122 q 446 138 399 122 q 530 194 492 154 q 588 304 567 233 q 610 484 610 374 m 575 1278 l 636 1208 l 447 1046 l 347 1046 l 155 1208 l 218 1278 l 396 1164 l 575 1278 z "},"Đ":{"ha":833,"x_min":22,"x_max":794,"o":"m 794 484 q 755 240 794 335 q 652 93 717 145 q 508 20 587 41 q 349 0 429 0 l 115 0 l 115 435 l 22 435 l 22 545 l 115 545 l 115 958 l 333 958 q 502 940 420 958 q 651 870 585 921 q 755 727 717 820 q 794 484 794 633 m 475 545 l 475 435 l 276 435 l 276 122 l 365 122 q 461 138 415 122 q 544 194 508 154 q 603 304 581 233 q 625 484 625 374 q 602 668 625 599 q 542 774 580 738 q 458 822 504 810 q 364 835 412 835 l 276 835 l 276 545 l 475 545 z "},"E":{"ha":833,"x_min":157,"x_max":741,"o":"m 318 836 l 318 548 l 665 548 l 665 426 l 318 426 l 318 122 l 741 122 l 741 0 l 157 0 l 157 958 l 733 958 l 715 836 l 318 836 z "},"É":{"ha":833,"x_min":157,"x_max":741,"o":"m 318 836 l 318 548 l 665 548 l 665 426 l 318 426 l 318 122 l 741 122 l 741 0 l 157 0 l 157 958 l 733 958 l 715 836 l 318 836 m 558 1283 l 622 1159 l 313 1047 l 273 1128 l 558 1283 z "},"Ĕ":{"ha":833,"x_min":157,"x_max":741,"o":"m 318 836 l 318 548 l 665 548 l 665 426 l 318 426 l 318 122 l 741 122 l 741 0 l 157 0 l 157 958 l 733 958 l 715 836 l 318 836 m 444 1050 q 293 1102 351 1050 q 226 1234 235 1153 l 322 1253 q 365 1187 336 1210 q 444 1164 394 1164 q 523 1187 492 1164 q 568 1253 554 1210 l 664 1234 q 596 1102 656 1153 q 444 1050 537 1050 z "},"Ě":{"ha":833,"x_min":157,"x_max":741,"o":"m 318 836 l 318 548 l 665 548 l 665 426 l 318 426 l 318 122 l 741 122 l 741 0 l 157 0 l 157 958 l 733 958 l 715 836 l 318 836 m 624 1278 l 685 1208 l 496 1046 l 396 1046 l 204 1208 l 267 1278 l 445 1164 l 624 1278 z "},"Ê":{"ha":833,"x_min":157,"x_max":741,"o":"m 318 836 l 318 548 l 665 548 l 665 426 l 318 426 l 318 122 l 741 122 l 741 0 l 157 0 l 157 958 l 733 958 l 715 836 l 318 836 m 496 1282 l 685 1120 l 624 1050 l 445 1164 l 267 1050 l 204 1120 l 396 1282 l 496 1282 z "},"Ë":{"ha":833,"x_min":157,"x_max":741,"o":"m 318 836 l 318 548 l 665 548 l 665 426 l 318 426 l 318 122 l 741 122 l 741 0 l 157 0 l 157 958 l 733 958 l 715 836 l 318 836 z "},"Ė":{"ha":833,"x_min":157,"x_max":741,"o":"m 318 836 l 318 548 l 665 548 l 665 426 l 318 426 l 318 122 l 741 122 l 741 0 l 157 0 l 157 958 l 733 958 l 715 836 l 318 836 z "},"È":{"ha":833,"x_min":157,"x_max":741,"o":"m 318 836 l 318 548 l 665 548 l 665 426 l 318 426 l 318 122 l 741 122 l 741 0 l 157 0 l 157 958 l 733 958 l 715 836 l 318 836 m 344 1286 l 617 1128 l 575 1047 l 273 1162 l 344 1286 z "},"Ē":{"ha":833,"x_min":157,"x_max":741,"o":"m 318 836 l 318 548 l 665 548 l 665 426 l 318 426 l 318 122 l 741 122 l 741 0 l 157 0 l 157 958 l 733 958 l 715 836 l 318 836 z "},"Ę":{"ha":833,"x_min":157,"x_max":741,"o":"m 318 836 l 318 548 l 665 548 l 665 426 l 318 426 l 318 122 l 741 122 l 741 0 l 157 0 l 157 958 l 733 958 l 715 836 l 318 836 m 628 53 l 649 0 q 544 -55 581 -28 q 495 -106 508 -81 q 482 -157 482 -131 q 560 -224 482 -224 q 601 -221 583 -224 q 642 -214 619 -219 l 628 -321 q 589 -328 608 -326 q 543 -331 569 -331 q 409 -290 460 -331 q 358 -181 358 -249 q 428 -40 358 -94 q 628 53 498 15 z "},"F":{"ha":833,"x_min":176,"x_max":766,"o":"m 338 836 l 338 531 l 698 531 l 698 409 l 338 409 l 338 0 l 176 0 l 176 958 l 766 958 l 748 836 l 338 836 z "},"G":{"ha":833,"x_min":51,"x_max":764,"o":"m 442 -19 q 155 107 258 -19 q 51 481 51 233 q 109 755 51 644 q 263 922 167 866 q 469 978 358 978 q 633 949 567 978 q 755 867 699 919 l 665 774 q 575 833 621 813 q 474 852 530 852 q 349 816 406 852 q 256 699 291 781 q 220 480 220 617 q 278 193 220 279 q 449 107 335 107 q 608 147 534 107 l 608 411 l 445 411 l 428 534 l 764 534 l 764 69 q 619 6 696 31 q 442 -19 542 -19 z "},"Ğ":{"ha":833,"x_min":51,"x_max":764,"o":"m 442 -19 q 155 107 258 -19 q 51 481 51 233 q 109 755 51 644 q 263 922 167 866 q 469 978 358 978 q 633 949 567 978 q 755 867 699 919 l 665 774 q 575 833 621 813 q 474 852 530 852 q 349 816 406 852 q 256 699 291 781 q 220 480 220 617 q 278 193 220 279 q 449 107 335 107 q 608 147 534 107 l 608 411 l 445 411 l 428 534 l 764 534 l 764 69 q 619 6 696 31 q 442 -19 542 -19 m 457 1050 q 306 1102 364 1050 q 239 1234 248 1153 l 335 1253 q 378 1187 349 1210 q 457 1164 408 1164 q 536 1187 506 1164 q 581 1253 567 1210 l 677 1234 q 609 1102 669 1153 q 457 1050 550 1050 z "},"Ĝ":{"ha":833,"x_min":51,"x_max":764,"o":"m 442 -19 q 155 107 258 -19 q 51 481 51 233 q 109 755 51 644 q 263 922 167 866 q 469 978 358 978 q 633 949 567 978 q 755 867 699 919 l 665 774 q 575 833 621 813 q 474 852 530 852 q 349 816 406 852 q 256 699 291 781 q 220 480 220 617 q 278 193 220 279 q 449 107 335 107 q 608 147 534 107 l 608 411 l 445 411 l 428 534 l 764 534 l 764 69 q 619 6 696 31 q 442 -19 542 -19 m 509 1282 l 699 1120 l 638 1050 l 458 1164 l 281 1050 l 217 1120 l 409 1282 l 509 1282 z "},"Ģ":{"ha":833,"x_min":51,"x_max":764,"o":"m 442 -19 q 155 107 258 -19 q 51 481 51 233 q 109 755 51 644 q 263 922 167 866 q 469 978 358 978 q 633 949 567 978 q 755 867 699 919 l 665 774 q 575 833 621 813 q 474 852 530 852 q 349 816 406 852 q 256 699 291 781 q 220 480 220 617 q 278 193 220 279 q 449 107 335 107 q 608 147 534 107 l 608 411 l 445 411 l 428 534 l 764 534 l 764 69 q 619 6 696 31 q 442 -19 542 -19 m 460 -95 q 523 -120 497 -95 q 549 -182 549 -144 q 523 -273 549 -219 l 454 -416 l 368 -416 l 408 -255 q 382 -223 392 -242 q 372 -182 372 -205 q 397 -120 372 -145 q 460 -95 423 -95 z "},"Ġ":{"ha":833,"x_min":51,"x_max":764,"o":"m 442 -19 q 155 107 258 -19 q 51 481 51 233 q 109 755 51 644 q 263 922 167 866 q 469 978 358 978 q 633 949 567 978 q 755 867 699 919 l 665 774 q 575 833 621 813 q 474 852 530 852 q 349 816 406 852 q 256 699 291 781 q 220 480 220 617 q 278 193 220 279 q 449 107 335 107 q 608 147 534 107 l 608 411 l 445 411 l 428 534 l 764 534 l 764 69 q 619 6 696 31 q 442 -19 542 -19 z "},"H":{"ha":833,"x_min":99,"x_max":734,"o":"m 573 0 l 573 435 l 260 435 l 260 0 l 99 0 l 99 958 l 260 958 l 260 568 l 573 568 l 573 958 l 734 958 l 734 0 l 573 0 z "},"Ħ":{"ha":833,"x_min":3,"x_max":831,"o":"m 831 808 l 831 702 l 732 702 l 732 0 l 571 0 l 571 438 l 263 438 l 263 0 l 101 0 l 101 702 l 3 702 l 3 808 l 101 808 l 101 958 l 263 958 l 263 808 l 571 808 l 571 958 l 732 958 l 732 808 l 831 808 m 263 567 l 571 567 l 571 702 l 263 702 l 263 567 z "},"Ĥ":{"ha":833,"x_min":99,"x_max":734,"o":"m 573 0 l 573 435 l 260 435 l 260 0 l 99 0 l 99 958 l 260 958 l 260 568 l 573 568 l 573 958 l 734 958 l 734 0 l 573 0 m 467 1282 l 657 1120 l 596 1050 l 417 1164 l 239 1050 l 176 1120 l 367 1282 l 467 1282 z "},"I":{"ha":833,"x_min":128,"x_max":705,"o":"m 705 958 l 705 835 l 498 835 l 498 124 l 705 124 l 705 0 l 128 0 l 128 124 l 335 124 l 335 835 l 128 835 l 128 958 l 705 958 z "},"Ĳ":{"ha":833,"x_min":14,"x_max":752,"o":"m 263 -99 q 470 -37 399 -82 q 568 81 542 8 q 594 253 594 153 l 594 843 l 295 843 l 295 115 l 392 115 l 392 0 l 14 0 l 14 115 l 139 115 l 139 843 l 14 843 l 14 958 l 752 958 l 752 252 q 730 87 752 165 q 655 -52 708 10 q 511 -156 602 -114 q 282 -213 419 -197 l 263 -99 z "},"Í":{"ha":833,"x_min":128,"x_max":705,"o":"m 705 958 l 705 835 l 498 835 l 498 124 l 705 124 l 705 0 l 128 0 l 128 124 l 335 124 l 335 835 l 128 835 l 128 958 l 705 958 m 529 1283 l 593 1159 l 284 1047 l 244 1128 l 529 1283 z "},"Ĭ":{"ha":833,"x_min":128,"x_max":705,"o":"m 705 958 l 705 835 l 498 835 l 498 124 l 705 124 l 705 0 l 128 0 l 128 124 l 335 124 l 335 835 l 128 835 l 128 958 l 705 958 m 415 1050 q 264 1102 322 1050 q 197 1234 206 1153 l 293 1253 q 337 1187 308 1210 q 415 1164 366 1164 q 495 1187 464 1164 q 540 1253 526 1210 l 635 1234 q 568 1102 627 1153 q 415 1050 508 1050 z "},"Î":{"ha":833,"x_min":128,"x_max":705,"o":"m 705 958 l 705 835 l 498 835 l 498 124 l 705 124 l 705 0 l 128 0 l 128 124 l 335 124 l 335 835 l 128 835 l 128 958 l 705 958 m 467 1282 l 657 1120 l 596 1050 l 417 1164 l 239 1050 l 176 1120 l 367 1282 l 467 1282 z "},"Ï":{"ha":833,"x_min":128,"x_max":705,"o":"m 705 958 l 705 835 l 498 835 l 498 124 l 705 124 l 705 0 l 128 0 l 128 124 l 335 124 l 335 835 l 128 835 l 128 958 l 705 958 z "},"İ":{"ha":833,"x_min":128,"x_max":705,"o":"m 705 958 l 705 835 l 498 835 l 498 124 l 705 124 l 705 0 l 128 0 l 128 124 l 335 124 l 335 835 l 128 835 l 128 958 l 705 958 z "},"Ì":{"ha":833,"x_min":128,"x_max":705,"o":"m 705 958 l 705 835 l 498 835 l 498 124 l 705 124 l 705 0 l 128 0 l 128 124 l 335 124 l 335 835 l 128 835 l 128 958 l 705 958 m 316 1286 l 589 1128 l 547 1047 l 244 1162 l 316 1286 z "},"Ī":{"ha":833,"x_min":128,"x_max":705,"o":"m 705 958 l 705 835 l 498 835 l 498 124 l 705 124 l 705 0 l 128 0 l 128 124 l 335 124 l 335 835 l 128 835 l 128 958 l 705 958 z "},"Į":{"ha":833,"x_min":128,"x_max":705,"o":"m 705 958 l 705 835 l 498 835 l 498 124 l 705 124 l 705 0 l 128 0 l 128 124 l 335 124 l 335 835 l 128 835 l 128 958 l 705 958 m 476 53 l 497 0 q 392 -55 428 -28 q 343 -106 356 -81 q 330 -157 330 -131 q 408 -224 330 -224 q 449 -221 431 -224 q 490 -214 467 -219 l 476 -321 q 436 -328 456 -326 q 391 -331 417 -331 q 257 -290 308 -331 q 206 -181 206 -249 q 276 -40 206 -94 q 476 53 346 15 z "},"Ĩ":{"ha":833,"x_min":128,"x_max":705,"o":"m 705 958 l 705 835 l 498 835 l 498 124 l 705 124 l 705 0 l 128 0 l 128 124 l 335 124 l 335 835 l 128 835 l 128 958 l 705 958 z "},"J":{"ha":833,"x_min":83,"x_max":706,"o":"m 706 958 l 706 328 q 670 157 706 236 q 558 30 635 78 q 356 -18 481 -18 q 210 5 277 -18 q 83 70 142 28 l 149 173 q 255 123 206 136 q 350 109 303 109 q 493 167 440 109 q 545 332 545 224 l 545 835 l 257 835 l 257 958 l 706 958 z "},"Ĵ":{"ha":833,"x_min":83,"x_max":727,"o":"m 706 958 l 706 328 q 670 157 706 236 q 558 30 635 78 q 356 -18 481 -18 q 210 5 277 -18 q 83 70 142 28 l 149 173 q 255 123 206 136 q 350 109 303 109 q 493 167 440 109 q 545 332 545 224 l 545 835 l 257 835 l 257 958 l 706 958 m 538 1282 l 727 1120 l 666 1050 l 487 1164 l 309 1050 l 246 1120 l 438 1282 l 538 1282 z "},"K":{"ha":833,"x_min":122,"x_max":826,"o":"m 283 0 l 122 0 l 122 958 l 283 958 l 283 0 m 290 512 l 623 958 l 800 958 l 465 523 l 826 0 l 633 0 l 290 512 z "},"Ķ":{"ha":833,"x_min":122,"x_max":826,"o":"m 283 0 l 122 0 l 122 958 l 283 958 l 283 0 m 290 512 l 623 958 l 800 958 l 465 523 l 826 0 l 633 0 l 290 512 z "},"L":{"ha":833,"x_min":166,"x_max":756,"o":"m 166 0 l 166 958 l 327 958 l 327 135 l 756 135 l 739 0 l 166 0 z "},"Ĺ":{"ha":833,"x_min":74,"x_max":756,"o":"m 166 0 l 166 958 l 327 958 l 327 135 l 756 135 l 739 0 l 166 0 m 359 1283 l 423 1159 l 114 1047 l 74 1128 l 359 1283 z "},"Ľ":{"ha":833,"x_min":166,"x_max":756,"o":"m 166 0 l 166 958 l 327 958 l 327 135 l 756 135 l 739 0 l 166 0 m 449 977 l 588 960 l 501 685 l 408 699 l 449 977 z "},"Ļ":{"ha":833,"x_min":166,"x_max":756,"o":"m 166 0 l 166 958 l 327 958 l 327 135 l 756 135 l 739 0 l 166 0 z "},"Ŀ":{"ha":833,"x_min":166,"x_max":756,"o":"m 166 0 l 166 958 l 327 958 l 327 135 l 756 135 l 739 0 l 166 0 m 652 626 q 726 599 697 626 q 754 529 754 571 q 726 459 754 488 q 652 431 697 431 q 578 459 607 431 q 550 529 550 488 q 578 599 550 571 q 652 626 607 626 z "},"Ł":{"ha":833,"x_min":40,"x_max":763,"o":"m 172 0 l 172 352 l 99 306 l 40 401 l 172 483 l 172 958 l 333 958 l 333 583 l 540 711 l 601 618 l 333 452 l 333 135 l 763 135 l 745 0 l 172 0 z "},"M":{"ha":833,"x_min":35,"x_max":798,"o":"m 744 958 l 798 0 l 651 0 l 628 467 q 624 663 623 572 q 627 817 624 754 l 486 169 l 346 169 l 194 817 q 200 661 199 757 q 199 465 202 565 l 180 0 l 35 0 l 90 958 l 283 958 l 419 316 l 550 958 l 744 958 z "},"N":{"ha":833,"x_min":99,"x_max":734,"o":"m 524 0 l 219 815 q 228 727 222 787 q 238 590 233 667 q 242 435 242 513 l 242 0 l 99 0 l 99 958 l 308 958 l 614 142 q 600 289 609 185 q 591 522 591 392 l 591 958 l 734 958 l 734 0 l 524 0 z "},"Ń":{"ha":833,"x_min":99,"x_max":734,"o":"m 524 0 l 219 815 q 228 727 222 787 q 238 590 233 667 q 242 435 242 513 l 242 0 l 99 0 l 99 958 l 308 958 l 614 142 q 600 289 609 185 q 591 522 591 392 l 591 958 l 734 958 l 734 0 l 524 0 m 533 1283 l 597 1159 l 288 1047 l 248 1128 l 533 1283 z "},"Ň":{"ha":833,"x_min":99,"x_max":734,"o":"m 524 0 l 219 815 q 228 727 222 787 q 238 590 233 667 q 242 435 242 513 l 242 0 l 99 0 l 99 958 l 308 958 l 614 142 q 600 289 609 185 q 591 522 591 392 l 591 958 l 734 958 l 734 0 l 524 0 m 600 1278 l 661 1208 l 472 1046 l 372 1046 l 180 1208 l 243 1278 l 421 1164 l 600 1278 z "},"Ņ":{"ha":833,"x_min":99,"x_max":734,"o":"m 524 0 l 219 815 q 228 727 222 787 q 238 590 233 667 q 242 435 242 513 l 242 0 l 99 0 l 99 958 l 308 958 l 614 142 q 600 289 609 185 q 591 522 591 392 l 591 958 l 734 958 l 734 0 l 524 0 z "},"Ŋ":{"ha":833,"x_min":99,"x_max":734,"o":"m 524 0 l 219 815 q 228 727 222 787 q 238 590 233 667 q 242 435 242 513 l 242 0 l 99 0 l 99 958 l 308 958 l 614 142 q 600 289 609 185 q 591 522 591 392 l 591 958 l 734 958 l 734 0 l 524 0 m 503 -303 q 405 -286 446 -303 q 335 -247 365 -269 l 395 -149 q 439 -171 418 -162 q 492 -179 460 -179 q 552 -156 531 -179 q 573 -79 573 -132 l 573 0 l 734 0 l 734 -67 q 672 -244 734 -185 q 503 -303 610 -303 z "},"Ñ":{"ha":833,"x_min":99,"x_max":734,"o":"m 524 0 l 219 815 q 228 727 222 787 q 238 590 233 667 q 242 435 242 513 l 242 0 l 99 0 l 99 958 l 308 958 l 614 142 q 600 289 609 185 q 591 522 591 392 l 591 958 l 734 958 l 734 0 l 524 0 z "},"O":{"ha":833,"x_min":52,"x_max":781,"o":"m 781 479 q 740 219 781 331 q 618 44 699 107 q 417 -19 537 -19 q 215 42 297 -19 q 93 215 134 103 q 52 478 52 327 q 93 738 52 626 q 215 914 134 851 q 417 978 297 978 q 618 916 537 978 q 740 742 699 854 q 781 479 781 630 m 615 479 q 569 759 615 665 q 417 852 523 852 q 265 758 310 852 q 219 478 219 664 q 266 200 219 292 q 417 107 313 107 q 569 200 523 107 q 615 479 615 294 z "},"Ó":{"ha":833,"x_min":52,"x_max":781,"o":"m 781 479 q 740 219 781 331 q 618 44 699 107 q 417 -19 537 -19 q 215 42 297 -19 q 93 215 134 103 q 52 478 52 327 q 93 738 52 626 q 215 914 134 851 q 417 978 297 978 q 618 916 537 978 q 740 742 699 854 q 781 479 781 630 m 615 479 q 569 759 615 665 q 417 852 523 852 q 265 758 310 852 q 219 478 219 664 q 266 200 219 292 q 417 107 313 107 q 569 200 523 107 q 615 479 615 294 m 529 1283 l 593 1159 l 284 1047 l 244 1128 l 529 1283 z "},"Ŏ":{"ha":833,"x_min":52,"x_max":781,"o":"m 781 479 q 740 219 781 331 q 618 44 699 107 q 417 -19 537 -19 q 215 42 297 -19 q 93 215 134 103 q 52 478 52 327 q 93 738 52 626 q 215 914 134 851 q 417 978 297 978 q 618 916 537 978 q 740 742 699 854 q 781 479 781 630 m 615 479 q 569 759 615 665 q 417 852 523 852 q 265 758 310 852 q 219 478 219 664 q 266 200 219 292 q 417 107 313 107 q 569 200 523 107 q 615 479 615 294 m 415 1050 q 264 1102 322 1050 q 197 1234 206 1153 l 293 1253 q 337 1187 308 1210 q 415 1164 366 1164 q 495 1187 464 1164 q 540 1253 526 1210 l 635 1234 q 568 1102 627 1153 q 415 1050 508 1050 z "},"Ô":{"ha":833,"x_min":52,"x_max":781,"o":"m 781 479 q 740 219 781 331 q 618 44 699 107 q 417 -19 537 -19 q 215 42 297 -19 q 93 215 134 103 q 52 478 52 327 q 93 738 52 626 q 215 914 134 851 q 417 978 297 978 q 618 916 537 978 q 740 742 699 854 q 781 479 781 630 m 615 479 q 569 759 615 665 q 417 852 523 852 q 265 758 310 852 q 219 478 219 664 q 266 200 219 292 q 417 107 313 107 q 569 200 523 107 q 615 479 615 294 m 467 1282 l 657 1120 l 596 1050 l 417 1164 l 239 1050 l 176 1120 l 367 1282 l 467 1282 z "},"Ö":{"ha":833,"x_min":52,"x_max":781,"o":"m 781 479 q 740 219 781 331 q 618 44 699 107 q 417 -19 537 -19 q 215 42 297 -19 q 93 215 134 103 q 52 478 52 327 q 93 738 52 626 q 215 914 134 851 q 417 978 297 978 q 618 916 537 978 q 740 742 699 854 q 781 479 781 630 m 615 479 q 569 759 615 665 q 417 852 523 852 q 265 758 310 852 q 219 478 219 664 q 266 200 219 292 q 417 107 313 107 q 569 200 523 107 q 615 479 615 294 z "},"Ò":{"ha":833,"x_min":52,"x_max":781,"o":"m 781 479 q 740 219 781 331 q 618 44 699 107 q 417 -19 537 -19 q 215 42 297 -19 q 93 215 134 103 q 52 478 52 327 q 93 738 52 626 q 215 914 134 851 q 417 978 297 978 q 618 916 537 978 q 740 742 699 854 q 781 479 781 630 m 615 479 q 569 759 615 665 q 417 852 523 852 q 265 758 310 852 q 219 478 219 664 q 266 200 219 292 q 417 107 313 107 q 569 200 523 107 q 615 479 615 294 m 316 1286 l 589 1128 l 547 1047 l 244 1162 l 316 1286 z "},"Ő":{"ha":833,"x_min":52,"x_max":781,"o":"m 781 479 q 740 219 781 331 q 618 44 699 107 q 417 -19 537 -19 q 215 42 297 -19 q 93 215 134 103 q 52 478 52 327 q 93 738 52 626 q 215 914 134 851 q 417 978 297 978 q 618 916 537 978 q 740 742 699 854 q 781 479 781 630 m 615 479 q 569 759 615 665 q 417 852 523 852 q 265 758 310 852 q 219 478 219 664 q 266 200 219 292 q 417 107 313 107 q 569 200 523 107 q 615 479 615 294 z "},"Ō":{"ha":833,"x_min":52,"x_max":781,"o":"m 781 479 q 740 219 781 331 q 618 44 699 107 q 417 -19 537 -19 q 215 42 297 -19 q 93 215 134 103 q 52 478 52 327 q 93 738 52 626 q 215 914 134 851 q 417 978 297 978 q 618 916 537 978 q 740 742 699 854 q 781 479 781 630 m 615 479 q 569 759 615 665 q 417 852 523 852 q 265 758 310 852 q 219 478 219 664 q 266 200 219 292 q 417 107 313 107 q 569 200 523 107 q 615 479 615 294 z "},"Ø":{"ha":833,"x_min":52,"x_max":781,"o":"m 417 978 q 499 969 460 978 l 542 1115 l 666 1081 l 615 916 q 739 743 696 856 q 781 479 781 631 q 740 219 781 331 q 618 44 699 107 q 417 -19 537 -19 q 335 -10 374 -19 l 292 -152 l 169 -118 l 219 42 q 95 214 138 102 q 52 478 52 326 q 93 738 52 626 q 215 914 134 851 q 417 978 297 978 m 417 853 q 263 759 310 853 q 216 478 216 665 q 278 168 216 251 l 476 846 q 417 853 449 853 m 617 479 q 556 792 617 709 l 359 113 q 417 106 385 106 q 571 200 524 106 q 617 479 617 293 z "},"Ǿ":{"ha":833,"x_min":52,"x_max":781,"o":"m 417 978 q 499 969 460 978 l 542 1115 l 666 1081 l 615 916 q 739 743 696 856 q 781 479 781 631 q 740 219 781 331 q 618 44 699 107 q 417 -19 537 -19 q 335 -10 374 -19 l 292 -152 l 169 -118 l 219 42 q 95 214 138 102 q 52 478 52 326 q 93 738 52 626 q 215 914 134 851 q 417 978 297 978 m 417 853 q 263 759 310 853 q 216 478 216 665 q 278 168 216 251 l 476 846 q 417 853 449 853 m 617 479 q 556 792 617 709 l 359 113 q 417 106 385 106 q 571 200 524 106 q 617 479 617 293 m 529 1283 l 593 1159 l 284 1047 l 244 1128 l 529 1283 z "},"Õ":{"ha":833,"x_min":52,"x_max":781,"o":"m 781 479 q 740 219 781 331 q 618 44 699 107 q 417 -19 537 -19 q 215 42 297 -19 q 93 215 134 103 q 52 478 52 327 q 93 738 52 626 q 215 914 134 851 q 417 978 297 978 q 618 916 537 978 q 740 742 699 854 q 781 479 781 630 m 615 479 q 569 759 615 665 q 417 852 523 852 q 265 758 310 852 q 219 478 219 664 q 266 200 219 292 q 417 107 313 107 q 569 200 523 107 q 615 479 615 294 z "},"Œ":{"ha":833,"x_min":4,"x_max":847,"o":"m 301 978 q 358 973 331 978 q 413 958 384 968 l 839 958 l 821 840 l 515 840 q 567 722 547 794 q 591 546 586 649 l 788 546 l 788 426 l 592 426 q 567 243 588 319 q 509 119 545 167 l 847 119 l 847 0 l 408 0 q 357 -13 382 -8 q 301 -19 331 -19 q 76 108 148 -19 q 4 478 4 235 q 76 847 4 717 q 301 978 149 978 m 301 857 q 191 769 225 857 q 158 478 158 682 q 193 187 158 274 q 301 101 228 101 q 413 188 378 101 q 447 479 447 275 q 414 771 447 685 q 301 857 381 857 z "},"P":{"ha":833,"x_min":133,"x_max":784,"o":"m 784 658 q 736 476 784 546 q 604 374 688 406 q 410 342 519 342 l 294 342 l 294 0 l 133 0 l 133 958 l 399 958 q 682 884 579 958 q 784 658 784 810 m 615 656 q 559 796 615 755 q 409 838 503 838 l 294 838 l 294 465 l 411 465 q 558 506 501 465 q 615 656 615 548 z "},"Þ":{"ha":833,"x_min":124,"x_max":783,"o":"m 285 958 l 285 799 l 399 799 q 682 724 581 799 q 783 492 783 649 q 736 310 783 381 q 606 206 690 239 q 410 172 522 172 l 285 172 l 285 0 l 124 0 l 124 958 l 285 958 m 410 678 l 285 678 l 285 294 l 415 294 q 559 336 504 294 q 614 490 614 378 q 559 634 614 590 q 410 678 504 678 z "},"Q":{"ha":833,"x_min":56,"x_max":844,"o":"m 780 479 q 736 217 780 331 q 580 44 692 103 q 747 -26 685 24 q 844 -185 808 -76 l 695 -240 q 630 -117 666 -167 q 540 -41 594 -67 q 403 -15 486 -15 q 212 45 289 -15 q 95 216 135 106 q 56 478 56 327 q 97 738 56 626 q 218 914 138 851 q 418 978 298 978 q 618 916 538 978 q 739 742 699 854 q 780 479 780 630 m 613 479 q 568 758 613 665 q 418 851 524 851 q 268 757 312 851 q 224 478 224 663 q 269 200 224 292 q 418 107 315 107 q 568 200 524 107 q 613 479 613 294 z "},"R":{"ha":833,"x_min":118,"x_max":813,"o":"m 759 681 q 696 510 759 575 q 541 417 633 444 l 813 0 l 625 0 l 384 394 l 279 394 l 279 0 l 118 0 l 118 958 l 385 958 q 664 889 569 958 q 759 681 759 820 m 590 681 q 542 802 590 765 q 394 839 493 839 l 279 839 l 279 513 l 398 513 q 540 552 490 513 q 590 681 590 591 z "},"Ŕ":{"ha":833,"x_min":118,"x_max":813,"o":"m 759 681 q 696 510 759 575 q 541 417 633 444 l 813 0 l 625 0 l 384 394 l 279 394 l 279 0 l 118 0 l 118 958 l 385 958 q 664 889 569 958 q 759 681 759 820 m 590 681 q 542 802 590 765 q 394 839 493 839 l 279 839 l 279 513 l 398 513 q 540 552 490 513 q 590 681 590 591 m 529 1283 l 593 1159 l 284 1047 l 244 1128 l 529 1283 z "},"Ř":{"ha":833,"x_min":118,"x_max":813,"o":"m 759 681 q 696 510 759 575 q 541 417 633 444 l 813 0 l 625 0 l 384 394 l 279 394 l 279 0 l 118 0 l 118 958 l 385 958 q 664 889 569 958 q 759 681 759 820 m 590 681 q 542 802 590 765 q 394 839 493 839 l 279 839 l 279 513 l 398 513 q 540 552 490 513 q 590 681 590 591 m 596 1278 l 657 1208 l 467 1046 l 367 1046 l 176 1208 l 239 1278 l 417 1164 l 596 1278 z "},"Ŗ":{"ha":833,"x_min":118,"x_max":813,"o":"m 759 681 q 696 510 759 575 q 541 417 633 444 l 813 0 l 625 0 l 384 394 l 279 394 l 279 0 l 118 0 l 118 958 l 385 958 q 664 889 569 958 q 759 681 759 820 m 590 681 q 542 802 590 765 q 394 839 493 839 l 279 839 l 279 513 l 398 513 q 540 552 490 513 q 590 681 590 591 z "},"S":{"ha":833,"x_min":44,"x_max":762,"o":"m 762 271 q 718 120 762 185 q 593 18 675 55 q 397 -19 512 -19 q 192 16 279 -19 q 44 110 104 51 l 132 208 q 247 135 183 161 q 396 108 312 108 q 536 147 477 108 q 594 263 594 185 q 577 334 594 305 q 517 387 560 364 q 398 433 474 410 q 167 542 246 478 q 89 719 89 606 q 132 855 89 797 q 249 945 174 913 q 418 978 324 978 q 600 948 522 978 q 739 863 678 917 l 654 767 q 545 831 603 810 q 428 851 488 851 q 304 820 354 851 q 254 728 254 790 q 275 664 254 690 q 344 616 295 638 q 478 567 393 593 q 623 509 559 544 q 725 418 688 474 q 762 271 762 361 z "},"Ś":{"ha":833,"x_min":44,"x_max":762,"o":"m 762 271 q 718 120 762 185 q 593 18 675 55 q 397 -19 512 -19 q 192 16 279 -19 q 44 110 104 51 l 132 208 q 247 135 183 161 q 396 108 312 108 q 536 147 477 108 q 594 263 594 185 q 577 334 594 305 q 517 387 560 364 q 398 433 474 410 q 167 542 246 478 q 89 719 89 606 q 132 855 89 797 q 249 945 174 913 q 418 978 324 978 q 600 948 522 978 q 739 863 678 917 l 654 767 q 545 831 603 810 q 428 851 488 851 q 304 820 354 851 q 254 728 254 790 q 275 664 254 690 q 344 616 295 638 q 478 567 393 593 q 623 509 559 544 q 725 418 688 474 q 762 271 762 361 m 539 1283 l 603 1159 l 294 1047 l 254 1128 l 539 1283 z "},"Š":{"ha":833,"x_min":44,"x_max":762,"o":"m 762 271 q 718 120 762 185 q 593 18 675 55 q 397 -19 512 -19 q 192 16 279 -19 q 44 110 104 51 l 132 208 q 247 135 183 161 q 396 108 312 108 q 536 147 477 108 q 594 263 594 185 q 577 334 594 305 q 517 387 560 364 q 398 433 474 410 q 167 542 246 478 q 89 719 89 606 q 132 855 89 797 q 249 945 174 913 q 418 978 324 978 q 600 948 522 978 q 739 863 678 917 l 654 767 q 545 831 603 810 q 428 851 488 851 q 304 820 354 851 q 254 728 254 790 q 275 664 254 690 q 344 616 295 638 q 478 567 393 593 q 623 509 559 544 q 725 418 688 474 q 762 271 762 361 m 606 1278 l 667 1208 l 477 1046 l 377 1046 l 185 1208 l 249 1278 l 426 1164 l 606 1278 z "},"Ş":{"ha":833,"x_min":44,"x_max":762,"o":"m 762 271 q 718 120 762 185 q 593 18 675 55 q 397 -19 512 -19 q 192 16 279 -19 q 44 110 104 51 l 132 208 q 247 135 183 161 q 396 108 312 108 q 536 147 477 108 q 594 263 594 185 q 577 334 594 305 q 517 387 560 364 q 398 433 474 410 q 167 542 246 478 q 89 719 89 606 q 132 855 89 797 q 249 945 174 913 q 418 978 324 978 q 600 948 522 978 q 739 863 678 917 l 654 767 q 545 831 603 810 q 428 851 488 851 q 304 820 354 851 q 254 728 254 790 q 275 664 254 690 q 344 616 295 638 q 478 567 393 593 q 623 509 559 544 q 725 418 688 474 q 762 271 762 361 z "},"Ŝ":{"ha":833,"x_min":44,"x_max":762,"o":"m 762 271 q 718 120 762 185 q 593 18 675 55 q 397 -19 512 -19 q 192 16 279 -19 q 44 110 104 51 l 132 208 q 247 135 183 161 q 396 108 312 108 q 536 147 477 108 q 594 263 594 185 q 577 334 594 305 q 517 387 560 364 q 398 433 474 410 q 167 542 246 478 q 89 719 89 606 q 132 855 89 797 q 249 945 174 913 q 418 978 324 978 q 600 948 522 978 q 739 863 678 917 l 654 767 q 545 831 603 810 q 428 851 488 851 q 304 820 354 851 q 254 728 254 790 q 275 664 254 690 q 344 616 295 638 q 478 567 393 593 q 623 509 559 544 q 725 418 688 474 q 762 271 762 361 m 477 1282 l 667 1120 l 606 1050 l 426 1164 l 249 1050 l 185 1120 l 377 1282 l 477 1282 z "},"Ș":{"ha":833,"x_min":44,"x_max":762,"o":"m 762 271 q 718 120 762 185 q 593 18 675 55 q 397 -19 512 -19 q 192 16 279 -19 q 44 110 104 51 l 132 208 q 247 135 183 161 q 396 108 312 108 q 536 147 477 108 q 594 263 594 185 q 577 334 594 305 q 517 387 560 364 q 398 433 474 410 q 167 542 246 478 q 89 719 89 606 q 132 855 89 797 q 249 945 174 913 q 418 978 324 978 q 600 948 522 978 q 739 863 678 917 l 654 767 q 545 831 603 810 q 428 851 488 851 q 304 820 354 851 q 254 728 254 790 q 275 664 254 690 q 344 616 295 638 q 478 567 393 593 q 623 509 559 544 q 725 418 688 474 q 762 271 762 361 z "},"T":{"ha":833,"x_min":47,"x_max":790,"o":"m 495 828 l 495 0 l 334 0 l 334 828 l 47 828 l 47 958 l 790 958 l 773 828 l 495 828 z "},"Ŧ":{"ha":833,"x_min":47,"x_max":790,"o":"m 160 467 l 160 574 l 334 574 l 334 828 l 47 828 l 47 958 l 790 958 l 773 828 l 495 828 l 495 574 l 671 574 l 671 467 l 495 467 l 495 0 l 334 0 l 334 467 l 160 467 z "},"Ť":{"ha":833,"x_min":47,"x_max":790,"o":"m 495 828 l 495 0 l 334 0 l 334 828 l 47 828 l 47 958 l 790 958 l 773 828 l 495 828 m 594 1278 l 656 1208 l 466 1046 l 366 1046 l 174 1208 l 238 1278 l 415 1164 l 594 1278 z "},"Ţ":{"ha":833,"x_min":47,"x_max":790,"o":"m 495 828 l 495 0 l 334 0 l 334 828 l 47 828 l 47 958 l 790 958 l 773 828 l 495 828 z "},"Ț":{"ha":833,"x_min":47,"x_max":790,"o":"m 495 828 l 495 0 l 334 0 l 334 828 l 47 828 l 47 958 l 790 958 l 773 828 l 495 828 z "},"U":{"ha":833,"x_min":85,"x_max":749,"o":"m 749 958 l 749 315 q 709 142 749 217 q 595 24 670 67 q 416 -19 521 -19 q 235 23 309 -19 q 123 140 161 65 q 85 315 85 215 l 85 958 l 246 958 l 246 344 q 286 168 246 227 q 416 110 326 110 q 546 168 506 110 q 587 344 587 227 l 587 958 l 749 958 z "},"Ú":{"ha":833,"x_min":85,"x_max":749,"o":"m 749 958 l 749 315 q 709 142 749 217 q 595 24 670 67 q 416 -19 521 -19 q 235 23 309 -19 q 123 140 161 65 q 85 315 85 215 l 85 958 l 246 958 l 246 344 q 286 168 246 227 q 416 110 326 110 q 546 168 506 110 q 587 344 587 227 l 587 958 l 749 958 m 529 1283 l 593 1159 l 284 1047 l 244 1128 l 529 1283 z "},"Ŭ":{"ha":833,"x_min":85,"x_max":749,"o":"m 749 958 l 749 315 q 709 142 749 217 q 595 24 670 67 q 416 -19 521 -19 q 235 23 309 -19 q 123 140 161 65 q 85 315 85 215 l 85 958 l 246 958 l 246 344 q 286 168 246 227 q 416 110 326 110 q 546 168 506 110 q 587 344 587 227 l 587 958 l 749 958 m 415 1050 q 264 1102 322 1050 q 197 1234 206 1153 l 293 1253 q 337 1187 308 1210 q 415 1164 366 1164 q 495 1187 464 1164 q 540 1253 526 1210 l 635 1234 q 568 1102 627 1153 q 415 1050 508 1050 z "},"Û":{"ha":833,"x_min":85,"x_max":749,"o":"m 749 958 l 749 315 q 709 142 749 217 q 595 24 670 67 q 416 -19 521 -19 q 235 23 309 -19 q 123 140 161 65 q 85 315 85 215 l 85 958 l 246 958 l 246 344 q 286 168 246 227 q 416 110 326 110 q 546 168 506 110 q 587 344 587 227 l 587 958 l 749 958 m 467 1282 l 657 1120 l 596 1050 l 417 1164 l 239 1050 l 176 1120 l 367 1282 l 467 1282 z "},"Ü":{"ha":833,"x_min":85,"x_max":749,"o":"m 749 958 l 749 315 q 709 142 749 217 q 595 24 670 67 q 416 -19 521 -19 q 235 23 309 -19 q 123 140 161 65 q 85 315 85 215 l 85 958 l 246 958 l 246 344 q 286 168 246 227 q 416 110 326 110 q 546 168 506 110 q 587 344 587 227 l 587 958 l 749 958 z "},"Ù":{"ha":833,"x_min":85,"x_max":749,"o":"m 749 958 l 749 315 q 709 142 749 217 q 595 24 670 67 q 416 -19 521 -19 q 235 23 309 -19 q 123 140 161 65 q 85 315 85 215 l 85 958 l 246 958 l 246 344 q 286 168 246 227 q 416 110 326 110 q 546 168 506 110 q 587 344 587 227 l 587 958 l 749 958 m 316 1286 l 589 1128 l 547 1047 l 244 1162 l 316 1286 z "},"Ű":{"ha":833,"x_min":85,"x_max":749,"o":"m 749 958 l 749 315 q 709 142 749 217 q 595 24 670 67 q 416 -19 521 -19 q 235 23 309 -19 q 123 140 161 65 q 85 315 85 215 l 85 958 l 246 958 l 246 344 q 286 168 246 227 q 416 110 326 110 q 546 168 506 110 q 587 344 587 227 l 587 958 l 749 958 z "},"Ū":{"ha":833,"x_min":85,"x_max":749,"o":"m 749 958 l 749 315 q 709 142 749 217 q 595 24 670 67 q 416 -19 521 -19 q 235 23 309 -19 q 123 140 161 65 q 85 315 85 215 l 85 958 l 246 958 l 246 344 q 286 168 246 227 q 416 110 326 110 q 546 168 506 110 q 587 344 587 227 l 587 958 l 749 958 z "},"Ų":{"ha":833,"x_min":85,"x_max":749,"o":"m 749 958 l 749 315 q 709 142 749 217 q 595 24 670 67 q 416 -19 521 -19 q 235 23 309 -19 q 123 140 161 65 q 85 315 85 215 l 85 958 l 246 958 l 246 344 q 286 168 246 227 q 416 110 326 110 q 546 168 506 110 q 587 344 587 227 l 587 958 l 749 958 m 516 53 l 537 0 q 432 -55 468 -28 q 383 -106 396 -81 q 369 -157 369 -131 q 448 -224 369 -224 q 489 -221 470 -224 q 530 -214 507 -219 l 516 -321 q 476 -328 496 -326 q 431 -331 456 -331 q 297 -290 348 -331 q 246 -181 246 -249 q 316 -40 246 -94 q 516 53 385 15 z "},"Ů":{"ha":833,"x_min":85,"x_max":749,"o":"m 749 958 l 749 315 q 709 142 749 217 q 595 24 670 67 q 416 -19 521 -19 q 235 23 309 -19 q 123 140 161 65 q 85 315 85 215 l 85 958 l 246 958 l 246 344 q 286 168 246 227 q 416 110 326 110 q 546 168 506 110 q 587 344 587 227 l 587 958 l 749 958 z "},"Ũ":{"ha":833,"x_min":85,"x_max":749,"o":"m 749 958 l 749 315 q 709 142 749 217 q 595 24 670 67 q 416 -19 521 -19 q 235 23 309 -19 q 123 140 161 65 q 85 315 85 215 l 85 958 l 246 958 l 246 344 q 286 168 246 227 q 416 110 326 110 q 546 168 506 110 q 587 344 587 227 l 587 958 l 749 958 z "},"V":{"ha":833,"x_min":21,"x_max":813,"o":"m 420 153 l 649 958 l 813 958 l 509 0 l 324 0 l 21 958 l 193 958 l 420 153 z "},"W":{"ha":833,"x_min":3,"x_max":831,"o":"m 831 958 l 698 0 l 510 0 l 415 709 l 317 0 l 125 0 l 3 958 l 158 958 l 234 156 l 335 847 l 501 847 l 597 156 l 687 958 l 831 958 z "},"Ẃ":{"ha":833,"x_min":3,"x_max":831,"o":"m 831 958 l 698 0 l 510 0 l 415 709 l 317 0 l 125 0 l 3 958 l 158 958 l 234 156 l 335 847 l 501 847 l 597 156 l 687 958 l 831 958 m 529 1283 l 593 1159 l 284 1047 l 244 1128 l 529 1283 z "},"Ŵ":{"ha":833,"x_min":3,"x_max":831,"o":"m 831 958 l 698 0 l 510 0 l 415 709 l 317 0 l 125 0 l 3 958 l 158 958 l 234 156 l 335 847 l 501 847 l 597 156 l 687 958 l 831 958 m 467 1282 l 657 1120 l 596 1050 l 417 1164 l 239 1050 l 176 1120 l 367 1282 l 467 1282 z "},"Ẅ":{"ha":833,"x_min":3,"x_max":831,"o":"m 831 958 l 698 0 l 510 0 l 415 709 l 317 0 l 125 0 l 3 958 l 158 958 l 234 156 l 335 847 l 501 847 l 597 156 l 687 958 l 831 958 z "},"Ẁ":{"ha":833,"x_min":3,"x_max":831,"o":"m 831 958 l 698 0 l 510 0 l 415 709 l 317 0 l 125 0 l 3 958 l 158 958 l 234 156 l 335 847 l 501 847 l 597 156 l 687 958 l 831 958 m 316 1286 l 589 1128 l 547 1047 l 244 1162 l 316 1286 z "},"X":{"ha":833,"x_min":28,"x_max":805,"o":"m 53 958 l 231 958 l 417 613 l 604 958 l 776 958 l 510 518 l 805 0 l 626 0 l 414 408 l 201 0 l 28 0 l 319 510 l 53 958 z "},"Y":{"ha":833,"x_min":16,"x_max":817,"o":"m 498 366 l 498 0 l 335 0 l 335 365 l 16 958 l 193 958 l 420 504 l 649 958 l 817 958 l 498 366 z "},"Ý":{"ha":833,"x_min":16,"x_max":817,"o":"m 498 366 l 498 0 l 335 0 l 335 365 l 16 958 l 193 958 l 420 504 l 649 958 l 817 958 l 498 366 m 532 1283 l 596 1159 l 287 1047 l 247 1128 l 532 1283 z "},"Ŷ":{"ha":833,"x_min":16,"x_max":817,"o":"m 498 366 l 498 0 l 335 0 l 335 365 l 16 958 l 193 958 l 420 504 l 649 958 l 817 958 l 498 366 m 470 1282 l 660 1120 l 599 1050 l 419 1164 l 242 1050 l 178 1120 l 370 1282 l 470 1282 z "},"Ÿ":{"ha":833,"x_min":16,"x_max":817,"o":"m 498 366 l 498 0 l 335 0 l 335 365 l 16 958 l 193 958 l 420 504 l 649 958 l 817 958 l 498 366 z "},"Ỳ":{"ha":833,"x_min":16,"x_max":817,"o":"m 498 366 l 498 0 l 335 0 l 335 365 l 16 958 l 193 958 l 420 504 l 649 958 l 817 958 l 498 366 m 319 1286 l 592 1128 l 549 1047 l 247 1162 l 319 1286 z "},"Z":{"ha":833,"x_min":82,"x_max":751,"o":"m 266 133 l 751 133 l 733 0 l 82 0 l 82 125 l 569 828 l 132 828 l 132 958 l 747 958 l 747 832 l 266 133 z "},"Ź":{"ha":833,"x_min":82,"x_max":751,"o":"m 266 133 l 751 133 l 733 0 l 82 0 l 82 125 l 569 828 l 132 828 l 132 958 l 747 958 l 747 832 l 266 133 m 551 1283 l 615 1159 l 306 1047 l 267 1128 l 551 1283 z "},"Ž":{"ha":833,"x_min":82,"x_max":751,"o":"m 266 133 l 751 133 l 733 0 l 82 0 l 82 125 l 569 828 l 132 828 l 132 958 l 747 958 l 747 832 l 266 133 m 619 1278 l 680 1208 l 490 1046 l 390 1046 l 199 1208 l 262 1278 l 440 1164 l 619 1278 z "},"Ż":{"ha":833,"x_min":82,"x_max":751,"o":"m 266 133 l 751 133 l 733 0 l 82 0 l 82 125 l 569 828 l 132 828 l 132 958 l 747 958 l 747 832 l 266 133 z "},"a":{"ha":833,"x_min":78,"x_max":740,"o":"m 684 180 q 697 117 684 136 q 740 88 710 97 l 705 -18 q 611 12 651 -12 q 553 83 572 35 q 451 7 513 32 q 319 -19 389 -19 q 142 44 207 -19 q 78 209 78 107 q 168 388 78 325 q 426 450 258 450 l 531 450 l 531 498 q 488 600 531 569 q 368 631 445 631 q 281 622 332 631 q 173 593 229 613 l 135 703 q 269 741 203 728 q 392 753 335 753 q 611 688 539 753 q 684 507 684 622 l 684 180 m 366 96 q 458 121 413 96 q 531 191 503 146 l 531 353 l 445 353 q 288 316 335 353 q 241 216 241 280 q 366 96 241 96 z "},"á":{"ha":833,"x_min":78,"x_max":740,"o":"m 684 180 q 697 117 684 136 q 740 88 710 97 l 705 -18 q 611 12 651 -12 q 553 83 572 35 q 451 7 513 32 q 319 -19 389 -19 q 142 44 207 -19 q 78 209 78 107 q 168 388 78 325 q 426 450 258 450 l 531 450 l 531 498 q 488 600 531 569 q 368 631 445 631 q 281 622 332 631 q 173 593 229 613 l 135 703 q 269 741 203 728 q 392 753 335 753 q 611 688 539 753 q 684 507 684 622 l 684 180 m 366 96 q 458 121 413 96 q 531 191 503 146 l 531 353 l 445 353 q 288 316 335 353 q 241 216 241 280 q 366 96 241 96 m 519 1127 l 584 1002 l 280 880 l 234 960 l 519 1127 z "},"ă":{"ha":833,"x_min":78,"x_max":740,"o":"m 684 180 q 697 117 684 136 q 740 88 710 97 l 705 -18 q 611 12 651 -12 q 553 83 572 35 q 451 7 513 32 q 319 -19 389 -19 q 142 44 207 -19 q 78 209 78 107 q 168 388 78 325 q 426 450 258 450 l 531 450 l 531 498 q 488 600 531 569 q 368 631 445 631 q 281 622 332 631 q 173 593 229 613 l 135 703 q 269 741 203 728 q 392 753 335 753 q 611 688 539 753 q 684 507 684 622 l 684 180 m 366 96 q 458 121 413 96 q 531 191 503 146 l 531 353 l 445 353 q 288 316 335 353 q 241 216 241 280 q 366 96 241 96 m 404 865 q 290 897 336 865 q 218 977 243 928 q 187 1074 192 1025 l 283 1093 q 326 1010 297 1042 q 404 978 356 978 q 484 1010 453 978 q 529 1093 515 1042 l 625 1074 q 593 977 619 1025 q 520 897 567 928 q 404 865 473 865 z "},"â":{"ha":833,"x_min":78,"x_max":740,"o":"m 684 180 q 697 117 684 136 q 740 88 710 97 l 705 -18 q 611 12 651 -12 q 553 83 572 35 q 451 7 513 32 q 319 -19 389 -19 q 142 44 207 -19 q 78 209 78 107 q 168 388 78 325 q 426 450 258 450 l 531 450 l 531 498 q 488 600 531 569 q 368 631 445 631 q 281 622 332 631 q 173 593 229 613 l 135 703 q 269 741 203 728 q 392 753 335 753 q 611 688 539 753 q 684 507 684 622 l 684 180 m 366 96 q 458 121 413 96 q 531 191 503 146 l 531 353 l 445 353 q 288 316 335 353 q 241 216 241 280 q 366 96 241 96 m 231 865 l 165 934 l 357 1110 l 457 1110 l 647 934 l 584 865 l 407 992 l 231 865 z "},"ä":{"ha":833,"x_min":78,"x_max":740,"o":"m 684 180 q 697 117 684 136 q 740 88 710 97 l 705 -18 q 611 12 651 -12 q 553 83 572 35 q 451 7 513 32 q 319 -19 389 -19 q 142 44 207 -19 q 78 209 78 107 q 168 388 78 325 q 426 450 258 450 l 531 450 l 531 498 q 488 600 531 569 q 368 631 445 631 q 281 622 332 631 q 173 593 229 613 l 135 703 q 269 741 203 728 q 392 753 335 753 q 611 688 539 753 q 684 507 684 622 l 684 180 m 366 96 q 458 121 413 96 q 531 191 503 146 l 531 353 l 445 353 q 288 316 335 353 q 241 216 241 280 q 366 96 241 96 m 256 894 q 191 920 217 894 q 165 983 165 945 q 191 1045 165 1020 q 256 1071 217 1071 q 320 1045 294 1071 q 346 983 346 1020 q 320 920 346 945 q 256 894 294 894 m 556 894 q 492 920 518 894 q 466 983 466 945 q 492 1045 466 1020 q 556 1071 518 1071 q 620 1045 594 1071 q 647 983 647 1020 q 620 920 647 945 q 556 894 594 894 z "},"à":{"ha":833,"x_min":78,"x_max":740,"o":"m 684 180 q 697 117 684 136 q 740 88 710 97 l 705 -18 q 611 12 651 -12 q 553 83 572 35 q 451 7 513 32 q 319 -19 389 -19 q 142 44 207 -19 q 78 209 78 107 q 168 388 78 325 q 426 450 258 450 l 531 450 l 531 498 q 488 600 531 569 q 368 631 445 631 q 281 622 332 631 q 173 593 229 613 l 135 703 q 269 741 203 728 q 392 753 335 753 q 611 688 539 753 q 684 507 684 622 l 684 180 m 366 96 q 458 121 413 96 q 531 191 503 146 l 531 353 l 445 353 q 288 316 335 353 q 241 216 241 280 q 366 96 241 96 m 533 864 l 234 994 l 306 1118 l 579 946 l 533 864 z "},"ā":{"ha":833,"x_min":78,"x_max":740,"o":"m 684 180 q 697 117 684 136 q 740 88 710 97 l 705 -18 q 611 12 651 -12 q 553 83 572 35 q 451 7 513 32 q 319 -19 389 -19 q 142 44 207 -19 q 78 209 78 107 q 168 388 78 325 q 426 450 258 450 l 531 450 l 531 498 q 488 600 531 569 q 368 631 445 631 q 281 622 332 631 q 173 593 229 613 l 135 703 q 269 741 203 728 q 392 753 335 753 q 611 688 539 753 q 684 507 684 622 l 684 180 m 366 96 q 458 121 413 96 q 531 191 503 146 l 531 353 l 445 353 q 288 316 335 353 q 241 216 241 280 q 366 96 241 96 m 602 929 l 210 929 l 210 1042 l 602 1042 l 602 929 z "},"ą":{"ha":833,"x_min":78,"x_max":740,"o":"m 684 180 q 697 117 684 136 q 740 88 710 97 l 705 -18 q 611 12 651 -12 q 553 83 572 35 q 451 7 513 32 q 319 -19 389 -19 q 142 44 207 -19 q 78 209 78 107 q 168 388 78 325 q 426 450 258 450 l 531 450 l 531 498 q 488 600 531 569 q 368 631 445 631 q 281 622 332 631 q 173 593 229 613 l 135 703 q 269 741 203 728 q 392 753 335 753 q 611 688 539 753 q 684 507 684 622 l 684 180 m 366 96 q 458 121 413 96 q 531 191 503 146 l 531 353 l 445 353 q 288 316 335 353 q 241 216 241 280 q 366 96 241 96 m 683 35 l 704 -18 q 599 -73 635 -47 q 550 -124 563 -99 q 537 -175 537 -149 q 615 -242 537 -242 q 656 -239 638 -242 q 697 -232 674 -237 l 683 -339 q 643 -347 663 -344 q 598 -349 624 -349 q 464 -308 515 -349 q 413 -199 413 -267 q 483 -58 413 -112 q 683 35 553 -3 z "},"å":{"ha":833,"x_min":78,"x_max":740,"o":"m 684 180 q 697 117 684 136 q 740 88 710 97 l 705 -18 q 611 12 651 -12 q 553 83 572 35 q 451 7 513 32 q 319 -19 389 -19 q 142 44 207 -19 q 78 209 78 107 q 168 388 78 325 q 426 450 258 450 l 531 450 l 531 498 q 488 600 531 569 q 368 631 445 631 q 281 622 332 631 q 173 593 229 613 l 135 703 q 269 741 203 728 q 392 753 335 753 q 611 688 539 753 q 684 507 684 622 l 684 180 m 366 96 q 458 121 413 96 q 531 191 503 146 l 531 353 l 445 353 q 288 316 335 353 q 241 216 241 280 q 366 96 241 96 m 406 1165 q 528 1119 482 1165 q 575 1008 575 1073 q 528 897 575 943 q 406 851 482 851 q 284 897 331 851 q 238 1008 238 943 q 284 1119 238 1073 q 406 1165 331 1165 m 406 1083 q 355 1063 374 1083 q 336 1008 336 1043 q 355 952 336 972 q 406 933 374 933 q 457 952 438 933 q 476 1008 476 972 q 457 1063 476 1043 q 406 1083 438 1083 z "},"ã":{"ha":833,"x_min":78,"x_max":740,"o":"m 684 180 q 697 117 684 136 q 740 88 710 97 l 705 -18 q 611 12 651 -12 q 553 83 572 35 q 451 7 513 32 q 319 -19 389 -19 q 142 44 207 -19 q 78 209 78 107 q 168 388 78 325 q 426 450 258 450 l 531 450 l 531 498 q 488 600 531 569 q 368 631 445 631 q 281 622 332 631 q 173 593 229 613 l 135 703 q 269 741 203 728 q 392 753 335 753 q 611 688 539 753 q 684 507 684 622 l 684 180 m 366 96 q 458 121 413 96 q 531 191 503 146 l 531 353 l 445 353 q 288 316 335 353 q 241 216 241 280 q 366 96 241 96 m 486 902 q 421 918 448 902 q 372 951 394 935 q 326 967 350 967 q 285 951 301 967 q 252 904 269 935 l 165 948 q 229 1043 189 1003 q 324 1083 269 1083 q 391 1066 365 1083 q 439 1034 417 1050 q 485 1017 460 1017 q 524 1032 507 1017 q 559 1078 540 1047 l 647 1035 q 578 937 619 972 q 486 902 538 902 z "},"æ":{"ha":833,"x_min":-8,"x_max":839,"o":"m 600 753 q 783 656 727 753 q 839 386 839 559 q 836 319 839 349 l 477 319 q 522 151 487 205 q 625 97 558 97 q 693 110 663 97 q 757 148 724 124 l 822 56 q 731 2 780 23 q 619 -19 683 -19 q 492 13 544 -19 q 403 108 440 45 q 316 11 360 40 q 201 -19 272 -19 q 48 44 105 -19 q -8 210 -8 108 q 65 387 -8 326 q 283 449 138 449 l 344 449 l 344 498 q 311 607 344 572 q 218 641 278 641 q 153 633 183 641 q 79 604 123 624 l 41 705 q 138 740 90 727 q 233 753 185 753 q 356 722 313 753 q 421 640 399 691 q 489 722 444 692 q 600 753 534 753 m 595 640 q 512 592 540 640 q 477 422 484 544 l 706 422 q 681 585 704 531 q 595 640 658 640 m 344 353 l 296 353 q 173 317 208 353 q 139 218 139 280 q 163 124 139 156 q 227 92 186 92 q 298 120 267 92 q 356 205 328 149 q 344 353 344 276 z "},"ǽ":{"ha":833,"x_min":-8,"x_max":839,"o":"m 600 753 q 783 656 727 753 q 839 386 839 559 q 836 319 839 349 l 477 319 q 522 151 487 205 q 625 97 558 97 q 693 110 663 97 q 757 148 724 124 l 822 56 q 731 2 780 23 q 619 -19 683 -19 q 492 13 544 -19 q 403 108 440 45 q 316 11 360 40 q 201 -19 272 -19 q 48 44 105 -19 q -8 210 -8 108 q 65 387 -8 326 q 283 449 138 449 l 344 449 l 344 498 q 311 607 344 572 q 218 641 278 641 q 153 633 183 641 q 79 604 123 624 l 41 705 q 138 740 90 727 q 233 753 185 753 q 356 722 313 753 q 421 640 399 691 q 489 722 444 692 q 600 753 534 753 m 595 640 q 512 592 540 640 q 477 422 484 544 l 706 422 q 681 585 704 531 q 595 640 658 640 m 344 353 l 296 353 q 173 317 208 353 q 139 218 139 280 q 163 124 139 156 q 227 92 186 92 q 298 120 267 92 q 356 205 328 149 q 344 353 344 276 m 538 1127 l 603 1002 l 299 880 l 253 960 l 538 1127 z "},"b":{"ha":833,"x_min":124,"x_max":753,"o":"m 279 646 q 368 724 317 696 q 481 753 419 753 q 637 705 577 753 q 725 571 697 658 q 753 368 753 485 q 720 169 753 256 q 622 31 687 81 q 462 -19 557 -19 q 269 72 339 -19 l 260 0 l 124 0 l 124 1028 l 279 1045 l 279 646 m 423 100 q 545 165 502 100 q 589 367 589 229 q 550 570 589 508 q 438 633 510 633 q 346 601 386 633 q 279 528 306 570 l 279 185 q 341 123 305 145 q 423 100 378 100 z "},"c":{"ha":833,"x_min":115,"x_max":730,"o":"m 477 109 q 573 127 528 109 q 658 173 617 145 l 730 73 q 614 7 682 32 q 472 -19 545 -19 q 280 29 360 -19 q 157 162 199 76 q 115 363 115 248 q 158 563 115 475 q 281 702 201 651 q 475 753 362 753 q 729 665 622 753 l 658 567 q 569 612 615 597 q 478 628 524 628 q 335 564 390 628 q 281 363 281 500 q 336 167 281 226 q 477 109 392 109 z "},"ć":{"ha":833,"x_min":115,"x_max":730,"o":"m 477 109 q 573 127 528 109 q 658 173 617 145 l 730 73 q 614 7 682 32 q 472 -19 545 -19 q 280 29 360 -19 q 157 162 199 76 q 115 363 115 248 q 158 563 115 475 q 281 702 201 651 q 475 753 362 753 q 729 665 622 753 l 658 567 q 569 612 615 597 q 478 628 524 628 q 335 564 390 628 q 281 363 281 500 q 336 167 281 226 q 477 109 392 109 m 590 1113 l 656 988 l 351 866 l 306 947 l 590 1113 z "},"č":{"ha":833,"x_min":115,"x_max":730,"o":"m 477 109 q 573 127 528 109 q 658 173 617 145 l 730 73 q 614 7 682 32 q 472 -19 545 -19 q 280 29 360 -19 q 157 162 199 76 q 115 363 115 248 q 158 563 115 475 q 281 702 201 651 q 475 753 362 753 q 729 665 622 753 l 658 567 q 569 612 615 597 q 478 628 524 628 q 335 564 390 628 q 281 363 281 500 q 336 167 281 226 q 477 109 392 109 m 656 1096 l 718 1026 l 528 851 l 428 851 l 237 1026 l 302 1096 l 478 968 l 656 1096 z "},"ç":{"ha":833,"x_min":115,"x_max":730,"o":"m 477 109 q 573 127 528 109 q 658 173 617 145 l 730 73 q 614 7 682 32 q 472 -19 545 -19 q 280 29 360 -19 q 157 162 199 76 q 115 363 115 248 q 158 563 115 475 q 281 702 201 651 q 475 753 362 753 q 729 665 622 753 l 658 567 q 569 612 615 597 q 478 628 524 628 q 335 564 390 628 q 281 363 281 500 q 336 167 281 226 q 477 109 392 109 m 516 -197 q 484 -153 516 -164 q 393 -143 451 -143 l 408 22 l 503 22 l 503 -74 q 606 -116 574 -81 q 638 -199 638 -151 q 585 -306 638 -268 q 454 -344 531 -344 q 370 -333 410 -344 q 302 -306 330 -322 l 345 -226 q 437 -249 388 -249 q 494 -237 472 -249 q 516 -197 516 -226 z "},"ĉ":{"ha":833,"x_min":115,"x_max":730,"o":"m 477 109 q 573 127 528 109 q 658 173 617 145 l 730 73 q 614 7 682 32 q 472 -19 545 -19 q 280 29 360 -19 q 157 162 199 76 q 115 363 115 248 q 158 563 115 475 q 281 702 201 651 q 475 753 362 753 q 729 665 622 753 l 658 567 q 569 612 615 597 q 478 628 524 628 q 335 564 390 628 q 281 363 281 500 q 336 167 281 226 q 477 109 392 109 m 302 851 l 237 920 l 428 1096 l 528 1096 l 718 920 l 656 851 l 478 978 l 302 851 z "},"ċ":{"ha":833,"x_min":115,"x_max":730,"o":"m 477 109 q 573 127 528 109 q 658 173 617 145 l 730 73 q 614 7 682 32 q 472 -19 545 -19 q 280 29 360 -19 q 157 162 199 76 q 115 363 115 248 q 158 563 115 475 q 281 702 201 651 q 475 753 362 753 q 729 665 622 753 l 658 567 q 569 612 615 597 q 478 628 524 628 q 335 564 390 628 q 281 363 281 500 q 336 167 281 226 q 477 109 392 109 m 477 1078 q 551 1051 522 1078 q 579 981 579 1023 q 551 911 579 940 q 477 883 522 883 q 403 911 432 883 q 375 981 375 940 q 403 1051 375 1023 q 477 1078 432 1078 z "},"d":{"ha":833,"x_min":80,"x_max":710,"o":"m 554 1045 l 710 1028 l 710 0 l 573 0 l 562 90 q 472 10 524 38 q 356 -19 420 -19 q 200 30 261 -19 q 110 165 140 78 q 80 367 80 251 q 115 566 80 478 q 214 703 149 653 q 369 753 278 753 q 554 673 483 753 l 554 1045 m 410 633 q 288 568 332 633 q 244 367 244 503 q 284 164 244 226 q 397 101 324 101 q 488 131 449 101 q 554 205 527 162 l 554 552 q 491 612 527 591 q 410 633 455 633 z "},"ð":{"ha":833,"x_min":78,"x_max":752,"o":"m 213 785 l 313 890 q 244 915 281 904 q 164 934 207 925 l 197 1045 q 308 1018 256 1033 q 402 983 359 1003 l 501 1087 l 587 1012 l 506 928 q 693 705 633 842 q 752 373 752 567 q 711 169 752 257 q 593 31 669 81 q 409 -19 516 -19 q 242 22 317 -19 q 123 139 167 62 q 78 326 78 216 q 119 506 78 428 q 228 626 160 583 q 375 669 296 669 q 493 647 442 669 q 582 583 543 624 q 517 727 560 664 q 414 835 474 791 l 317 735 l 213 785 m 594 365 q 594 414 594 391 q 592 460 593 437 q 406 552 526 552 q 287 499 337 552 q 238 331 238 445 q 285 158 238 215 q 410 100 333 100 q 546 167 497 100 q 594 365 594 233 z "},"ď":{"ha":833,"x_min":35,"x_max":894,"o":"m 509 1045 l 665 1028 l 665 0 l 528 0 l 517 90 q 427 10 479 38 q 310 -19 375 -19 q 155 30 216 -19 q 65 165 94 78 q 35 367 35 251 q 69 566 35 478 q 169 703 104 653 q 324 753 233 753 q 509 673 438 753 l 509 1045 m 365 633 q 243 568 287 633 q 199 367 199 503 q 239 164 199 226 q 351 101 279 101 q 443 131 404 101 q 509 205 482 162 l 509 552 q 446 612 482 591 q 365 633 410 633 m 756 1047 l 894 1030 l 807 754 l 715 769 l 756 1047 z "},"đ":{"ha":833,"x_min":72,"x_max":813,"o":"m 702 934 l 813 934 l 813 828 l 702 828 l 702 0 l 565 0 l 553 90 q 465 10 517 38 q 348 -19 413 -19 q 192 30 253 -19 q 102 165 131 78 q 72 367 72 251 q 107 566 72 478 q 206 703 141 653 q 362 753 271 753 q 547 673 475 753 l 547 828 l 335 828 l 335 934 l 547 934 l 547 1045 l 702 1028 l 702 934 m 403 633 q 281 568 324 633 q 237 367 237 503 q 277 164 237 226 q 389 101 317 101 q 480 131 442 101 q 547 205 519 162 l 547 552 q 483 612 519 591 q 403 633 447 633 z "},"e":{"ha":833,"x_min":92,"x_max":742,"o":"m 253 317 q 316 153 260 203 q 453 102 373 102 q 552 119 506 102 q 645 166 599 135 l 713 73 q 592 6 661 31 q 445 -19 524 -19 q 252 30 331 -19 q 132 165 173 78 q 92 366 92 252 q 132 564 92 476 q 247 702 172 651 q 426 753 322 753 q 657 655 572 753 q 742 386 742 557 q 741 349 742 367 q 739 317 740 331 l 253 317 m 428 638 q 307 585 355 638 q 252 423 259 533 l 592 423 q 548 582 590 526 q 428 638 506 638 z "},"é":{"ha":833,"x_min":92,"x_max":742,"o":"m 253 317 q 316 153 260 203 q 453 102 373 102 q 552 119 506 102 q 645 166 599 135 l 713 73 q 592 6 661 31 q 445 -19 524 -19 q 252 30 331 -19 q 132 165 173 78 q 92 366 92 252 q 132 564 92 476 q 247 702 172 651 q 426 753 322 753 q 657 655 572 753 q 742 386 742 557 q 741 349 742 367 q 739 317 740 331 l 253 317 m 428 638 q 307 585 355 638 q 252 423 259 533 l 592 423 q 548 582 590 526 q 428 638 506 638 m 542 1127 l 607 1002 l 303 880 l 257 960 l 542 1127 z "},"ĕ":{"ha":833,"x_min":92,"x_max":742,"o":"m 253 317 q 316 153 260 203 q 453 102 373 102 q 552 119 506 102 q 645 166 599 135 l 713 73 q 592 6 661 31 q 445 -19 524 -19 q 252 30 331 -19 q 132 165 173 78 q 92 366 92 252 q 132 564 92 476 q 247 702 172 651 q 426 753 322 753 q 657 655 572 753 q 742 386 742 557 q 741 349 742 367 q 739 317 740 331 l 253 317 m 428 638 q 307 585 355 638 q 252 423 259 533 l 592 423 q 548 582 590 526 q 428 638 506 638 m 427 865 q 313 897 359 865 q 241 977 266 928 q 210 1074 215 1025 l 306 1093 q 349 1010 319 1042 q 427 978 378 978 q 507 1010 476 978 q 552 1093 538 1042 l 648 1074 q 616 977 642 1025 q 543 897 590 928 q 427 865 496 865 z "},"ě":{"ha":833,"x_min":92,"x_max":742,"o":"m 253 317 q 316 153 260 203 q 453 102 373 102 q 552 119 506 102 q 645 166 599 135 l 713 73 q 592 6 661 31 q 445 -19 524 -19 q 252 30 331 -19 q 132 165 173 78 q 92 366 92 252 q 132 564 92 476 q 247 702 172 651 q 426 753 322 753 q 657 655 572 753 q 742 386 742 557 q 741 349 742 367 q 739 317 740 331 l 253 317 m 428 638 q 307 585 355 638 q 252 423 259 533 l 592 423 q 548 582 590 526 q 428 638 506 638 m 607 1110 l 669 1040 l 480 865 l 380 865 l 188 1040 l 253 1110 l 430 982 l 607 1110 z "},"ê":{"ha":833,"x_min":92,"x_max":742,"o":"m 253 317 q 316 153 260 203 q 453 102 373 102 q 552 119 506 102 q 645 166 599 135 l 713 73 q 592 6 661 31 q 445 -19 524 -19 q 252 30 331 -19 q 132 165 173 78 q 92 366 92 252 q 132 564 92 476 q 247 702 172 651 q 426 753 322 753 q 657 655 572 753 q 742 386 742 557 q 741 349 742 367 q 739 317 740 331 l 253 317 m 428 638 q 307 585 355 638 q 252 423 259 533 l 592 423 q 548 582 590 526 q 428 638 506 638 m 253 865 l 188 934 l 380 1110 l 480 1110 l 669 934 l 607 865 l 430 992 l 253 865 z "},"ë":{"ha":833,"x_min":92,"x_max":742,"o":"m 253 317 q 316 153 260 203 q 453 102 373 102 q 552 119 506 102 q 645 166 599 135 l 713 73 q 592 6 661 31 q 445 -19 524 -19 q 252 30 331 -19 q 132 165 173 78 q 92 366 92 252 q 132 564 92 476 q 247 702 172 651 q 426 753 322 753 q 657 655 572 753 q 742 386 742 557 q 741 349 742 367 q 739 317 740 331 l 253 317 m 428 638 q 307 585 355 638 q 252 423 259 533 l 592 423 q 548 582 590 526 q 428 638 506 638 m 279 894 q 214 920 240 894 q 188 983 188 945 q 214 1045 188 1020 q 279 1071 240 1071 q 343 1045 317 1071 q 369 983 369 1020 q 343 920 369 945 q 279 894 317 894 m 578 894 q 515 920 541 894 q 489 983 489 945 q 515 1045 489 1020 q 578 1071 541 1071 q 643 1045 617 1071 q 669 983 669 1020 q 643 920 669 945 q 578 894 617 894 z "},"ė":{"ha":833,"x_min":92,"x_max":742,"o":"m 253 317 q 316 153 260 203 q 453 102 373 102 q 552 119 506 102 q 645 166 599 135 l 713 73 q 592 6 661 31 q 445 -19 524 -19 q 252 30 331 -19 q 132 165 173 78 q 92 366 92 252 q 132 564 92 476 q 247 702 172 651 q 426 753 322 753 q 657 655 572 753 q 742 386 742 557 q 741 349 742 367 q 739 317 740 331 l 253 317 m 428 638 q 307 585 355 638 q 252 423 259 533 l 592 423 q 548 582 590 526 q 428 638 506 638 m 428 1092 q 502 1065 474 1092 q 531 995 531 1037 q 502 925 531 953 q 428 897 474 897 q 355 925 383 897 q 326 995 326 953 q 355 1065 326 1037 q 428 1092 383 1092 z "},"è":{"ha":833,"x_min":92,"x_max":742,"o":"m 253 317 q 316 153 260 203 q 453 102 373 102 q 552 119 506 102 q 645 166 599 135 l 713 73 q 592 6 661 31 q 445 -19 524 -19 q 252 30 331 -19 q 132 165 173 78 q 92 366 92 252 q 132 564 92 476 q 247 702 172 651 q 426 753 322 753 q 657 655 572 753 q 742 386 742 557 q 741 349 742 367 q 739 317 740 331 l 253 317 m 428 638 q 307 585 355 638 q 252 423 259 533 l 592 423 q 548 582 590 526 q 428 638 506 638 m 556 864 l 257 994 l 328 1118 l 602 946 l 556 864 z "},"ē":{"ha":833,"x_min":92,"x_max":742,"o":"m 253 317 q 316 153 260 203 q 453 102 373 102 q 552 119 506 102 q 645 166 599 135 l 713 73 q 592 6 661 31 q 445 -19 524 -19 q 252 30 331 -19 q 132 165 173 78 q 92 366 92 252 q 132 564 92 476 q 247 702 172 651 q 426 753 322 753 q 657 655 572 753 q 742 386 742 557 q 741 349 742 367 q 739 317 740 331 l 253 317 m 428 638 q 307 585 355 638 q 252 423 259 533 l 592 423 q 548 582 590 526 q 428 638 506 638 m 625 929 l 233 929 l 233 1042 l 625 1042 l 625 929 z "},"ę":{"ha":833,"x_min":92,"x_max":742,"o":"m 253 317 q 316 153 260 203 q 453 102 373 102 q 552 119 506 102 q 645 166 599 135 l 713 73 q 592 6 661 31 q 445 -19 524 -19 q 252 30 331 -19 q 132 165 173 78 q 92 366 92 252 q 132 564 92 476 q 247 702 172 651 q 426 753 322 753 q 657 655 572 753 q 742 386 742 557 q 741 349 742 367 q 739 317 740 331 l 253 317 m 428 638 q 307 585 355 638 q 252 423 259 533 l 592 423 q 548 582 590 526 q 428 638 506 638 m 564 35 l 573 0 q 468 -55 504 -28 q 419 -106 432 -81 q 406 -157 406 -131 q 484 -224 406 -224 q 525 -221 506 -224 q 566 -214 543 -219 l 552 -321 q 512 -328 532 -326 q 467 -331 492 -331 q 333 -290 384 -331 q 282 -181 282 -249 q 357 -44 282 -98 q 564 35 432 10 z "},"f":{"ha":833,"x_min":122,"x_max":788,"o":"m 569 1045 q 690 1034 637 1045 q 788 1003 743 1022 l 742 895 q 666 917 706 910 q 585 924 626 924 q 443 810 443 924 l 443 681 l 688 681 l 672 566 l 443 566 l 443 0 l 288 0 l 288 566 l 122 566 l 122 681 l 288 681 l 288 812 q 365 981 288 916 q 569 1045 442 1045 z "},"g":{"ha":833,"x_min":73,"x_max":783,"o":"m 741 826 l 783 697 q 686 678 739 683 q 569 673 634 673 q 669 598 635 644 q 702 487 702 553 q 667 359 702 415 q 568 271 633 303 q 413 239 503 239 q 358 242 381 239 q 313 251 335 244 q 280 190 280 229 q 298 152 280 168 q 372 135 317 135 l 499 135 q 638 109 578 135 q 732 36 698 82 q 767 -69 767 -10 q 672 -239 767 -178 q 400 -299 578 -299 q 202 -274 274 -299 q 102 -197 131 -248 q 73 -73 73 -147 l 213 -73 q 227 -137 213 -112 q 283 -174 242 -162 q 401 -186 324 -186 q 563 -158 516 -186 q 610 -79 610 -130 q 572 -10 610 -34 q 467 14 533 14 l 342 14 q 189 56 238 14 q 141 155 141 99 q 223 288 141 234 q 127 372 157 322 q 97 492 97 422 q 135 628 97 570 q 243 719 174 687 q 403 752 313 752 q 550 761 491 751 q 653 788 609 771 q 741 826 697 805 m 404 645 q 292 603 330 645 q 255 494 255 561 q 293 382 255 424 q 406 340 331 340 q 511 381 475 340 q 548 495 548 421 q 404 645 548 645 z "},"ğ":{"ha":833,"x_min":73,"x_max":783,"o":"m 741 826 l 783 697 q 686 678 739 683 q 569 673 634 673 q 669 598 635 644 q 702 487 702 553 q 667 359 702 415 q 568 271 633 303 q 413 239 503 239 q 358 242 381 239 q 313 251 335 244 q 280 190 280 229 q 298 152 280 168 q 372 135 317 135 l 499 135 q 638 109 578 135 q 732 36 698 82 q 767 -69 767 -10 q 672 -239 767 -178 q 400 -299 578 -299 q 202 -274 274 -299 q 102 -197 131 -248 q 73 -73 73 -147 l 213 -73 q 227 -137 213 -112 q 283 -174 242 -162 q 401 -186 324 -186 q 563 -158 516 -186 q 610 -79 610 -130 q 572 -10 610 -34 q 467 14 533 14 l 342 14 q 189 56 238 14 q 141 155 141 99 q 223 288 141 234 q 127 372 157 322 q 97 492 97 422 q 135 628 97 570 q 243 719 174 687 q 403 752 313 752 q 550 761 491 751 q 653 788 609 771 q 741 826 697 805 m 404 645 q 292 603 330 645 q 255 494 255 561 q 293 382 255 424 q 406 340 331 340 q 511 381 475 340 q 548 495 548 421 q 404 645 548 645 m 409 865 q 294 897 341 865 q 223 977 248 928 q 192 1074 197 1025 l 288 1093 q 331 1010 301 1042 q 409 978 360 978 q 489 1010 458 978 q 534 1093 520 1042 l 630 1074 q 598 977 624 1025 q 525 897 572 928 q 409 865 478 865 z "},"ĝ":{"ha":833,"x_min":73,"x_max":783,"o":"m 741 826 l 783 697 q 686 678 739 683 q 569 673 634 673 q 669 598 635 644 q 702 487 702 553 q 667 359 702 415 q 568 271 633 303 q 413 239 503 239 q 358 242 381 239 q 313 251 335 244 q 280 190 280 229 q 298 152 280 168 q 372 135 317 135 l 499 135 q 638 109 578 135 q 732 36 698 82 q 767 -69 767 -10 q 672 -239 767 -178 q 400 -299 578 -299 q 202 -274 274 -299 q 102 -197 131 -248 q 73 -73 73 -147 l 213 -73 q 227 -137 213 -112 q 283 -174 242 -162 q 401 -186 324 -186 q 563 -158 516 -186 q 610 -79 610 -130 q 572 -10 610 -34 q 467 14 533 14 l 342 14 q 189 56 238 14 q 141 155 141 99 q 223 288 141 234 q 127 372 157 322 q 97 492 97 422 q 135 628 97 570 q 243 719 174 687 q 403 752 313 752 q 550 761 491 751 q 653 788 609 771 q 741 826 697 805 m 404 645 q 292 603 330 645 q 255 494 255 561 q 293 382 255 424 q 406 340 331 340 q 511 381 475 340 q 548 495 548 421 q 404 645 548 645 m 235 865 l 170 934 l 362 1110 l 462 1110 l 651 934 l 589 865 l 412 992 l 235 865 z "},"ģ":{"ha":833,"x_min":73,"x_max":783,"o":"m 741 826 l 783 697 q 686 678 739 683 q 569 673 634 673 q 669 598 635 644 q 702 487 702 553 q 667 359 702 415 q 568 271 633 303 q 413 239 503 239 q 358 242 381 239 q 313 251 335 244 q 280 190 280 229 q 298 152 280 168 q 372 135 317 135 l 499 135 q 638 109 578 135 q 732 36 698 82 q 767 -69 767 -10 q 672 -239 767 -178 q 400 -299 578 -299 q 202 -274 274 -299 q 102 -197 131 -248 q 73 -73 73 -147 l 213 -73 q 227 -137 213 -112 q 283 -174 242 -162 q 401 -186 324 -186 q 563 -158 516 -186 q 610 -79 610 -130 q 572 -10 610 -34 q 467 14 533 14 l 342 14 q 189 56 238 14 q 141 155 141 99 q 223 288 141 234 q 127 372 157 322 q 97 492 97 422 q 135 628 97 570 q 243 719 174 687 q 403 752 313 752 q 550 761 491 751 q 653 788 609 771 q 741 826 697 805 m 404 645 q 292 603 330 645 q 255 494 255 561 q 293 382 255 424 q 406 340 331 340 q 511 381 475 340 q 548 495 548 421 q 404 645 548 645 m 408 828 q 346 853 372 828 q 320 915 320 878 q 346 1006 320 952 l 415 1149 l 501 1149 l 461 988 q 487 957 477 975 q 497 915 497 938 q 472 853 497 878 q 408 828 446 828 z "},"ġ":{"ha":833,"x_min":73,"x_max":783,"o":"m 741 826 l 783 697 q 686 678 739 683 q 569 673 634 673 q 669 598 635 644 q 702 487 702 553 q 667 359 702 415 q 568 271 633 303 q 413 239 503 239 q 358 242 381 239 q 313 251 335 244 q 280 190 280 229 q 298 152 280 168 q 372 135 317 135 l 499 135 q 638 109 578 135 q 732 36 698 82 q 767 -69 767 -10 q 672 -239 767 -178 q 400 -299 578 -299 q 202 -274 274 -299 q 102 -197 131 -248 q 73 -73 73 -147 l 213 -73 q 227 -137 213 -112 q 283 -174 242 -162 q 401 -186 324 -186 q 563 -158 516 -186 q 610 -79 610 -130 q 572 -10 610 -34 q 467 14 533 14 l 342 14 q 189 56 238 14 q 141 155 141 99 q 223 288 141 234 q 127 372 157 322 q 97 492 97 422 q 135 628 97 570 q 243 719 174 687 q 403 752 313 752 q 550 761 491 751 q 653 788 609 771 q 741 826 697 805 m 404 645 q 292 603 330 645 q 255 494 255 561 q 293 382 255 424 q 406 340 331 340 q 511 381 475 340 q 548 495 548 421 q 404 645 548 645 m 410 1092 q 484 1065 456 1092 q 513 995 513 1037 q 484 925 513 953 q 410 897 456 897 q 337 925 365 897 q 308 995 308 953 q 337 1065 308 1037 q 410 1092 365 1092 z "},"h":{"ha":833,"x_min":124,"x_max":711,"o":"m 279 1043 l 279 644 q 383 725 324 698 q 506 753 442 753 q 660 695 610 753 q 711 535 711 638 l 711 0 l 556 0 l 556 510 q 531 605 556 576 q 450 634 506 634 q 353 600 398 634 q 279 524 309 567 l 279 0 l 124 0 l 124 1026 l 279 1043 z "},"ħ":{"ha":833,"x_min":21,"x_max":711,"o":"m 499 934 l 499 828 l 279 828 l 279 644 q 383 725 324 698 q 506 753 442 753 q 660 695 610 753 q 711 535 711 638 l 711 0 l 556 0 l 556 510 q 531 605 556 576 q 450 634 506 634 q 353 600 398 634 q 279 524 309 567 l 279 0 l 124 0 l 124 828 l 21 828 l 21 934 l 124 934 l 124 1026 l 279 1043 l 279 934 l 499 934 z "},"ĥ":{"ha":833,"x_min":124,"x_max":711,"o":"m 279 1043 l 279 644 q 383 725 324 698 q 506 753 442 753 q 660 695 610 753 q 711 535 711 638 l 711 0 l 556 0 l 556 510 q 531 605 556 576 q 450 634 506 634 q 353 600 398 634 q 279 524 309 567 l 279 0 l 124 0 l 124 1026 l 279 1043 m 467 1351 l 657 1189 l 596 1119 l 417 1233 l 239 1119 l 176 1189 l 367 1351 l 467 1351 z "},"i":{"ha":833,"x_min":149,"x_max":724,"o":"m 416 1092 q 490 1065 462 1092 q 518 995 518 1037 q 490 925 518 953 q 416 897 462 897 q 343 925 372 897 q 315 995 315 953 q 343 1065 315 1037 q 416 1092 372 1092 m 524 733 l 524 114 l 724 114 l 724 0 l 149 0 l 149 114 l 369 114 l 369 619 l 156 619 l 156 733 l 524 733 z "},"ı":{"ha":833,"x_min":149,"x_max":724,"o":"m 524 733 l 524 114 l 724 114 l 724 0 l 149 0 l 149 114 l 369 114 l 369 619 l 156 619 l 156 733 l 524 733 z "},"í":{"ha":833,"x_min":149,"x_max":724,"o":"m 524 733 l 524 114 l 724 114 l 724 0 l 149 0 l 149 114 l 369 114 l 369 619 l 156 619 l 156 733 l 524 733 m 530 1127 l 595 1002 l 291 880 l 245 960 l 530 1127 z "},"ĭ":{"ha":833,"x_min":149,"x_max":724,"o":"m 524 733 l 524 114 l 724 114 l 724 0 l 149 0 l 149 114 l 369 114 l 369 619 l 156 619 l 156 733 l 524 733 m 415 865 q 301 897 347 865 q 229 977 254 928 q 198 1074 203 1025 l 294 1093 q 337 1010 308 1042 q 415 978 367 978 q 495 1010 465 978 q 540 1093 526 1042 l 636 1074 q 605 977 631 1025 q 531 897 578 928 q 415 865 484 865 z "},"î":{"ha":833,"x_min":149,"x_max":724,"o":"m 524 733 l 524 114 l 724 114 l 724 0 l 149 0 l 149 114 l 369 114 l 369 619 l 156 619 l 156 733 l 524 733 m 242 865 l 176 934 l 368 1110 l 468 1110 l 658 934 l 595 865 l 418 992 l 242 865 z "},"ï":{"ha":833,"x_min":149,"x_max":724,"o":"m 524 733 l 524 114 l 724 114 l 724 0 l 149 0 l 149 114 l 369 114 l 369 619 l 156 619 l 156 733 l 524 733 m 267 894 q 202 920 228 894 q 176 983 176 945 q 202 1045 176 1020 q 267 1071 228 1071 q 331 1045 305 1071 q 357 983 357 1020 q 331 920 357 945 q 267 894 305 894 m 567 894 q 503 920 529 894 q 477 983 477 945 q 503 1045 477 1020 q 567 1071 529 1071 q 631 1045 605 1071 q 658 983 658 1020 q 631 920 658 945 q 567 894 605 894 z "},"ì":{"ha":833,"x_min":149,"x_max":724,"o":"m 524 733 l 524 114 l 724 114 l 724 0 l 149 0 l 149 114 l 369 114 l 369 619 l 156 619 l 156 733 l 524 733 m 544 864 l 245 994 l 317 1118 l 590 946 l 544 864 z "},"ĳ":{"ha":833,"x_min":60,"x_max":729,"o":"m 255 1092 q 329 1065 300 1092 q 358 995 358 1037 q 329 925 358 953 q 255 897 300 897 q 182 925 210 897 q 153 995 153 953 q 182 1065 153 1037 q 255 1092 210 1092 m 626 1092 q 700 1065 672 1092 q 729 995 729 1037 q 700 925 729 953 q 626 897 672 897 q 553 925 582 897 q 525 995 525 953 q 553 1065 525 1037 q 626 1092 582 1092 m 718 733 l 718 111 q 670 -84 718 -6 q 536 -214 622 -162 q 340 -299 451 -265 l 291 -182 q 429 -122 367 -156 q 528 -35 491 -87 q 565 100 565 17 l 565 622 l 329 622 l 329 114 l 439 114 l 439 0 l 60 0 l 60 114 l 177 114 l 177 622 l 67 622 l 67 733 l 718 733 z "},"ī":{"ha":833,"x_min":149,"x_max":724,"o":"m 524 733 l 524 114 l 724 114 l 724 0 l 149 0 l 149 114 l 369 114 l 369 619 l 156 619 l 156 733 l 524 733 m 613 929 l 221 929 l 221 1042 l 613 1042 l 613 929 z "},"į":{"ha":833,"x_min":149,"x_max":724,"o":"m 524 733 l 524 114 l 724 114 l 724 0 l 149 0 l 149 114 l 369 114 l 369 619 l 156 619 l 156 733 l 524 733 m 417 1092 q 490 1065 462 1092 q 519 995 519 1037 q 490 925 519 953 q 417 897 462 897 q 343 925 372 897 q 315 995 315 953 q 343 1065 315 1037 q 417 1092 372 1092 m 503 53 l 524 0 q 419 -55 456 -28 q 370 -106 383 -81 q 357 -157 357 -131 q 435 -224 357 -224 q 476 -221 458 -224 q 517 -214 494 -219 l 503 -321 q 464 -328 483 -326 q 418 -331 444 -331 q 284 -290 335 -331 q 233 -181 233 -249 q 303 -40 233 -94 q 503 53 373 15 z "},"ĩ":{"ha":833,"x_min":149,"x_max":724,"o":"m 524 733 l 524 114 l 724 114 l 724 0 l 149 0 l 149 114 l 369 114 l 369 619 l 156 619 l 156 733 l 524 733 m 497 902 q 432 918 459 902 q 383 951 406 935 q 337 967 361 967 q 296 951 313 967 q 263 904 280 935 l 176 948 q 240 1043 200 1003 q 335 1083 280 1083 q 402 1066 376 1083 q 450 1034 428 1050 q 497 1017 472 1017 q 535 1032 518 1017 q 570 1078 551 1047 l 658 1035 q 590 937 631 972 q 497 902 549 902 z "},"j":{"ha":833,"x_min":119,"x_max":633,"o":"m 511 1092 q 585 1065 556 1092 q 613 995 613 1037 q 585 925 613 953 q 511 897 556 897 q 438 925 466 897 q 410 995 410 953 q 438 1065 410 1037 q 511 1092 466 1092 m 633 733 l 633 154 q 576 -73 633 17 q 410 -217 519 -163 q 144 -299 301 -272 l 119 -180 q 309 -122 228 -159 q 433 -22 390 -85 q 477 144 477 42 l 477 619 l 188 619 l 188 733 l 633 733 z "},"ȷ":{"ha":833,"x_min":119,"x_max":633,"o":"m 633 733 l 633 154 q 576 -73 633 17 q 410 -217 519 -163 q 144 -299 301 -272 l 119 -180 q 309 -122 228 -159 q 433 -22 390 -85 q 477 144 477 42 l 477 619 l 188 619 l 188 733 l 633 733 z "},"ĵ":{"ha":833,"x_min":119,"x_max":752,"o":"m 633 733 l 633 154 q 576 -73 633 17 q 410 -217 519 -163 q 144 -299 301 -272 l 119 -180 q 309 -122 228 -159 q 433 -22 390 -85 q 477 144 477 42 l 477 619 l 188 619 l 188 733 l 633 733 m 336 865 l 271 934 l 463 1110 l 563 1110 l 752 934 l 690 865 l 513 992 l 336 865 z "},"k":{"ha":833,"x_min":128,"x_max":801,"o":"m 284 1045 l 284 0 l 128 0 l 128 1028 l 284 1045 m 769 733 l 473 406 l 801 0 l 610 0 l 295 401 l 588 733 l 769 733 z "},"ķ":{"ha":833,"x_min":128,"x_max":801,"o":"m 284 1045 l 284 0 l 128 0 l 128 1028 l 284 1045 m 769 733 l 473 406 l 801 0 l 610 0 l 295 401 l 588 733 l 769 733 m 424 -95 q 487 -120 461 -95 q 513 -182 513 -144 q 487 -273 513 -219 l 418 -416 l 332 -416 l 372 -255 q 345 -223 356 -242 q 335 -182 335 -205 q 361 -120 335 -145 q 424 -95 387 -95 z "},"ĸ":{"ha":833,"x_min":124,"x_max":796,"o":"m 765 733 l 466 399 l 796 0 l 606 0 l 290 389 l 583 733 l 765 733 m 279 733 l 279 0 l 124 0 l 124 733 l 279 733 z "},"l":{"ha":833,"x_min":69,"x_max":713,"o":"m 446 1028 l 446 200 q 477 128 446 149 q 557 107 508 107 q 617 114 588 107 q 673 131 646 120 l 713 23 q 632 -6 680 6 q 524 -19 585 -19 q 352 44 413 -19 q 290 214 290 106 l 290 913 l 69 913 l 69 1028 l 446 1028 z "},"ĺ":{"ha":833,"x_min":69,"x_max":713,"o":"m 446 1028 l 446 200 q 477 128 446 149 q 557 107 508 107 q 617 114 588 107 q 673 131 646 120 l 713 23 q 632 -6 680 6 q 524 -19 585 -19 q 352 44 413 -19 q 290 214 290 106 l 290 913 l 69 913 l 69 1028 l 446 1028 m 476 1421 l 541 1296 l 237 1174 l 191 1254 l 476 1421 z "},"ľ":{"ha":833,"x_min":69,"x_max":713,"o":"m 446 1028 l 446 200 q 477 128 446 149 q 557 107 508 107 q 617 114 588 107 q 673 131 646 120 l 713 23 q 632 -6 680 6 q 524 -19 585 -19 q 352 44 413 -19 q 290 214 290 106 l 290 913 l 69 913 l 69 1028 l 446 1028 m 550 1047 l 688 1030 l 601 754 l 509 769 l 550 1047 z "},"ļ":{"ha":833,"x_min":69,"x_max":713,"o":"m 446 1028 l 446 200 q 477 128 446 149 q 557 107 508 107 q 617 114 588 107 q 673 131 646 120 l 713 23 q 632 -6 680 6 q 524 -19 585 -19 q 352 44 413 -19 q 290 214 290 106 l 290 913 l 69 913 l 69 1028 l 446 1028 m 501 -95 q 563 -120 538 -95 q 589 -182 589 -144 q 563 -273 589 -219 l 494 -416 l 408 -416 l 448 -255 q 422 -223 432 -242 q 412 -182 412 -205 q 438 -120 412 -145 q 501 -95 463 -95 z "},"ŀ":{"ha":833,"x_min":69,"x_max":885,"o":"m 446 1028 l 446 200 q 477 128 446 149 q 557 107 508 107 q 617 114 588 107 q 673 131 646 120 l 713 23 q 632 -6 680 6 q 524 -19 585 -19 q 352 44 413 -19 q 290 214 290 106 l 290 913 l 69 913 l 69 1028 l 446 1028 m 783 628 q 856 601 828 628 q 885 531 885 573 q 856 461 885 490 q 783 433 828 433 q 709 461 738 433 q 681 531 681 490 q 709 601 681 573 q 783 628 738 628 z "},"ł":{"ha":833,"x_min":69,"x_max":713,"o":"m 290 528 l 290 913 l 69 913 l 69 1028 l 446 1028 l 446 625 l 558 694 l 618 600 l 446 494 l 446 200 q 477 128 446 149 q 557 107 508 107 q 617 114 588 107 q 673 131 646 120 l 713 23 q 632 -6 680 6 q 524 -19 585 -19 q 352 44 413 -19 q 290 214 290 106 l 290 399 l 209 350 l 149 443 l 290 528 z "},"m":{"ha":833,"x_min":58,"x_max":776,"o":"m 629 753 q 704 735 671 753 q 757 671 738 717 q 776 545 776 626 l 776 0 l 638 0 l 638 524 q 630 606 638 581 q 588 631 622 631 q 534 615 562 631 q 480 559 507 599 l 480 0 l 354 0 l 354 524 q 346 606 354 581 q 305 631 338 631 q 251 615 278 631 q 197 559 224 599 l 197 0 l 58 0 l 58 733 l 175 733 l 185 654 q 253 725 217 698 q 342 753 290 753 q 418 732 384 753 q 468 659 452 712 q 538 727 499 701 q 629 753 576 753 z "},"n":{"ha":833,"x_min":124,"x_max":711,"o":"m 124 0 l 124 733 l 258 733 l 269 638 q 378 723 315 694 q 506 753 440 753 q 660 695 609 753 q 711 535 711 638 l 711 0 l 556 0 l 556 458 q 536 593 556 553 q 451 634 517 634 q 353 601 397 634 q 279 526 309 568 l 279 0 l 124 0 z "},"ń":{"ha":833,"x_min":124,"x_max":711,"o":"m 124 0 l 124 733 l 258 733 l 269 638 q 378 723 315 694 q 506 753 440 753 q 660 695 609 753 q 711 535 711 638 l 711 0 l 556 0 l 556 458 q 536 593 556 553 q 451 634 517 634 q 353 601 397 634 q 279 526 309 568 l 279 0 l 124 0 m 530 1127 l 595 1002 l 291 880 l 245 960 l 530 1127 z "},"ŉ":{"ha":833,"x_min":-3,"x_max":728,"o":"m 86 1050 q 148 1026 123 1050 q 173 965 173 1001 q 166 922 173 944 q 138 859 158 900 l 81 742 l -3 742 l 34 893 q 8 924 18 906 q -3 965 -3 942 q 23 1025 -3 1001 q 86 1050 49 1050 m 141 0 l 141 733 l 276 733 l 287 638 q 395 723 333 694 q 524 753 458 753 q 677 695 626 753 q 728 535 728 638 l 728 0 l 573 0 l 573 458 q 554 593 573 553 q 468 634 535 634 q 370 601 415 634 q 297 526 326 568 l 297 0 l 141 0 z "},"ň":{"ha":833,"x_min":124,"x_max":711,"o":"m 124 0 l 124 733 l 258 733 l 269 638 q 378 723 315 694 q 506 753 440 753 q 660 695 609 753 q 711 535 711 638 l 711 0 l 556 0 l 556 458 q 536 593 556 553 q 451 634 517 634 q 353 601 397 634 q 279 526 309 568 l 279 0 l 124 0 m 595 1110 l 658 1040 l 468 865 l 368 865 l 176 1040 l 242 1110 l 418 982 l 595 1110 z "},"ņ":{"ha":833,"x_min":124,"x_max":711,"o":"m 124 0 l 124 733 l 258 733 l 269 638 q 378 723 315 694 q 506 753 440 753 q 660 695 609 753 q 711 535 711 638 l 711 0 l 556 0 l 556 458 q 536 593 556 553 q 451 634 517 634 q 353 601 397 634 q 279 526 309 568 l 279 0 l 124 0 m 421 -95 q 483 -120 458 -95 q 509 -182 509 -144 q 483 -273 509 -219 l 415 -416 l 328 -416 l 368 -255 q 342 -223 352 -242 q 332 -182 332 -205 q 358 -120 332 -145 q 421 -95 383 -95 z "},"ŋ":{"ha":833,"x_min":124,"x_max":711,"o":"m 711 56 q 682 -119 711 -54 q 599 -225 653 -185 q 466 -299 544 -265 l 410 -185 q 490 -139 458 -163 q 539 -71 522 -114 q 556 47 556 -28 l 556 458 q 537 593 556 553 q 450 634 518 634 q 353 600 398 634 q 279 524 309 567 l 279 0 l 124 0 l 124 733 l 258 733 l 269 638 q 378 723 315 694 q 506 753 441 753 q 660 695 610 753 q 711 535 711 638 l 711 56 z "},"ñ":{"ha":833,"x_min":124,"x_max":711,"o":"m 124 0 l 124 733 l 258 733 l 269 638 q 378 723 315 694 q 506 753 440 753 q 660 695 609 753 q 711 535 711 638 l 711 0 l 556 0 l 556 458 q 536 593 556 553 q 451 634 517 634 q 353 601 397 634 q 279 526 309 568 l 279 0 l 124 0 m 497 902 q 432 918 459 902 q 383 951 406 935 q 337 967 361 967 q 296 951 313 967 q 263 904 280 935 l 176 948 q 240 1043 200 1003 q 335 1083 280 1083 q 402 1066 376 1083 q 450 1034 428 1050 q 497 1017 472 1017 q 535 1032 518 1017 q 570 1078 551 1047 l 658 1035 q 590 937 631 972 q 497 902 549 902 z "},"o":{"ha":833,"x_min":85,"x_max":748,"o":"m 417 753 q 663 648 578 753 q 748 368 748 543 q 709 165 748 251 q 597 30 671 78 q 417 -19 523 -19 q 171 85 256 -19 q 85 367 85 189 q 124 568 85 481 q 237 704 163 655 q 417 753 311 753 m 417 632 q 291 568 333 632 q 249 367 249 503 q 291 166 249 230 q 417 101 333 101 q 543 166 501 101 q 585 368 585 231 q 543 568 585 503 q 417 632 501 632 z "},"ó":{"ha":833,"x_min":85,"x_max":748,"o":"m 417 753 q 663 648 578 753 q 748 368 748 543 q 709 165 748 251 q 597 30 671 78 q 417 -19 523 -19 q 171 85 256 -19 q 85 367 85 189 q 124 568 85 481 q 237 704 163 655 q 417 753 311 753 m 417 632 q 291 568 333 632 q 249 367 249 503 q 291 166 249 230 q 417 101 333 101 q 543 166 501 101 q 585 368 585 231 q 543 568 585 503 q 417 632 501 632 m 529 1127 l 594 1002 l 290 880 l 244 960 l 529 1127 z "},"ŏ":{"ha":833,"x_min":85,"x_max":748,"o":"m 417 753 q 663 648 578 753 q 748 368 748 543 q 709 165 748 251 q 597 30 671 78 q 417 -19 523 -19 q 171 85 256 -19 q 85 367 85 189 q 124 568 85 481 q 237 704 163 655 q 417 753 311 753 m 417 632 q 291 568 333 632 q 249 367 249 503 q 291 166 249 230 q 417 101 333 101 q 543 166 501 101 q 585 368 585 231 q 543 568 585 503 q 417 632 501 632 m 415 865 q 300 897 347 865 q 228 977 253 928 q 197 1074 203 1025 l 293 1093 q 336 1010 307 1042 q 415 978 366 978 q 495 1010 464 978 q 540 1093 526 1042 l 635 1074 q 604 977 630 1025 q 531 897 578 928 q 415 865 483 865 z "},"ô":{"ha":833,"x_min":85,"x_max":748,"o":"m 417 753 q 663 648 578 753 q 748 368 748 543 q 709 165 748 251 q 597 30 671 78 q 417 -19 523 -19 q 171 85 256 -19 q 85 367 85 189 q 124 568 85 481 q 237 704 163 655 q 417 753 311 753 m 417 632 q 291 568 333 632 q 249 367 249 503 q 291 166 249 230 q 417 101 333 101 q 543 166 501 101 q 585 368 585 231 q 543 568 585 503 q 417 632 501 632 m 241 865 l 176 934 l 367 1110 l 467 1110 l 657 934 l 594 865 l 417 992 l 241 865 z "},"ö":{"ha":833,"x_min":85,"x_max":748,"o":"m 417 753 q 663 648 578 753 q 748 368 748 543 q 709 165 748 251 q 597 30 671 78 q 417 -19 523 -19 q 171 85 256 -19 q 85 367 85 189 q 124 568 85 481 q 237 704 163 655 q 417 753 311 753 m 417 632 q 291 568 333 632 q 249 367 249 503 q 291 166 249 230 q 417 101 333 101 q 543 166 501 101 q 585 368 585 231 q 543 568 585 503 q 417 632 501 632 m 267 894 q 202 920 228 894 q 176 983 176 945 q 202 1045 176 1020 q 267 1071 228 1071 q 330 1045 304 1071 q 356 983 356 1020 q 330 920 356 945 q 267 894 304 894 m 566 894 q 502 920 528 894 q 476 983 476 945 q 502 1045 476 1020 q 566 1071 528 1071 q 631 1045 604 1071 q 657 983 657 1020 q 631 920 657 945 q 566 894 604 894 z "},"ò":{"ha":833,"x_min":85,"x_max":748,"o":"m 417 753 q 663 648 578 753 q 748 368 748 543 q 709 165 748 251 q 597 30 671 78 q 417 -19 523 -19 q 171 85 256 -19 q 85 367 85 189 q 124 568 85 481 q 237 704 163 655 q 417 753 311 753 m 417 632 q 291 568 333 632 q 249 367 249 503 q 291 166 249 230 q 417 101 333 101 q 543 166 501 101 q 585 368 585 231 q 543 568 585 503 q 417 632 501 632 m 543 864 l 244 994 l 316 1118 l 590 946 l 543 864 z "},"ő":{"ha":833,"x_min":85,"x_max":748,"o":"m 417 753 q 663 648 578 753 q 748 368 748 543 q 709 165 748 251 q 597 30 671 78 q 417 -19 523 -19 q 171 85 256 -19 q 85 367 85 189 q 124 568 85 481 q 237 704 163 655 q 417 753 311 753 m 417 632 q 291 568 333 632 q 249 367 249 503 q 291 166 249 230 q 417 101 333 101 q 543 166 501 101 q 585 368 585 231 q 543 568 585 503 q 417 632 501 632 m 237 919 l 356 1172 l 476 1115 l 327 878 l 237 919 m 464 920 l 592 1172 l 712 1112 l 552 876 l 464 920 z "},"ō":{"ha":833,"x_min":85,"x_max":748,"o":"m 417 753 q 663 648 578 753 q 748 368 748 543 q 709 165 748 251 q 597 30 671 78 q 417 -19 523 -19 q 171 85 256 -19 q 85 367 85 189 q 124 568 85 481 q 237 704 163 655 q 417 753 311 753 m 417 632 q 291 568 333 632 q 249 367 249 503 q 291 166 249 230 q 417 101 333 101 q 543 166 501 101 q 585 368 585 231 q 543 568 585 503 q 417 632 501 632 m 613 929 l 220 929 l 220 1042 l 613 1042 l 613 929 z "},"ø":{"ha":833,"x_min":85,"x_max":748,"o":"m 417 753 q 476 748 448 753 l 529 913 l 650 878 l 594 706 q 708 573 668 660 q 748 368 748 485 q 709 165 748 251 q 597 30 671 78 q 417 -19 523 -19 q 357 -15 385 -19 l 306 -185 l 184 -149 l 242 26 q 126 159 167 72 q 85 367 85 247 q 124 568 85 481 q 237 704 163 655 q 417 753 311 753 m 417 633 q 290 569 333 633 q 248 367 248 504 q 301 142 248 200 l 454 631 q 417 633 438 633 m 585 368 q 533 590 585 531 l 381 103 q 417 101 397 101 q 544 165 502 101 q 585 368 585 229 z "},"ǿ":{"ha":833,"x_min":85,"x_max":748,"o":"m 417 753 q 476 748 448 753 l 529 913 l 650 878 l 594 706 q 708 573 668 660 q 748 368 748 485 q 709 165 748 251 q 597 30 671 78 q 417 -19 523 -19 q 357 -15 385 -19 l 306 -185 l 184 -149 l 242 26 q 126 159 167 72 q 85 367 85 247 q 124 568 85 481 q 237 704 163 655 q 417 753 311 753 m 417 633 q 290 569 333 633 q 248 367 248 504 q 301 142 248 200 l 454 631 q 417 633 438 633 m 585 368 q 533 590 585 531 l 381 103 q 417 101 397 101 q 544 165 502 101 q 585 368 585 229 m 529 1127 l 594 1002 l 290 880 l 244 960 l 529 1127 z "},"õ":{"ha":833,"x_min":85,"x_max":748,"o":"m 417 753 q 663 648 578 753 q 748 368 748 543 q 709 165 748 251 q 597 30 671 78 q 417 -19 523 -19 q 171 85 256 -19 q 85 367 85 189 q 124 568 85 481 q 237 704 163 655 q 417 753 311 753 m 417 632 q 291 568 333 632 q 249 367 249 503 q 291 166 249 230 q 417 101 333 101 q 543 166 501 101 q 585 368 585 231 q 543 568 585 503 q 417 632 501 632 m 497 902 q 432 918 458 902 q 383 951 405 935 q 336 967 360 967 q 295 951 312 967 q 263 904 279 935 l 175 948 q 239 1043 199 1003 q 335 1083 279 1083 q 401 1066 375 1083 q 449 1034 428 1050 q 496 1017 471 1017 q 534 1032 517 1017 q 569 1078 551 1047 l 657 1035 q 589 937 630 972 q 497 902 548 902 z "},"œ":{"ha":833,"x_min":-6,"x_max":849,"o":"m 618 753 q 795 656 742 753 q 849 386 849 559 q 849 351 849 367 q 847 319 848 334 l 496 319 q 539 150 505 204 q 640 97 573 97 q 705 110 676 97 q 767 148 734 124 l 832 56 q 743 2 790 23 q 635 -19 697 -19 q 507 15 560 -19 q 425 110 455 49 q 356 17 399 52 q 237 -19 313 -19 q 52 85 111 -19 q -6 367 -6 189 q 19 568 -6 481 q 98 704 44 655 q 237 753 151 753 q 360 717 317 753 q 428 619 403 681 q 499 715 453 677 q 618 753 544 753 m 613 640 q 531 592 558 640 q 495 422 503 544 l 716 422 q 693 585 714 531 q 613 640 672 640 m 249 633 q 165 569 190 633 q 140 367 140 505 q 165 163 140 224 q 249 101 190 101 q 332 161 308 101 q 356 368 356 220 q 331 569 356 506 q 249 633 307 633 z "},"p":{"ha":833,"x_min":124,"x_max":748,"o":"m 481 753 q 637 705 578 753 q 722 571 695 658 q 748 368 748 485 q 716 169 748 256 q 621 31 684 81 q 465 -19 558 -19 q 279 63 350 -19 l 279 -282 l 124 -299 l 124 733 l 259 733 l 269 639 q 365 724 310 695 q 481 753 420 753 m 438 633 q 346 601 386 633 q 279 528 306 570 l 279 185 q 424 103 334 103 q 544 166 503 103 q 585 367 585 229 q 548 570 585 508 q 438 633 512 633 z "},"þ":{"ha":833,"x_min":124,"x_max":748,"o":"m 279 1045 l 279 649 q 481 753 357 753 q 637 705 578 753 q 722 571 695 658 q 748 368 748 485 q 716 169 748 256 q 621 31 684 81 q 465 -19 558 -19 q 279 63 350 -19 l 279 -282 l 124 -299 l 124 1028 l 279 1045 m 438 633 q 346 601 386 633 q 279 528 306 570 l 279 185 q 424 103 334 103 q 544 166 503 103 q 585 367 585 229 q 548 570 585 508 q 438 633 512 633 z "},"q":{"ha":833,"x_min":85,"x_max":710,"o":"m 370 753 q 566 662 492 753 l 576 733 l 710 733 l 710 -299 l 554 -282 l 554 81 q 355 -19 478 -19 q 199 29 258 -19 q 113 164 140 77 q 85 367 85 251 q 118 566 85 478 q 215 703 151 653 q 370 753 278 753 m 410 633 q 290 568 331 633 q 249 367 249 503 q 286 165 249 226 q 397 103 324 103 q 488 132 449 103 q 554 205 527 162 l 554 552 q 492 612 528 591 q 410 633 455 633 z "},"r":{"ha":833,"x_min":131,"x_max":754,"o":"m 131 0 l 131 111 l 238 111 l 238 623 l 131 623 l 131 733 l 357 733 l 385 563 q 487 704 426 656 q 644 752 548 752 q 702 747 676 752 q 754 733 728 742 l 728 463 l 617 463 l 617 613 q 483 550 539 610 q 394 383 426 491 l 394 111 l 542 111 l 542 0 l 131 0 z "},"ŕ":{"ha":833,"x_min":131,"x_max":754,"o":"m 131 0 l 131 111 l 238 111 l 238 623 l 131 623 l 131 733 l 357 733 l 385 563 q 487 704 426 656 q 644 752 548 752 q 702 747 676 752 q 754 733 728 742 l 728 463 l 617 463 l 617 613 q 483 550 539 610 q 394 383 426 491 l 394 111 l 542 111 l 542 0 l 131 0 m 569 1127 l 634 1002 l 330 880 l 284 960 l 569 1127 z "},"ř":{"ha":833,"x_min":131,"x_max":754,"o":"m 131 0 l 131 111 l 238 111 l 238 623 l 131 623 l 131 733 l 357 733 l 385 563 q 487 704 426 656 q 644 752 548 752 q 702 747 676 752 q 754 733 728 742 l 728 463 l 617 463 l 617 613 q 483 550 539 610 q 394 383 426 491 l 394 111 l 542 111 l 542 0 l 131 0 m 634 1110 l 697 1040 l 507 865 l 407 865 l 215 1040 l 281 1110 l 457 982 l 634 1110 z "},"ŗ":{"ha":833,"x_min":131,"x_max":754,"o":"m 131 0 l 131 111 l 238 111 l 238 623 l 131 623 l 131 733 l 357 733 l 385 563 q 487 704 426 656 q 644 752 548 752 q 702 747 676 752 q 754 733 728 742 l 728 463 l 617 463 l 617 613 q 483 550 539 610 q 394 383 426 491 l 394 111 l 542 111 l 542 0 l 131 0 m 319 -95 q 381 -120 356 -95 q 407 -182 407 -144 q 381 -273 407 -219 l 313 -416 l 226 -416 l 266 -255 q 240 -223 250 -242 q 230 -182 230 -205 q 256 -120 230 -145 q 319 -95 281 -95 z "},"s":{"ha":833,"x_min":89,"x_max":714,"o":"m 390 101 q 506 127 463 101 q 549 199 549 153 q 537 249 549 228 q 487 288 524 270 q 373 326 449 306 q 246 370 301 344 q 162 437 192 396 q 132 542 132 478 q 211 695 132 637 q 425 753 290 753 q 586 728 517 753 q 703 668 655 704 l 638 570 q 544 617 595 599 q 429 635 493 635 q 323 613 355 635 q 290 553 290 590 q 307 508 290 526 q 363 474 323 490 q 477 438 403 458 q 602 392 549 418 q 684 322 655 365 q 714 209 714 278 q 668 80 714 130 q 549 5 622 29 q 390 -19 475 -19 q 214 11 288 -19 q 89 85 140 40 l 172 179 q 270 123 215 144 q 390 101 326 101 z "},"ś":{"ha":833,"x_min":89,"x_max":714,"o":"m 390 101 q 506 127 463 101 q 549 199 549 153 q 537 249 549 228 q 487 288 524 270 q 373 326 449 306 q 246 370 301 344 q 162 437 192 396 q 132 542 132 478 q 211 695 132 637 q 425 753 290 753 q 586 728 517 753 q 703 668 655 704 l 638 570 q 544 617 595 599 q 429 635 493 635 q 323 613 355 635 q 290 553 290 590 q 307 508 290 526 q 363 474 323 490 q 477 438 403 458 q 602 392 549 418 q 684 322 655 365 q 714 209 714 278 q 668 80 714 130 q 549 5 622 29 q 390 -19 475 -19 q 214 11 288 -19 q 89 85 140 40 l 172 179 q 270 123 215 144 q 390 101 326 101 m 542 1127 l 608 1002 l 303 880 l 258 960 l 542 1127 z "},"š":{"ha":833,"x_min":89,"x_max":714,"o":"m 390 101 q 506 127 463 101 q 549 199 549 153 q 537 249 549 228 q 487 288 524 270 q 373 326 449 306 q 246 370 301 344 q 162 437 192 396 q 132 542 132 478 q 211 695 132 637 q 425 753 290 753 q 586 728 517 753 q 703 668 655 704 l 638 570 q 544 617 595 599 q 429 635 493 635 q 323 613 355 635 q 290 553 290 590 q 307 508 290 526 q 363 474 323 490 q 477 438 403 458 q 602 392 549 418 q 684 322 655 365 q 714 209 714 278 q 668 80 714 130 q 549 5 622 29 q 390 -19 475 -19 q 214 11 288 -19 q 89 85 140 40 l 172 179 q 270 123 215 144 q 390 101 326 101 m 608 1110 l 670 1040 l 481 865 l 381 865 l 189 1040 l 254 1110 l 431 982 l 608 1110 z "},"ş":{"ha":833,"x_min":89,"x_max":714,"o":"m 390 101 q 506 127 463 101 q 549 199 549 153 q 537 249 549 228 q 487 288 524 270 q 373 326 449 306 q 246 370 301 344 q 162 437 192 396 q 132 542 132 478 q 211 695 132 637 q 425 753 290 753 q 586 728 517 753 q 703 668 655 704 l 638 570 q 544 617 595 599 q 429 635 493 635 q 323 613 355 635 q 290 553 290 590 q 307 508 290 526 q 363 474 323 490 q 477 438 403 458 q 602 392 549 418 q 684 322 655 365 q 714 209 714 278 q 668 80 714 130 q 549 5 622 29 q 390 -19 475 -19 q 214 11 288 -19 q 89 85 140 40 l 172 179 q 270 123 215 144 q 390 101 326 101 m 459 -197 q 427 -153 459 -164 q 336 -143 394 -143 l 351 22 l 447 22 l 447 -74 q 549 -116 517 -81 q 581 -199 581 -151 q 528 -306 581 -268 q 397 -344 474 -344 q 313 -333 353 -344 q 245 -306 273 -322 l 288 -226 q 380 -249 331 -249 q 437 -237 415 -249 q 459 -197 459 -226 z "},"ŝ":{"ha":833,"x_min":89,"x_max":714,"o":"m 390 101 q 506 127 463 101 q 549 199 549 153 q 537 249 549 228 q 487 288 524 270 q 373 326 449 306 q 246 370 301 344 q 162 437 192 396 q 132 542 132 478 q 211 695 132 637 q 425 753 290 753 q 586 728 517 753 q 703 668 655 704 l 638 570 q 544 617 595 599 q 429 635 493 635 q 323 613 355 635 q 290 553 290 590 q 307 508 290 526 q 363 474 323 490 q 477 438 403 458 q 602 392 549 418 q 684 322 655 365 q 714 209 714 278 q 668 80 714 130 q 549 5 622 29 q 390 -19 475 -19 q 214 11 288 -19 q 89 85 140 40 l 172 179 q 270 123 215 144 q 390 101 326 101 m 254 865 l 189 934 l 381 1110 l 481 1110 l 670 934 l 608 865 l 431 992 l 254 865 z "},"ș":{"ha":833,"x_min":89,"x_max":714,"o":"m 390 101 q 506 127 463 101 q 549 199 549 153 q 537 249 549 228 q 487 288 524 270 q 373 326 449 306 q 246 370 301 344 q 162 437 192 396 q 132 542 132 478 q 211 695 132 637 q 425 753 290 753 q 586 728 517 753 q 703 668 655 704 l 638 570 q 544 617 595 599 q 429 635 493 635 q 323 613 355 635 q 290 553 290 590 q 307 508 290 526 q 363 474 323 490 q 477 438 403 458 q 602 392 549 418 q 684 322 655 365 q 714 209 714 278 q 668 80 714 130 q 549 5 622 29 q 390 -19 475 -19 q 214 11 288 -19 q 89 85 140 40 l 172 179 q 270 123 215 144 q 390 101 326 101 m 417 -95 q 480 -120 454 -95 q 506 -182 506 -144 q 480 -273 506 -219 l 411 -416 l 325 -416 l 365 -255 q 339 -223 349 -242 q 328 -182 328 -205 q 354 -120 328 -145 q 417 -95 380 -95 z "},"ß":{"ha":833,"x_min":115,"x_max":785,"o":"m 409 1045 q 596 987 527 1045 q 665 840 665 928 q 643 757 665 790 q 593 701 622 725 q 542 653 564 676 q 520 597 520 629 q 547 537 520 563 q 613 487 574 512 q 692 430 653 463 q 758 351 731 398 q 785 233 785 303 q 749 95 785 151 q 652 10 713 39 q 518 -19 592 -19 q 420 -7 464 -19 q 340 27 376 5 l 396 133 q 448 112 420 119 q 501 104 475 104 q 593 135 560 104 q 626 228 626 166 q 600 311 626 278 q 538 370 575 344 q 464 422 501 395 q 401 484 426 448 q 376 574 376 519 q 397 655 376 622 q 446 712 418 687 q 495 764 474 737 q 516 828 516 790 q 491 897 516 865 q 406 929 467 929 q 304 887 338 929 q 270 748 270 844 l 270 0 l 115 0 l 115 740 q 191 966 115 888 q 409 1045 268 1045 z "},"t":{"ha":833,"x_min":99,"x_max":736,"o":"m 736 39 q 640 -3 696 13 q 522 -19 583 -19 q 328 48 394 -19 q 262 222 262 114 l 262 620 l 99 620 l 99 733 l 262 733 l 262 897 l 417 916 l 417 733 l 665 733 l 647 620 l 417 620 l 417 224 q 447 136 417 165 q 544 107 476 107 q 618 117 584 107 q 680 142 651 126 l 736 39 z "},"ŧ":{"ha":833,"x_min":99,"x_max":736,"o":"m 736 39 q 640 -3 696 13 q 522 -19 583 -19 q 328 48 394 -19 q 262 222 262 114 l 262 386 l 115 386 l 115 494 l 262 494 l 262 620 l 99 620 l 99 733 l 262 733 l 262 897 l 417 916 l 417 733 l 665 733 l 647 620 l 417 620 l 417 494 l 648 494 l 648 386 l 417 386 l 417 224 q 447 136 417 165 q 544 107 476 107 q 618 117 584 107 q 680 142 651 126 l 736 39 z "},"ť":{"ha":833,"x_min":99,"x_max":736,"o":"m 736 39 q 640 -3 696 13 q 522 -19 583 -19 q 328 48 394 -19 q 262 222 262 114 l 262 620 l 99 620 l 99 733 l 262 733 l 262 897 l 417 916 l 417 733 l 665 733 l 647 620 l 417 620 l 417 224 q 447 136 417 165 q 544 107 476 107 q 618 117 584 107 q 680 142 651 126 l 736 39 m 523 1094 l 661 1078 l 574 802 l 482 817 l 523 1094 z "},"ţ":{"ha":833,"x_min":99,"x_max":736,"o":"m 736 39 q 640 -3 696 13 q 522 -19 583 -19 q 328 48 394 -19 q 262 222 262 114 l 262 620 l 99 620 l 99 733 l 262 733 l 262 897 l 417 916 l 417 733 l 665 733 l 647 620 l 417 620 l 417 224 q 447 136 417 165 q 544 107 476 107 q 618 117 584 107 q 680 142 651 126 l 736 39 m 555 -197 q 523 -153 555 -164 q 432 -143 490 -143 l 447 22 l 542 22 l 542 -74 q 645 -116 613 -81 q 677 -199 677 -151 q 624 -306 677 -268 q 493 -344 570 -344 q 409 -333 449 -344 q 341 -306 369 -322 l 384 -226 q 476 -249 427 -249 q 533 -237 511 -249 q 555 -197 555 -226 z "},"ț":{"ha":833,"x_min":99,"x_max":736,"o":"m 736 39 q 640 -3 696 13 q 522 -19 583 -19 q 328 48 394 -19 q 262 222 262 114 l 262 620 l 99 620 l 99 733 l 262 733 l 262 897 l 417 916 l 417 733 l 665 733 l 647 620 l 417 620 l 417 224 q 447 136 417 165 q 544 107 476 107 q 618 117 584 107 q 680 142 651 126 l 736 39 m 513 -95 q 576 -120 550 -95 q 601 -182 601 -144 q 576 -273 601 -219 l 507 -416 l 421 -416 l 460 -255 q 434 -223 444 -242 q 424 -182 424 -205 q 450 -120 424 -145 q 513 -95 476 -95 z "},"u":{"ha":833,"x_min":124,"x_max":710,"o":"m 279 733 l 279 221 q 305 128 279 156 q 384 100 331 100 q 481 130 434 100 q 554 203 527 160 l 554 733 l 710 733 l 710 0 l 576 0 l 566 94 q 463 10 525 39 q 335 -19 400 -19 q 176 40 228 -19 q 124 201 124 99 l 124 733 l 279 733 z "},"ú":{"ha":833,"x_min":124,"x_max":710,"o":"m 279 733 l 279 221 q 305 128 279 156 q 384 100 331 100 q 481 130 434 100 q 554 203 527 160 l 554 733 l 710 733 l 710 0 l 576 0 l 566 94 q 463 10 525 39 q 335 -19 400 -19 q 176 40 228 -19 q 124 201 124 99 l 124 733 l 279 733 m 529 1127 l 594 1002 l 290 880 l 244 960 l 529 1127 z "},"ŭ":{"ha":833,"x_min":124,"x_max":710,"o":"m 279 733 l 279 221 q 305 128 279 156 q 384 100 331 100 q 481 130 434 100 q 554 203 527 160 l 554 733 l 710 733 l 710 0 l 576 0 l 566 94 q 463 10 525 39 q 335 -19 400 -19 q 176 40 228 -19 q 124 201 124 99 l 124 733 l 279 733 m 415 865 q 300 897 347 865 q 228 977 253 928 q 197 1074 203 1025 l 293 1093 q 336 1010 307 1042 q 415 978 366 978 q 495 1010 464 978 q 540 1093 526 1042 l 635 1074 q 604 977 630 1025 q 531 897 578 928 q 415 865 483 865 z "},"û":{"ha":833,"x_min":124,"x_max":710,"o":"m 279 733 l 279 221 q 305 128 279 156 q 384 100 331 100 q 481 130 434 100 q 554 203 527 160 l 554 733 l 710 733 l 710 0 l 576 0 l 566 94 q 463 10 525 39 q 335 -19 400 -19 q 176 40 228 -19 q 124 201 124 99 l 124 733 l 279 733 m 241 865 l 176 934 l 367 1110 l 467 1110 l 657 934 l 594 865 l 417 992 l 241 865 z "},"ü":{"ha":833,"x_min":124,"x_max":710,"o":"m 279 733 l 279 221 q 305 128 279 156 q 384 100 331 100 q 481 130 434 100 q 554 203 527 160 l 554 733 l 710 733 l 710 0 l 576 0 l 566 94 q 463 10 525 39 q 335 -19 400 -19 q 176 40 228 -19 q 124 201 124 99 l 124 733 l 279 733 m 267 894 q 202 920 228 894 q 176 983 176 945 q 202 1045 176 1020 q 267 1071 228 1071 q 330 1045 304 1071 q 356 983 356 1020 q 330 920 356 945 q 267 894 304 894 m 566 894 q 502 920 528 894 q 476 983 476 945 q 502 1045 476 1020 q 566 1071 528 1071 q 631 1045 604 1071 q 657 983 657 1020 q 631 920 657 945 q 566 894 604 894 z "},"ù":{"ha":833,"x_min":124,"x_max":710,"o":"m 279 733 l 279 221 q 305 128 279 156 q 384 100 331 100 q 481 130 434 100 q 554 203 527 160 l 554 733 l 710 733 l 710 0 l 576 0 l 566 94 q 463 10 525 39 q 335 -19 400 -19 q 176 40 228 -19 q 124 201 124 99 l 124 733 l 279 733 m 543 864 l 244 994 l 316 1118 l 590 946 l 543 864 z "},"ű":{"ha":833,"x_min":124,"x_max":712,"o":"m 279 733 l 279 221 q 305 128 279 156 q 384 100 331 100 q 481 130 434 100 q 554 203 527 160 l 554 733 l 710 733 l 710 0 l 576 0 l 566 94 q 463 10 525 39 q 335 -19 400 -19 q 176 40 228 -19 q 124 201 124 99 l 124 733 l 279 733 m 237 919 l 356 1172 l 476 1115 l 327 878 l 237 919 m 464 920 l 592 1172 l 712 1112 l 552 876 l 464 920 z "},"ū":{"ha":833,"x_min":124,"x_max":710,"o":"m 279 733 l 279 221 q 305 128 279 156 q 384 100 331 100 q 481 130 434 100 q 554 203 527 160 l 554 733 l 710 733 l 710 0 l 576 0 l 566 94 q 463 10 525 39 q 335 -19 400 -19 q 176 40 228 -19 q 124 201 124 99 l 124 733 l 279 733 m 613 929 l 220 929 l 220 1042 l 613 1042 l 613 929 z "},"ų":{"ha":833,"x_min":124,"x_max":710,"o":"m 279 733 l 279 221 q 305 128 279 156 q 384 100 331 100 q 481 130 434 100 q 554 203 527 160 l 554 733 l 710 733 l 710 0 l 576 0 l 566 94 q 463 10 525 39 q 335 -19 400 -19 q 176 40 228 -19 q 124 201 124 99 l 124 733 l 279 733 m 689 53 l 710 0 q 605 -55 641 -28 q 556 -106 569 -81 q 542 -157 542 -131 q 621 -224 542 -224 q 661 -221 643 -224 q 703 -214 680 -219 l 689 -321 q 649 -328 669 -326 q 603 -331 629 -331 q 470 -290 521 -331 q 419 -181 419 -249 q 489 -40 419 -94 q 689 53 558 15 z "},"ů":{"ha":833,"x_min":124,"x_max":710,"o":"m 279 733 l 279 221 q 305 128 279 156 q 384 100 331 100 q 481 130 434 100 q 554 203 527 160 l 554 733 l 710 733 l 710 0 l 576 0 l 566 94 q 463 10 525 39 q 335 -19 400 -19 q 176 40 228 -19 q 124 201 124 99 l 124 733 l 279 733 m 416 1165 q 539 1119 492 1165 q 585 1008 585 1073 q 539 897 585 943 q 416 851 492 851 q 294 897 341 851 q 248 1008 248 943 q 294 1119 248 1073 q 416 1165 341 1165 m 416 1083 q 366 1063 385 1083 q 347 1008 347 1043 q 366 952 347 972 q 416 933 385 933 q 468 952 449 933 q 487 1008 487 972 q 468 1063 487 1043 q 416 1083 449 1083 z "},"ũ":{"ha":833,"x_min":124,"x_max":710,"o":"m 279 733 l 279 221 q 305 128 279 156 q 384 100 331 100 q 481 130 434 100 q 554 203 527 160 l 554 733 l 710 733 l 710 0 l 576 0 l 566 94 q 463 10 525 39 q 335 -19 400 -19 q 176 40 228 -19 q 124 201 124 99 l 124 733 l 279 733 m 497 902 q 432 918 458 902 q 383 951 405 935 q 336 967 360 967 q 295 951 312 967 q 263 904 279 935 l 175 948 q 239 1043 199 1003 q 335 1083 279 1083 q 401 1066 375 1083 q 449 1034 428 1050 q 496 1017 471 1017 q 534 1032 517 1017 q 569 1078 551 1047 l 657 1035 q 589 937 630 972 q 497 902 548 902 z "},"v":{"ha":833,"x_min":67,"x_max":766,"o":"m 766 733 l 508 0 l 326 0 l 67 733 l 234 733 l 420 129 l 607 733 l 766 733 z "},"w":{"ha":833,"x_min":17,"x_max":817,"o":"m 697 0 l 503 0 l 420 521 l 331 0 l 141 0 l 17 733 l 167 733 l 243 97 l 345 640 l 501 640 l 596 97 l 672 733 l 817 733 l 697 0 z "},"ẃ":{"ha":833,"x_min":17,"x_max":817,"o":"m 697 0 l 503 0 l 420 521 l 331 0 l 141 0 l 17 733 l 167 733 l 243 97 l 345 640 l 501 640 l 596 97 l 672 733 l 817 733 l 697 0 m 529 1127 l 594 1002 l 290 880 l 244 960 l 529 1127 z "},"ŵ":{"ha":833,"x_min":17,"x_max":817,"o":"m 697 0 l 503 0 l 420 521 l 331 0 l 141 0 l 17 733 l 167 733 l 243 97 l 345 640 l 501 640 l 596 97 l 672 733 l 817 733 l 697 0 m 241 865 l 176 934 l 367 1110 l 467 1110 l 657 934 l 594 865 l 417 992 l 241 865 z "},"ẅ":{"ha":833,"x_min":17,"x_max":817,"o":"m 697 0 l 503 0 l 420 521 l 331 0 l 141 0 l 17 733 l 167 733 l 243 97 l 345 640 l 501 640 l 596 97 l 672 733 l 817 733 l 697 0 m 267 894 q 202 920 228 894 q 176 983 176 945 q 202 1045 176 1020 q 267 1071 228 1071 q 330 1045 304 1071 q 356 983 356 1020 q 330 920 356 945 q 267 894 304 894 m 566 894 q 502 920 528 894 q 476 983 476 945 q 502 1045 476 1020 q 566 1071 528 1071 q 631 1045 604 1071 q 657 983 657 1020 q 631 920 657 945 q 566 894 604 894 z "},"ẁ":{"ha":833,"x_min":17,"x_max":817,"o":"m 697 0 l 503 0 l 420 521 l 331 0 l 141 0 l 17 733 l 167 733 l 243 97 l 345 640 l 501 640 l 596 97 l 672 733 l 817 733 l 697 0 m 543 864 l 244 994 l 316 1118 l 590 946 l 543 864 z "},"x":{"ha":833,"x_min":60,"x_max":774,"o":"m 232 0 l 60 0 l 323 387 l 89 733 l 268 733 l 418 475 l 568 733 l 739 733 l 510 393 l 774 0 l 591 0 l 411 299 l 232 0 z "},"y":{"ha":833,"x_min":68,"x_max":765,"o":"m 765 733 l 513 -3 q 440 -150 484 -86 q 326 -252 395 -214 q 153 -300 256 -291 l 133 -183 q 252 -149 208 -172 q 322 -90 296 -126 q 368 0 348 -53 l 315 0 l 68 733 l 233 733 l 418 108 l 606 733 l 765 733 z "},"ý":{"ha":833,"x_min":68,"x_max":765,"o":"m 765 733 l 513 -3 q 440 -150 484 -86 q 326 -252 395 -214 q 153 -300 256 -291 l 133 -183 q 252 -149 208 -172 q 322 -90 296 -126 q 368 0 348 -53 l 315 0 l 68 733 l 233 733 l 418 108 l 606 733 l 765 733 m 529 1127 l 594 1002 l 290 880 l 244 960 l 529 1127 z "},"ŷ":{"ha":833,"x_min":68,"x_max":765,"o":"m 765 733 l 513 -3 q 440 -150 484 -86 q 326 -252 395 -214 q 153 -300 256 -291 l 133 -183 q 252 -149 208 -172 q 322 -90 296 -126 q 368 0 348 -53 l 315 0 l 68 733 l 233 733 l 418 108 l 606 733 l 765 733 m 241 865 l 176 934 l 367 1110 l 467 1110 l 657 934 l 594 865 l 417 992 l 241 865 z "},"ÿ":{"ha":833,"x_min":68,"x_max":765,"o":"m 765 733 l 513 -3 q 440 -150 484 -86 q 326 -252 395 -214 q 153 -300 256 -291 l 133 -183 q 252 -149 208 -172 q 322 -90 296 -126 q 368 0 348 -53 l 315 0 l 68 733 l 233 733 l 418 108 l 606 733 l 765 733 m 267 894 q 202 920 228 894 q 176 983 176 945 q 202 1045 176 1020 q 267 1071 228 1071 q 330 1045 304 1071 q 356 983 356 1020 q 330 920 356 945 q 267 894 304 894 m 566 894 q 502 920 528 894 q 476 983 476 945 q 502 1045 476 1020 q 566 1071 528 1071 q 631 1045 604 1071 q 657 983 657 1020 q 631 920 657 945 q 566 894 604 894 z "},"ỳ":{"ha":833,"x_min":68,"x_max":765,"o":"m 765 733 l 513 -3 q 440 -150 484 -86 q 326 -252 395 -214 q 153 -300 256 -291 l 133 -183 q 252 -149 208 -172 q 322 -90 296 -126 q 368 0 348 -53 l 315 0 l 68 733 l 233 733 l 418 108 l 606 733 l 765 733 m 543 864 l 244 994 l 316 1118 l 590 946 l 543 864 z "},"z":{"ha":833,"x_min":126,"x_max":706,"o":"m 313 125 l 706 125 l 689 0 l 126 0 l 126 114 l 517 608 l 158 608 l 158 733 l 701 733 l 701 619 l 313 125 z "},"ź":{"ha":833,"x_min":126,"x_max":706,"o":"m 313 125 l 706 125 l 689 0 l 126 0 l 126 114 l 517 608 l 158 608 l 158 733 l 701 733 l 701 619 l 313 125 m 542 1127 l 607 1002 l 303 880 l 257 960 l 542 1127 z "},"ž":{"ha":833,"x_min":126,"x_max":706,"o":"m 313 125 l 706 125 l 689 0 l 126 0 l 126 114 l 517 608 l 158 608 l 158 733 l 701 733 l 701 619 l 313 125 m 607 1110 l 669 1040 l 480 865 l 380 865 l 188 1040 l 253 1110 l 430 982 l 607 1110 z "},"ż":{"ha":833,"x_min":126,"x_max":706,"o":"m 313 125 l 706 125 l 689 0 l 126 0 l 126 114 l 517 608 l 158 608 l 158 733 l 701 733 l 701 619 l 313 125 m 428 1092 q 502 1065 474 1092 q 531 995 531 1037 q 502 925 531 953 q 428 897 474 897 q 355 925 383 897 q 326 995 326 953 q 355 1065 326 1037 q 428 1092 383 1092 z "},"ª":{"ha":833,"x_min":132,"x_max":700,"o":"m 403 1045 q 589 992 531 1045 q 647 844 647 940 l 647 588 q 658 542 647 557 q 692 519 669 526 l 660 426 q 578 450 610 431 q 530 508 547 469 q 446 446 495 467 q 344 425 397 425 q 190 477 249 425 q 132 613 132 528 q 211 757 132 706 q 433 808 291 808 l 512 808 l 512 840 q 480 917 512 895 q 383 938 447 938 q 311 930 355 938 q 217 906 267 922 l 180 1003 q 299 1036 242 1026 q 403 1045 356 1045 m 512 716 l 445 716 q 319 691 358 716 q 280 618 280 666 q 306 549 280 572 q 381 525 333 525 q 453 545 418 525 q 512 599 488 565 l 512 716 m 700 122 l 700 0 l 144 0 l 144 122 l 700 122 z "},"º":{"ha":833,"x_min":124,"x_max":708,"o":"m 417 1045 q 572 1006 506 1045 q 673 898 638 967 q 708 736 708 828 q 673 574 708 644 q 572 465 637 504 q 417 425 506 425 q 261 464 326 425 q 160 573 195 503 q 124 736 124 642 q 160 895 124 826 q 261 1005 196 965 q 417 1045 327 1045 m 417 938 q 309 890 349 938 q 269 736 269 842 q 309 581 269 630 q 417 533 349 533 q 524 581 485 533 q 563 736 563 630 q 524 890 563 842 q 417 938 485 938 m 695 122 l 695 0 l 139 0 l 139 122 l 695 122 z "},"ⁿ":{"ha":833,"x_min":224,"x_max":610,"o":"m 471 1004 q 575 967 541 1004 q 610 861 610 929 l 610 525 l 488 525 l 488 814 q 478 888 488 865 q 437 910 469 910 q 388 893 411 910 q 347 851 364 875 l 347 525 l 224 525 l 224 993 l 333 993 l 338 940 q 402 989 367 974 q 471 1004 437 1004 z "},"Ԭ":{"ha":833,"x_min":62,"x_max":794,"o":"m 74 126 l 128 126 q 203 247 166 171 q 269 456 241 324 q 112 557 162 481 q 62 764 63 632 l 62 958 l 208 958 l 208 767 q 226 649 208 694 q 292 583 244 603 q 305 683 299 631 l 333 958 l 738 958 l 738 126 l 794 126 l 794 -219 l 669 -219 l 645 0 l 222 0 l 199 -219 l 74 -219 l 74 126 m 451 676 q 438 565 445 617 l 592 565 l 592 837 l 467 837 l 451 676 m 274 126 l 592 126 l 592 442 l 417 443 q 358 250 393 322 q 274 126 324 178 z "},"Ԫ":{"ha":833,"x_min":-19,"x_max":851,"o":"m -19 -219 l -19 107 l 25 107 q 50 177 38 138 q 73 273 62 215 q 93 415 83 330 q 110 624 102 501 l 131 958 l 415 958 l 415 553 l 481 553 l 481 958 l 592 958 l 592 553 l 628 553 l 716 958 l 829 958 l 726 512 l 851 0 l 726 0 l 627 447 l 592 447 l 592 0 l 504 0 l 504 -219 l 408 -219 l 388 0 l 97 0 l 76 -219 l -19 -219 m 126 107 l 303 107 l 303 856 l 238 856 l 226 618 q 212 419 220 501 q 192 280 203 338 q 164 182 180 223 q 126 107 147 141 m 481 447 l 415 447 l 415 107 l 481 107 l 481 447 z "},"Ԯ":{"ha":833,"x_min":-1,"x_max":773,"o":"m 773 126 l 773 -219 l 648 -219 l 624 0 l 533 0 l 533 828 l 348 828 l 322 594 q 290 365 307 459 q 253 209 274 272 q 206 105 233 146 q 145 35 180 64 q 65 -20 110 6 l -1 92 q 49 140 26 114 q 92 215 72 166 q 129 350 112 263 q 163 581 147 438 l 208 958 l 694 958 l 694 126 l 773 126 z "},"Ԩ":{"ha":833,"x_min":-138,"x_max":734,"o":"m 573 0 l 573 435 l 260 435 l 260 0 l 99 0 l 99 958 l 260 958 l 260 568 l 573 568 l 573 958 l 734 958 l 734 0 l 573 0 m 30 -302 q -68 -285 -28 -302 q -138 -247 -109 -269 l -78 -149 q -35 -170 -56 -162 q 19 -178 -14 -178 q 78 -155 57 -178 q 99 -78 99 -131 l 99 1 l 260 1 l 260 -67 q 199 -243 260 -184 q 30 -302 137 -302 z "},"А":{"ha":833,"x_min":12,"x_max":822,"o":"m 585 231 l 242 231 l 176 0 l 12 0 l 317 958 l 517 958 l 822 0 l 651 0 l 585 231 m 276 355 l 551 355 l 414 833 l 276 355 z "},"Б":{"ha":833,"x_min":117,"x_max":767,"o":"m 678 958 l 663 831 l 278 831 l 278 596 l 390 596 q 666 526 566 596 q 767 305 767 456 q 719 130 767 197 q 588 31 672 63 q 395 0 503 0 l 117 0 l 117 958 l 678 958 m 394 475 l 278 475 l 278 125 l 396 125 q 503 141 457 125 q 574 195 549 156 q 600 303 600 233 q 544 435 600 396 q 394 475 488 475 z "},"В":{"ha":833,"x_min":113,"x_max":766,"o":"m 766 276 q 735 143 766 197 q 650 58 703 90 q 530 13 597 26 q 393 0 464 0 l 113 0 l 113 958 l 374 958 q 504 947 442 958 q 616 907 567 935 q 695 833 666 880 q 724 716 724 786 q 699 613 724 656 q 634 545 674 571 q 547 508 593 519 q 650 475 599 499 q 733 403 700 451 q 766 276 766 356 m 561 703 q 516 806 561 775 q 389 838 471 838 l 274 838 l 274 560 l 399 560 q 520 594 479 560 q 561 703 561 628 m 598 277 q 573 377 598 341 q 506 427 548 413 q 410 441 463 441 l 274 441 l 274 125 l 403 125 q 494 136 449 125 q 568 181 539 148 q 598 277 598 213 z "},"Г":{"ha":833,"x_min":165,"x_max":764,"o":"m 764 958 l 747 825 l 326 825 l 326 0 l 165 0 l 165 958 l 764 958 z "},"Ѓ":{"ha":833,"x_min":165,"x_max":764,"o":"m 764 958 l 747 825 l 326 825 l 326 0 l 165 0 l 165 958 l 764 958 m 588 1283 l 652 1159 l 343 1047 l 303 1128 l 588 1283 z "},"Ґ":{"ha":833,"x_min":165,"x_max":764,"o":"m 764 958 l 747 825 l 326 825 l 326 0 l 165 0 l 165 958 l 611 958 l 611 1166 l 764 1166 l 764 958 z "},"Д":{"ha":833,"x_min":-5,"x_max":790,"o":"m -5 126 l 52 126 q 97 190 78 153 q 128 285 115 226 q 155 438 142 344 q 185 674 168 532 l 218 958 l 719 958 l 719 126 l 790 126 l 790 -219 l 665 -219 l 642 -1 l 144 0 l 121 -219 l -5 -219 l -5 126 m 564 834 l 356 834 l 340 675 q 313 448 326 540 q 284 294 300 355 q 247 194 269 233 q 192 126 224 155 l 564 126 l 564 834 z "},"Е":{"ha":833,"x_min":157,"x_max":741,"o":"m 318 836 l 318 548 l 665 548 l 665 426 l 318 426 l 318 122 l 741 122 l 741 0 l 157 0 l 157 958 l 733 958 l 715 836 l 318 836 z "},"Ѐ":{"ha":833,"x_min":157,"x_max":741,"o":"m 318 836 l 318 548 l 665 548 l 665 426 l 318 426 l 318 122 l 741 122 l 741 0 l 157 0 l 157 958 l 733 958 l 715 836 l 318 836 m 344 1286 l 617 1128 l 575 1047 l 273 1162 l 344 1286 z "},"Ё":{"ha":833,"x_min":157,"x_max":741,"o":"m 318 836 l 318 548 l 665 548 l 665 426 l 318 426 l 318 122 l 741 122 l 741 0 l 157 0 l 157 958 l 733 958 l 715 836 l 318 836 z "},"Ж":{"ha":833,"x_min":12,"x_max":822,"o":"m 357 450 l 288 450 l 158 0 l 12 0 l 174 514 l 29 958 l 172 958 l 290 554 l 357 554 l 357 958 l 476 958 l 476 554 l 543 554 l 662 958 l 804 958 l 660 514 l 822 0 l 673 0 l 543 450 l 476 450 l 476 0 l 357 0 l 357 450 z "},"З":{"ha":833,"x_min":34,"x_max":763,"o":"m 391 978 q 572 945 495 978 q 690 857 648 913 q 731 726 731 800 q 673 585 731 638 q 526 517 615 532 q 645 483 591 511 q 731 404 699 455 q 763 281 763 353 q 717 126 763 194 q 586 20 672 58 q 382 -19 501 -19 q 185 17 274 -19 q 34 118 97 52 l 124 203 q 242 132 178 157 q 381 107 306 107 q 539 154 483 107 q 596 282 596 201 q 538 409 596 369 q 387 449 479 449 l 221 449 l 240 574 l 381 574 q 514 608 458 574 q 569 716 569 642 q 517 819 569 784 q 381 854 464 854 q 248 831 307 854 q 139 768 190 808 l 55 857 q 391 978 197 978 z "},"И":{"ha":833,"x_min":99,"x_max":734,"o":"m 99 0 l 99 958 l 253 958 l 253 535 q 249 376 253 444 q 240 252 246 308 q 226 142 233 197 l 542 958 l 734 958 l 734 0 l 581 0 l 581 422 q 589 640 581 543 q 608 812 597 738 l 294 0 l 99 0 z "},"Й":{"ha":833,"x_min":99,"x_max":734,"o":"m 99 0 l 99 958 l 253 958 l 253 535 q 249 376 253 444 q 240 252 246 308 q 226 142 233 197 l 542 958 l 734 958 l 734 0 l 581 0 l 581 422 q 589 640 581 543 q 608 812 597 738 l 294 0 l 99 0 z "},"Ѝ":{"ha":833,"x_min":99,"x_max":734,"o":"m 99 0 l 99 958 l 253 958 l 253 535 q 249 376 253 444 q 240 252 246 308 q 226 142 233 197 l 542 958 l 734 958 l 734 0 l 581 0 l 581 422 q 589 640 581 543 q 608 812 597 738 l 294 0 l 99 0 m 316 1286 l 589 1128 l 547 1047 l 244 1162 l 316 1286 z "},"Ҋ":{"ha":833,"x_min":99,"x_max":859,"o":"m 99 0 l 99 958 l 253 958 l 253 535 q 249 376 253 444 q 240 252 246 308 q 226 142 233 197 l 542 958 l 734 958 l 734 0 l 581 0 l 581 422 q 589 640 581 543 q 608 812 597 738 l 294 0 l 99 0 m 859 140 l 740 -219 l 610 -219 l 661 0 l 633 0 l 633 140 l 859 140 z "},"К":{"ha":833,"x_min":109,"x_max":826,"o":"m 372 440 l 270 440 l 270 0 l 109 0 l 109 958 l 270 958 l 270 565 l 372 565 l 635 958 l 800 958 l 507 514 l 826 0 l 642 0 l 372 440 z "},"Ќ":{"ha":833,"x_min":109,"x_max":826,"o":"m 372 440 l 270 440 l 270 0 l 109 0 l 109 958 l 270 958 l 270 565 l 372 565 l 635 958 l 800 958 l 507 514 l 826 0 l 642 0 l 372 440 m 558 1283 l 622 1159 l 313 1047 l 274 1128 l 558 1283 z "},"Л":{"ha":833,"x_min":6,"x_max":734,"o":"m 734 958 l 734 0 l 573 0 l 573 828 l 356 828 l 329 594 q 298 365 315 459 q 261 209 281 272 q 214 105 240 146 q 153 35 188 64 q 73 -20 118 6 l 6 92 q 57 140 34 114 q 100 215 80 166 q 137 350 119 263 q 171 581 154 438 l 215 958 l 734 958 z "},"М":{"ha":833,"x_min":35,"x_max":798,"o":"m 744 958 l 798 0 l 651 0 l 628 467 q 624 663 623 572 q 627 817 624 754 l 486 169 l 346 169 l 194 817 q 200 661 199 757 q 199 465 202 565 l 180 0 l 35 0 l 90 958 l 283 958 l 419 316 l 550 958 l 744 958 z "},"Н":{"ha":833,"x_min":99,"x_max":734,"o":"m 573 0 l 573 435 l 260 435 l 260 0 l 99 0 l 99 958 l 260 958 l 260 568 l 573 568 l 573 958 l 734 958 l 734 0 l 573 0 z "},"О":{"ha":833,"x_min":52,"x_max":781,"o":"m 781 479 q 740 219 781 331 q 618 44 699 107 q 417 -19 537 -19 q 215 42 297 -19 q 93 215 134 103 q 52 478 52 327 q 93 738 52 626 q 215 914 134 851 q 417 978 297 978 q 618 916 537 978 q 740 742 699 854 q 781 479 781 630 m 615 479 q 569 759 615 665 q 417 852 523 852 q 265 758 310 852 q 219 478 219 664 q 266 200 219 292 q 417 107 313 107 q 569 200 523 107 q 615 479 615 294 z "},"П":{"ha":833,"x_min":99,"x_max":734,"o":"m 573 0 l 573 827 l 260 827 l 260 0 l 99 0 l 99 958 l 734 958 l 734 0 l 573 0 z "},"Р":{"ha":833,"x_min":133,"x_max":784,"o":"m 784 658 q 736 476 784 546 q 604 374 688 406 q 410 342 519 342 l 294 342 l 294 0 l 133 0 l 133 958 l 399 958 q 682 884 579 958 q 784 658 784 810 m 615 656 q 559 796 615 755 q 409 838 503 838 l 294 838 l 294 465 l 411 465 q 558 506 501 465 q 615 656 615 548 z "},"С":{"ha":833,"x_min":72,"x_max":800,"o":"m 497 978 q 661 952 594 978 q 786 880 728 927 l 702 780 q 505 851 617 851 q 373 815 433 851 q 276 697 313 778 q 240 481 240 616 q 274 267 240 348 q 369 149 309 185 q 505 112 429 112 q 633 137 582 112 q 722 194 683 163 l 800 95 q 678 15 752 49 q 499 -19 605 -19 q 281 38 377 -19 q 128 207 184 95 q 72 481 72 318 q 130 752 72 642 q 284 920 188 863 q 497 978 380 978 z "},"Т":{"ha":833,"x_min":47,"x_max":790,"o":"m 495 828 l 495 0 l 334 0 l 334 828 l 47 828 l 47 958 l 790 958 l 773 828 l 495 828 z "},"У":{"ha":833,"x_min":20,"x_max":820,"o":"m 820 958 l 546 279 q 461 122 507 183 q 344 26 415 60 q 161 -19 273 -7 l 138 100 q 257 126 211 109 q 332 176 303 144 q 387 260 362 208 l 329 260 l 20 958 l 188 958 l 434 358 l 657 958 l 820 958 z "},"Ў":{"ha":833,"x_min":20,"x_max":820,"o":"m 820 958 l 546 279 q 461 122 507 183 q 344 26 415 60 q 161 -19 273 -7 l 138 100 q 257 126 211 109 q 332 176 303 144 q 387 260 362 208 l 329 260 l 20 958 l 188 958 l 434 358 l 657 958 l 820 958 m 429 1050 q 278 1102 336 1050 q 211 1234 220 1153 l 307 1253 q 351 1187 322 1210 q 429 1164 380 1164 q 509 1187 478 1164 q 553 1253 540 1210 l 649 1234 q 582 1102 641 1153 q 429 1050 522 1050 z "},"Ф":{"ha":833,"x_min":13,"x_max":820,"o":"m 483 1003 l 483 914 q 738 795 655 902 q 820 483 820 688 q 734 166 820 275 q 483 47 648 56 l 483 -45 l 350 -45 l 350 47 q 99 164 185 55 q 13 483 13 274 q 96 795 13 688 q 350 914 178 902 l 350 1003 l 483 1003 m 356 812 q 215 733 259 807 q 170 483 170 658 q 213 237 170 315 q 356 150 255 158 l 356 812 m 477 812 l 477 150 q 621 237 578 158 q 663 483 663 315 q 619 733 663 658 q 477 812 575 807 z "},"Х":{"ha":833,"x_min":28,"x_max":805,"o":"m 53 958 l 231 958 l 417 613 l 604 958 l 776 958 l 510 518 l 805 0 l 626 0 l 414 408 l 201 0 l 28 0 l 319 510 l 53 958 z "},"Ч":{"ha":833,"x_min":57,"x_max":734,"o":"m 218 958 l 218 602 q 260 465 218 508 q 385 423 303 423 q 497 444 451 423 q 573 494 542 465 l 573 958 l 734 958 l 734 0 l 573 0 l 573 371 q 466 312 519 331 q 343 293 413 293 q 134 373 212 293 q 57 593 57 452 l 57 958 l 218 958 z "},"Ц":{"ha":833,"x_min":99,"x_max":813,"o":"m 99 0 l 99 958 l 260 958 l 260 129 l 573 129 l 573 958 l 734 958 l 734 0 l 99 0 m 813 126 l 813 -219 l 688 -219 l 665 0 l 628 0 l 656 126 l 813 126 z "},"Ш":{"ha":833,"x_min":58,"x_max":775,"o":"m 775 958 l 775 0 l 58 0 l 58 958 l 197 958 l 197 122 l 353 122 l 353 958 l 481 958 l 481 122 l 636 122 l 636 958 l 775 958 z "},"Щ":{"ha":833,"x_min":58,"x_max":853,"o":"m 775 958 l 775 0 l 58 0 l 58 958 l 197 958 l 197 122 l 353 122 l 353 958 l 481 958 l 481 122 l 636 122 l 636 958 l 775 958 m 853 126 l 853 -219 l 728 -219 l 705 0 l 669 0 l 696 126 l 853 126 z "},"Џ":{"ha":833,"x_min":99,"x_max":734,"o":"m 99 0 l 99 958 l 260 958 l 260 129 l 573 129 l 573 958 l 734 958 l 734 0 l 99 0 m 490 126 l 490 -219 l 365 -219 l 342 0 l 306 0 l 333 126 l 490 126 z "},"Ь":{"ha":833,"x_min":110,"x_max":779,"o":"m 272 958 l 272 615 l 397 615 q 677 543 575 615 q 779 315 779 472 q 731 135 779 204 q 599 33 683 65 q 403 0 514 0 l 110 0 l 110 958 l 272 958 m 404 494 l 272 494 l 272 124 l 406 124 q 513 140 467 124 q 584 199 558 157 q 610 314 610 240 q 554 453 610 412 q 404 494 498 494 z "},"Ъ":{"ha":833,"x_min":-1,"x_max":810,"o":"m 309 958 l 309 615 l 428 615 q 708 543 606 615 q 810 315 810 472 q 763 133 810 203 q 630 32 715 64 q 435 0 544 0 l 153 0 l 153 830 l -1 830 l -1 958 l 309 958 m 438 496 l 309 496 l 309 123 l 432 123 q 542 139 494 123 q 617 196 590 155 q 644 314 644 238 q 588 454 644 412 q 438 496 532 496 z "},"Ы":{"ha":833,"x_min":38,"x_max":795,"o":"m 184 958 l 184 617 l 244 617 q 503 540 415 617 q 592 315 592 463 q 500 77 592 154 q 247 0 408 0 l 38 0 l 38 958 l 184 958 m 795 958 l 795 0 l 649 0 l 649 958 l 795 958 m 259 501 l 184 501 l 184 119 l 255 119 q 391 163 343 119 q 439 314 439 206 q 259 501 439 501 z "},"Љ":{"ha":833,"x_min":-6,"x_max":833,"o":"m 498 958 l 498 615 q 748 542 663 615 q 833 315 833 469 q 745 74 833 149 q 505 0 656 0 l 358 0 l 358 842 l 247 842 l 220 428 q 199 225 212 302 q 168 103 186 148 q 123 32 149 58 q 63 -20 97 5 l -6 78 q 22 116 9 94 q 45 174 35 137 q 65 275 56 212 q 81 440 74 339 l 117 958 l 498 958 m 517 503 l 498 503 l 498 116 l 519 116 q 643 160 601 116 q 685 314 685 203 q 643 459 685 414 q 517 503 601 503 z "},"Њ":{"ha":833,"x_min":51,"x_max":833,"o":"m 500 958 l 500 585 q 748 517 663 585 q 833 303 833 449 q 746 71 833 142 q 503 0 659 0 l 359 0 l 359 470 l 192 470 l 192 0 l 51 0 l 51 958 l 192 958 l 192 585 l 359 585 l 359 958 l 500 958 m 517 472 l 500 472 l 500 118 l 517 118 q 643 156 601 119 q 686 301 686 193 q 644 434 686 397 q 517 472 601 471 z "},"Ѕ":{"ha":833,"x_min":44,"x_max":762,"o":"m 762 271 q 718 120 762 185 q 593 18 675 55 q 397 -19 512 -19 q 192 16 279 -19 q 44 110 104 51 l 132 208 q 247 135 183 161 q 396 108 312 108 q 536 147 477 108 q 594 263 594 185 q 577 334 594 305 q 517 387 560 364 q 398 433 474 410 q 167 542 246 478 q 89 719 89 606 q 132 855 89 797 q 249 945 174 913 q 418 978 324 978 q 600 948 522 978 q 739 863 678 917 l 654 767 q 545 831 603 810 q 428 851 488 851 q 304 820 354 851 q 254 728 254 790 q 275 664 254 690 q 344 616 295 638 q 478 567 393 593 q 623 509 559 544 q 725 418 688 474 q 762 271 762 361 z "},"Є":{"ha":833,"x_min":67,"x_max":795,"o":"m 492 978 q 656 952 589 978 q 781 880 724 926 l 703 787 q 607 837 656 820 q 503 854 558 854 q 376 825 434 854 q 281 730 319 795 q 235 556 243 664 l 632 556 l 632 428 l 233 428 q 275 245 238 316 q 369 142 311 175 q 500 109 428 109 q 628 133 577 109 q 717 189 679 158 l 795 94 q 673 15 748 49 q 492 -19 599 -19 q 272 38 367 -19 q 122 207 176 95 q 67 481 67 318 q 125 752 67 642 q 278 920 182 863 q 492 978 375 978 z "},"Э":{"ha":833,"x_min":44,"x_max":760,"o":"m 369 978 q 655 856 551 978 q 760 490 760 733 q 649 109 760 236 q 353 -19 538 -19 q 178 14 258 -19 q 44 103 99 47 l 129 193 q 229 131 177 152 q 347 109 281 109 q 524 185 460 109 q 594 430 587 262 l 198 430 l 198 554 l 594 554 q 525 786 586 718 q 358 854 464 854 q 230 828 283 854 q 136 769 178 802 l 55 859 q 190 943 113 909 q 369 978 266 978 z "},"І":{"ha":833,"x_min":128,"x_max":705,"o":"m 705 958 l 705 835 l 498 835 l 498 124 l 705 124 l 705 0 l 128 0 l 128 124 l 335 124 l 335 835 l 128 835 l 128 958 l 705 958 z "},"Ї":{"ha":833,"x_min":128,"x_max":705,"o":"m 705 958 l 705 835 l 498 835 l 498 124 l 705 124 l 705 0 l 128 0 l 128 124 l 335 124 l 335 835 l 128 835 l 128 958 l 705 958 z "},"Ј":{"ha":833,"x_min":83,"x_max":706,"o":"m 706 958 l 706 328 q 670 157 706 236 q 558 30 635 78 q 356 -18 481 -18 q 210 5 277 -18 q 83 70 142 28 l 149 173 q 255 123 206 136 q 350 109 303 109 q 493 167 440 109 q 545 332 545 224 l 545 835 l 257 835 l 257 958 l 706 958 z "},"Ћ":{"ha":833,"x_min":-8,"x_max":794,"o":"m 588 958 l 572 835 l 360 835 l 360 560 q 442 615 396 594 q 547 635 488 635 q 794 345 794 635 l 794 0 l 639 0 l 639 347 q 609 471 639 434 q 508 508 579 508 q 419 488 454 508 q 360 445 384 467 l 360 0 l 204 0 l 204 835 l -8 835 l -8 958 l 588 958 z "},"Ю":{"ha":833,"x_min":57,"x_max":809,"o":"m 542 978 q 751 852 694 978 q 809 479 809 726 q 748 109 809 236 q 542 -19 688 -19 q 386 36 444 -19 q 304 194 329 92 q 276 436 279 296 l 194 436 l 194 0 l 57 0 l 57 958 l 194 958 l 194 556 l 278 556 q 346 868 286 759 q 542 978 406 978 m 542 860 q 473 825 499 860 q 435 708 447 791 q 424 481 424 626 q 435 252 424 335 q 473 134 447 169 q 542 99 499 99 q 611 134 585 99 q 649 251 637 168 q 660 479 660 333 q 649 708 660 625 q 611 825 637 791 q 542 860 585 860 z "},"Я":{"ha":833,"x_min":30,"x_max":734,"o":"m 734 958 l 734 0 l 573 0 l 573 371 l 396 371 l 207 0 l 30 0 l 250 404 q 84 667 84 478 q 180 883 84 808 q 458 958 275 958 l 734 958 m 573 839 l 451 839 q 253 665 253 839 q 301 532 253 574 q 437 490 348 490 l 573 490 l 573 839 z "},"Ђ":{"ha":833,"x_min":-8,"x_max":794,"o":"m 360 835 l 360 560 q 442 614 396 592 q 547 635 489 635 q 794 345 794 635 l 794 135 q 762 -34 794 31 q 672 -140 730 -100 q 535 -206 613 -180 l 494 -87 q 585 -35 553 -63 q 627 34 616 -6 q 639 136 639 75 l 639 347 q 609 471 639 434 q 508 508 579 508 q 419 488 454 508 q 360 445 384 467 l 360 0 l 204 0 l 204 835 l -8 835 l -8 958 l 588 958 l 572 835 l 360 835 z "},"Ѡ":{"ha":833,"x_min":20,"x_max":814,"o":"m 713 958 q 757 827 734 902 q 797 651 781 752 q 814 417 814 551 q 784 165 814 261 q 702 24 754 68 q 582 -20 649 -20 q 474 17 512 -20 q 417 120 437 53 q 358 17 396 53 q 256 -20 320 -20 q 140 23 194 -20 q 53 162 87 66 q 20 417 20 258 q 37 651 20 551 q 77 827 53 752 q 121 958 101 902 l 263 958 q 217 802 238 881 q 184 631 197 724 q 172 421 172 539 q 185 235 172 303 q 222 136 198 166 q 278 107 246 107 q 327 134 306 107 q 348 230 348 162 l 348 553 l 485 553 l 485 231 q 508 136 485 165 q 563 107 530 107 q 614 132 591 107 q 649 225 636 158 q 663 419 663 293 q 650 631 663 538 q 617 803 638 724 q 572 958 596 882 l 713 958 z "},"Ѣ":{"ha":833,"x_min":14,"x_max":799,"o":"m 199 0 l 199 731 l 14 731 l 14 837 l 199 837 l 199 958 l 360 958 l 360 837 l 557 837 l 557 731 l 360 731 l 360 603 l 437 603 q 700 531 600 603 q 799 312 799 458 q 752 135 799 203 q 621 33 704 66 q 431 0 538 0 l 199 0 m 360 124 l 435 124 q 575 164 519 124 q 630 309 630 204 q 577 442 630 403 q 435 482 525 482 l 360 482 l 360 124 z "},"Ѥ":{"ha":833,"x_min":46,"x_max":833,"o":"m 833 42 q 748 -2 794 15 q 633 -19 701 -19 q 388 95 477 -19 q 288 428 298 210 l 203 428 l 203 0 l 46 0 l 46 960 l 203 960 l 203 556 l 290 556 q 398 870 305 762 q 644 978 491 978 q 746 964 705 978 q 826 926 788 951 l 764 826 q 708 849 735 842 q 647 857 681 857 q 510 787 563 857 q 448 554 458 717 l 728 554 l 728 430 l 446 430 q 503 182 452 259 q 642 105 553 105 q 717 116 686 105 q 774 142 747 127 l 833 42 z "},"Ѧ":{"ha":833,"x_min":12,"x_max":822,"o":"m 12 0 l 317 958 l 517 958 l 822 0 l 660 0 l 549 378 l 482 378 l 482 -1 l 348 -1 l 348 378 l 278 378 l 169 0 l 12 0 m 414 846 l 314 501 l 514 501 l 414 846 z "},"Ѩ":{"ha":833,"x_min":33,"x_max":846,"o":"m 210 0 l 299 390 l 172 390 l 172 -1 l 33 -1 l 33 958 l 172 958 l 172 499 l 324 499 l 428 958 l 628 958 l 846 0 l 706 0 l 624 390 l 583 390 l 583 -1 l 467 -1 l 467 390 l 427 390 l 346 0 l 210 0 m 525 862 l 449 499 l 601 499 l 525 862 z "},"Ѫ":{"ha":833,"x_min":34,"x_max":799,"o":"m 34 0 l 190 538 l 288 538 l 115 862 l 115 958 l 719 958 l 719 862 l 542 538 l 649 538 l 799 0 l 660 0 l 551 431 l 487 431 l 487 0 l 348 0 l 348 431 l 283 431 l 172 0 l 34 0 m 419 538 l 575 856 l 262 856 l 419 538 z "},"Ѭ":{"ha":833,"x_min":19,"x_max":864,"o":"m 19 -1 l 19 958 l 159 958 l 159 538 l 408 538 l 263 863 l 263 958 l 797 958 l 797 863 l 649 538 l 748 538 l 864 0 l 730 0 l 650 431 l 597 431 l 597 0 l 463 0 l 463 431 l 410 431 l 329 0 l 196 0 l 293 431 l 159 431 l 159 -1 l 19 -1 m 533 538 l 665 858 l 399 858 l 533 538 z "},"Ѯ":{"ha":833,"x_min":103,"x_max":731,"o":"m 323 -303 q 118 -94 118 -219 q 172 18 118 -22 q 346 80 226 59 q 507 138 449 98 q 564 261 564 178 q 517 382 564 345 q 378 419 471 419 l 221 419 l 221 522 l 500 831 l 103 831 l 103 958 l 682 958 l 682 835 l 395 528 l 419 528 q 653 456 576 526 q 731 256 731 385 q 689 106 731 165 q 580 14 647 47 q 435 -33 513 -20 q 336 -55 371 -44 q 290 -77 302 -65 q 277 -108 277 -90 q 304 -157 277 -135 q 379 -206 331 -180 l 323 -303 m 572 1278 l 633 1208 l 443 1046 l 343 1046 l 151 1208 l 215 1278 l 392 1164 l 572 1278 z "},"Ѱ":{"ha":833,"x_min":17,"x_max":816,"o":"m 341 0 l 341 262 q 95 368 173 278 q 17 593 17 458 l 17 958 l 167 958 l 167 596 q 205 447 167 501 q 347 381 242 393 l 347 958 l 488 958 l 488 382 q 628 448 589 395 q 667 596 667 501 l 667 958 l 816 958 l 816 593 q 737 370 816 458 q 494 263 658 281 l 494 0 l 341 0 z "},"Ѳ":{"ha":833,"x_min":52,"x_max":781,"o":"m 781 479 q 740 219 781 331 q 618 44 699 107 q 417 -19 537 -19 q 215 42 297 -19 q 93 215 134 103 q 52 478 52 327 q 93 738 52 626 q 215 914 134 851 q 417 978 297 978 q 618 916 537 978 q 740 742 699 854 q 781 479 781 630 m 417 852 q 273 775 319 852 q 217 542 226 697 l 615 542 q 561 775 608 697 q 417 852 514 852 m 417 107 q 565 190 519 107 q 616 433 612 272 l 217 433 q 269 189 221 272 q 417 107 317 107 z "},"Ѵ":{"ha":833,"x_min":29,"x_max":826,"o":"m 792 851 q 773 856 782 853 q 754 858 765 858 q 694 796 712 858 l 486 0 l 297 0 l 29 958 l 201 958 l 392 153 l 545 811 q 611 940 566 901 q 730 978 656 978 q 784 973 760 978 q 826 958 808 967 l 792 851 z "},"Ѷ":{"ha":833,"x_min":29,"x_max":826,"o":"m 792 851 q 773 856 782 853 q 754 858 765 858 q 694 796 712 858 l 486 0 l 297 0 l 29 958 l 201 958 l 392 153 l 545 811 q 611 940 566 901 q 730 978 656 978 q 784 973 760 978 q 826 958 808 967 l 792 851 z "},"Ѹ":{"ha":833,"x_min":3,"x_max":826,"o":"m 222 -19 q 54 113 106 -19 q 3 478 3 244 q 25 743 3 631 q 96 916 48 855 q 222 978 144 978 q 391 845 341 978 q 440 479 440 713 q 419 212 440 324 q 349 41 397 101 q 222 -19 301 -19 m 222 91 q 294 183 275 91 q 313 479 313 274 q 294 776 313 684 q 222 868 274 868 q 150 776 169 868 q 131 478 131 683 q 151 182 131 273 q 222 91 172 91 m 483 -300 l 461 -206 q 559 -139 523 -185 q 610 0 596 -93 l 553 0 l 444 733 l 562 733 l 636 108 l 708 733 l 826 733 l 714 -3 q 632 -207 694 -139 q 483 -300 571 -276 z "},"Ғ":{"ha":833,"x_min":77,"x_max":803,"o":"m 576 601 l 576 492 l 365 492 l 365 0 l 204 0 l 204 492 l 77 492 l 77 601 l 204 601 l 204 958 l 803 958 l 787 825 l 365 825 l 365 601 l 576 601 z "},"Ҕ":{"ha":833,"x_min":96,"x_max":772,"o":"m 541 -301 q 443 -285 483 -301 q 373 -246 402 -268 l 433 -148 q 476 -169 456 -161 q 530 -178 497 -178 q 589 -154 568 -178 q 610 -78 610 -131 l 610 1 l 611 1 l 611 324 q 453 506 611 506 q 340 482 387 506 q 256 418 294 458 l 256 0 l 96 0 l 96 958 l 660 958 l 640 831 l 256 831 l 256 544 q 358 611 301 587 q 490 635 415 635 q 697 554 623 635 q 772 325 772 472 l 772 0 l 772 0 l 772 -66 q 710 -242 772 -183 q 541 -301 648 -301 z "},"Җ":{"ha":833,"x_min":12,"x_max":849,"o":"m 357 450 l 288 450 l 158 0 l 12 0 l 174 514 l 29 958 l 172 958 l 290 554 l 357 554 l 357 958 l 476 958 l 476 554 l 543 554 l 662 958 l 804 958 l 660 514 l 822 0 l 673 0 l 543 450 l 476 450 l 476 0 l 357 0 l 357 450 m 849 126 l 849 -219 l 734 -219 l 713 0 l 679 0 l 704 126 l 849 126 z "},"Ҙ":{"ha":833,"x_min":34,"x_max":763,"o":"m 391 978 q 572 945 495 978 q 690 857 648 913 q 731 726 731 800 q 673 585 731 638 q 526 517 615 532 q 645 483 591 511 q 731 404 699 455 q 763 281 763 353 q 717 126 763 194 q 586 20 672 58 q 382 -19 501 -19 q 185 17 274 -19 q 34 118 97 52 l 124 203 q 242 132 178 157 q 381 107 306 107 q 539 154 483 107 q 596 282 596 201 q 538 409 596 369 q 387 449 479 449 l 221 449 l 240 574 l 381 574 q 514 608 458 574 q 569 716 569 642 q 517 819 569 784 q 381 854 464 854 q 248 831 307 854 q 139 768 190 808 l 55 857 q 391 978 197 978 z "},"Қ":{"ha":833,"x_min":109,"x_max":826,"o":"m 372 440 l 270 440 l 270 0 l 109 0 l 109 958 l 270 958 l 270 565 l 372 565 l 635 958 l 800 958 l 507 514 l 826 0 l 642 0 l 372 440 m 826 126 l 826 -219 l 701 -219 l 678 0 l 642 0 l 669 126 l 826 126 z "},"Ҝ":{"ha":833,"x_min":109,"x_max":824,"o":"m 321 207 l 321 444 l 260 444 l 260 0 l 109 0 l 109 958 l 260 958 l 260 561 l 321 561 l 321 793 l 397 793 l 397 561 l 427 561 l 637 958 l 798 958 l 550 514 l 824 0 l 650 0 l 428 444 l 397 444 l 397 207 l 321 207 z "},"Ҟ":{"ha":833,"x_min":37,"x_max":822,"o":"m 394 440 l 293 440 l 293 0 l 132 0 l 132 735 l 37 735 l 37 842 l 132 842 l 132 958 l 293 958 l 293 842 l 435 842 l 435 735 l 293 735 l 293 565 l 394 565 l 630 958 l 795 958 l 530 514 l 822 0 l 637 0 l 394 440 z "},"Ҡ":{"ha":833,"x_min":10,"x_max":835,"o":"m 410 441 l 319 441 l 319 0 l 163 0 l 163 830 l 10 830 l 10 958 l 319 958 l 319 564 l 410 564 l 647 958 l 810 958 l 541 514 l 835 0 l 653 0 l 410 441 z "},"Ң":{"ha":833,"x_min":94,"x_max":811,"o":"m 568 0 l 568 435 l 256 435 l 256 0 l 94 0 l 94 958 l 256 958 l 256 568 l 568 568 l 568 958 l 729 958 l 729 0 l 568 0 m 811 126 l 811 -219 l 686 -219 l 663 0 l 627 0 l 654 126 l 811 126 z "},"Ҥ":{"ha":833,"x_min":76,"x_max":847,"o":"m 490 0 l 490 435 l 237 435 l 237 0 l 76 0 l 76 958 l 237 958 l 237 569 l 490 569 l 490 958 l 847 958 l 829 829 l 651 829 l 651 0 l 490 0 z "},"Ҧ":{"ha":833,"x_min":36,"x_max":819,"o":"m 349 0 l 349 834 l 182 834 l 182 0 l 36 0 l 36 958 l 494 958 l 494 580 q 553 617 521 603 q 628 631 586 631 q 768 573 717 631 q 819 417 819 514 l 819 -74 q 758 -243 819 -185 q 603 -301 697 -301 q 505 -285 545 -301 q 435 -246 464 -268 l 493 -154 q 537 -176 515 -167 q 592 -185 559 -185 q 652 -162 631 -185 q 673 -85 673 -138 l 673 413 q 592 508 673 508 q 494 467 542 508 l 494 0 l 349 0 z "},"Ԥ":{"ha":833,"x_min":99,"x_max":813,"o":"m 573 0 l 573 827 l 260 827 l 260 0 l 99 0 l 99 958 l 734 958 l 734 0 l 573 0 m 813 126 l 813 -219 l 688 -219 l 665 0 l 628 0 l 656 126 l 813 126 z "},"Ҩ":{"ha":833,"x_min":42,"x_max":808,"o":"m 432 -20 q 228 37 316 -20 q 92 206 141 94 q 42 479 42 317 q 94 753 42 642 q 233 921 147 864 q 423 978 319 978 q 575 952 514 978 q 693 878 635 926 l 613 781 q 523 835 567 817 q 428 853 479 853 q 323 817 372 853 q 243 699 274 781 q 213 479 213 617 q 241 262 213 344 q 319 143 269 180 q 435 106 369 106 q 450 106 442 106 q 388 233 411 170 q 365 363 365 297 q 426 533 365 467 q 585 599 487 599 q 747 538 685 599 q 808 368 808 476 q 765 183 808 272 q 638 38 721 93 q 691 -33 663 4 q 749 -112 719 -70 l 656 -181 q 590 -92 622 -135 q 527 -9 557 -49 q 432 -20 482 -20 m 499 365 q 517 249 499 303 q 569 140 536 194 q 667 371 667 201 q 585 488 667 488 q 520 455 542 488 q 499 365 499 422 z "},"Ҫ":{"ha":833,"x_min":72,"x_max":800,"o":"m 497 978 q 661 952 594 978 q 786 880 728 927 l 702 780 q 505 851 617 851 q 373 815 433 851 q 276 697 313 778 q 240 481 240 616 q 274 267 240 348 q 369 149 309 185 q 505 112 429 112 q 633 137 582 112 q 722 194 683 163 l 800 95 q 678 15 752 49 q 499 -19 605 -19 q 281 38 377 -19 q 128 207 184 95 q 72 481 72 318 q 130 752 72 642 q 284 920 188 863 q 497 978 380 978 m 438 36 q 598 -50 538 3 q 658 -182 658 -103 q 608 -298 658 -254 q 470 -342 558 -342 q 390 -332 424 -342 q 331 -307 356 -322 l 367 -222 q 405 -237 383 -230 q 459 -245 428 -245 q 519 -225 499 -245 q 538 -170 538 -204 q 509 -83 538 -128 q 411 0 481 -39 l 438 36 z "},"Ҭ":{"ha":833,"x_min":47,"x_max":790,"o":"m 495 828 l 495 0 l 334 0 l 334 828 l 47 828 l 47 958 l 790 958 l 773 828 l 495 828 m 574 126 l 574 -219 l 449 -219 l 426 0 l 390 0 l 417 126 l 574 126 z "},"Ү":{"ha":833,"x_min":16,"x_max":817,"o":"m 498 366 l 498 0 l 335 0 l 335 365 l 16 958 l 193 958 l 420 504 l 649 958 l 817 958 l 498 366 z "},"Ұ":{"ha":833,"x_min":16,"x_max":817,"o":"m 669 429 l 669 323 l 498 323 l 498 0 l 335 0 l 335 323 l 164 323 l 164 429 l 301 429 l 16 958 l 193 958 l 420 504 l 649 958 l 817 958 l 532 429 l 669 429 z "},"Ҳ":{"ha":833,"x_min":28,"x_max":810,"o":"m 53 958 l 231 958 l 417 613 l 604 958 l 776 958 l 510 518 l 805 0 l 626 0 l 414 408 l 201 0 l 28 0 l 319 510 l 53 958 m 810 126 l 810 -219 l 685 -219 l 662 0 l 626 0 l 653 126 l 810 126 z "},"Ҵ":{"ha":833,"x_min":0,"x_max":784,"o":"m 158 0 l 158 842 l 0 842 l 0 958 l 472 958 l 455 842 l 311 842 l 311 129 l 563 129 l 563 958 l 715 958 l 715 126 l 784 126 l 784 -219 l 667 -219 l 644 0 l 158 0 z "},"Ҷ":{"ha":833,"x_min":57,"x_max":813,"o":"m 218 958 l 218 602 q 260 465 218 508 q 385 423 303 423 q 497 444 451 423 q 573 494 542 465 l 573 958 l 734 958 l 734 0 l 573 0 l 573 371 q 466 312 519 331 q 343 293 413 293 q 134 373 212 293 q 57 593 57 452 l 57 958 l 218 958 m 813 126 l 813 -219 l 688 -219 l 665 0 l 628 0 l 656 126 l 813 126 z "},"Ҹ":{"ha":833,"x_min":57,"x_max":734,"o":"m 446 756 l 446 428 q 519 454 488 437 q 573 494 550 472 l 573 958 l 734 958 l 734 0 l 573 0 l 573 371 q 510 331 541 347 q 446 306 479 315 l 446 169 l 360 169 l 360 294 q 343 293 352 293 q 134 373 212 293 q 57 593 57 452 l 57 958 l 218 958 l 218 602 q 254 473 218 515 q 360 424 290 430 l 360 756 l 446 756 z "},"Һ":{"ha":833,"x_min":99,"x_max":776,"o":"m 494 635 q 701 554 627 635 q 776 325 776 472 l 776 0 l 615 0 l 615 324 q 458 506 615 506 q 344 482 390 506 q 260 418 298 458 l 260 0 l 99 0 l 99 958 l 260 958 l 260 544 q 363 611 306 587 q 494 635 419 635 z "},"Ԧ":{"ha":833,"x_min":99,"x_max":836,"o":"m 479 635 q 686 554 613 635 q 760 325 760 472 l 760 126 l 836 126 l 836 -219 l 710 -219 l 688 0 l 599 0 l 599 324 q 560 460 599 415 q 439 506 521 506 q 337 482 380 506 q 260 419 294 459 l 260 0 l 99 0 l 99 958 l 260 958 l 260 549 q 356 612 302 588 q 479 635 410 635 z "},"Ҽ":{"ha":833,"x_min":-2,"x_max":792,"o":"m -2 594 q 13 675 -2 640 q 47 738 28 709 l 140 697 q 123 652 131 674 q 116 604 116 631 q 185 533 116 533 l 189 533 q 283 861 200 744 q 503 978 367 978 q 718 854 643 978 q 792 496 792 730 q 791 458 792 480 q 788 417 790 436 l 339 417 q 364 232 340 301 q 429 131 388 163 q 520 100 469 100 q 614 119 576 100 q 686 162 652 138 l 752 75 q 651 9 709 37 q 517 -19 593 -19 q 283 91 369 -19 q 188 418 198 201 q 46 470 94 419 q -2 594 -2 521 m 502 860 q 389 785 431 860 q 339 533 347 710 l 649 533 q 628 726 646 654 q 578 829 610 798 q 502 860 546 860 z "},"Ҿ":{"ha":833,"x_min":-2,"x_max":792,"o":"m -2 594 q 13 675 -2 640 q 47 738 28 709 l 140 697 q 123 652 131 674 q 116 604 116 631 q 185 533 116 533 l 189 533 q 283 861 200 744 q 503 978 367 978 q 718 854 643 978 q 792 496 792 730 q 791 458 792 480 q 788 417 790 436 l 339 417 q 364 232 340 301 q 429 131 388 163 q 520 100 469 100 q 614 119 576 100 q 686 162 652 138 l 752 75 q 651 9 709 37 q 517 -19 593 -19 q 283 91 369 -19 q 188 418 198 201 q 46 470 94 419 q -2 594 -2 521 m 502 860 q 389 785 431 860 q 339 533 347 710 l 649 533 q 628 726 646 654 q 578 829 610 798 q 502 860 546 860 m 607 53 l 628 0 q 523 -55 559 -28 q 474 -106 487 -81 q 460 -157 460 -131 q 539 -224 460 -224 q 580 -221 561 -224 q 621 -214 598 -219 l 607 -321 q 567 -328 587 -326 q 522 -331 547 -331 q 388 -290 439 -331 q 337 -181 337 -249 q 407 -40 337 -94 q 607 53 476 15 z "},"Ӏ":{"ha":833,"x_min":128,"x_max":705,"o":"m 705 958 l 705 835 l 498 835 l 498 124 l 705 124 l 705 0 l 128 0 l 128 124 l 335 124 l 335 835 l 128 835 l 128 958 l 705 958 z "},"Ӂ":{"ha":833,"x_min":12,"x_max":822,"o":"m 357 450 l 288 450 l 158 0 l 12 0 l 174 514 l 29 958 l 172 958 l 290 554 l 357 554 l 357 958 l 476 958 l 476 554 l 543 554 l 662 958 l 804 958 l 660 514 l 822 0 l 673 0 l 543 450 l 476 450 l 476 0 l 357 0 l 357 450 z "},"Ӄ":{"ha":833,"x_min":99,"x_max":770,"o":"m 99 0 l 99 958 l 260 958 l 260 549 l 379 549 l 607 958 l 770 958 l 528 543 q 702 453 646 525 q 758 253 758 381 l 758 -66 q 696 -242 758 -183 q 527 -301 634 -301 q 429 -285 469 -301 q 359 -246 388 -268 l 419 -148 q 463 -169 442 -161 q 516 -178 484 -178 q 576 -154 555 -178 q 597 -78 597 -131 l 597 251 q 557 381 597 339 q 419 423 516 423 l 260 423 l 260 0 l 99 0 z "},"Ӆ":{"ha":833,"x_min":11,"x_max":822,"o":"m 822 140 l 703 -219 l 574 -219 l 624 0 l 536 0 l 536 828 l 360 828 l 334 594 q 303 365 319 459 q 266 209 286 272 q 219 105 245 146 q 158 35 192 64 q 78 -20 123 6 l 11 92 q 62 140 39 114 q 105 215 85 166 q 142 350 124 263 q 176 581 159 438 l 220 958 l 697 958 l 697 140 l 822 140 z "},"Ӈ":{"ha":833,"x_min":99,"x_max":734,"o":"m 573 0 l 573 435 l 260 435 l 260 0 l 99 0 l 99 958 l 260 958 l 260 568 l 573 568 l 573 958 l 734 958 l 734 0 l 573 0 m 503 -301 q 405 -285 446 -301 q 335 -246 365 -268 l 395 -148 q 439 -169 418 -161 q 492 -178 460 -178 q 552 -154 531 -178 q 573 -78 573 -131 l 573 1 l 734 1 l 734 -66 q 672 -242 734 -183 q 503 -301 610 -301 z "},"Ӊ":{"ha":833,"x_min":85,"x_max":813,"o":"m 527 0 l 527 435 l 246 435 l 246 0 l 85 0 l 85 958 l 246 958 l 246 569 l 527 569 l 527 958 l 688 958 l 688 140 l 813 140 l 694 -219 l 564 -219 l 615 0 l 527 0 z "},"Ӌ":{"ha":833,"x_min":57,"x_max":734,"o":"m 218 958 l 218 602 q 260 465 218 508 q 385 423 303 423 q 497 444 451 423 q 573 494 542 465 l 573 958 l 734 958 l 734 0 l 573 0 l 573 371 q 466 312 519 331 q 343 293 413 293 q 134 373 212 293 q 57 593 57 452 l 57 958 l 218 958 m 299 126 l 299 -219 l 424 -219 l 447 0 l 483 0 l 456 126 l 299 126 z "},"Ӎ":{"ha":833,"x_min":27,"x_max":853,"o":"m 853 140 l 733 -219 l 613 -219 l 663 0 l 597 0 l 574 467 q 570 664 569 572 q 574 815 571 757 l 455 169 l 315 169 l 188 815 q 193 661 192 758 q 190 465 194 565 l 172 0 l 27 0 l 81 958 l 274 958 l 388 316 l 496 958 l 690 958 l 736 140 l 853 140 z "},"Ӑ":{"ha":833,"x_min":12,"x_max":822,"o":"m 585 231 l 242 231 l 176 0 l 12 0 l 317 958 l 517 958 l 822 0 l 651 0 l 585 231 m 276 355 l 551 355 l 414 833 l 276 355 z "},"Ӓ":{"ha":833,"x_min":12,"x_max":822,"o":"m 585 231 l 242 231 l 176 0 l 12 0 l 317 958 l 517 958 l 822 0 l 651 0 l 585 231 m 276 355 l 551 355 l 414 833 l 276 355 z "},"Ӕ":{"ha":833,"x_min":-17,"x_max":842,"o":"m 449 232 l 199 232 l 142 0 l -17 0 l 249 958 l 785 958 l 768 840 l 469 840 l 530 546 l 773 546 l 773 426 l 552 426 l 615 119 l 842 119 l 842 0 l 494 0 l 449 232 m 228 353 l 427 353 l 336 842 l 228 353 z "},"Ӗ":{"ha":833,"x_min":157,"x_max":741,"o":"m 318 836 l 318 548 l 665 548 l 665 426 l 318 426 l 318 122 l 741 122 l 741 0 l 157 0 l 157 958 l 733 958 l 715 836 l 318 836 z "},"Ә":{"ha":833,"x_min":49,"x_max":779,"o":"m 49 463 q 50 500 49 480 q 54 540 51 521 l 617 540 q 554 782 611 709 q 397 856 497 856 q 279 832 328 856 q 185 776 231 809 l 108 866 q 239 947 167 916 q 406 978 311 978 q 683 855 587 978 q 779 490 779 732 q 681 115 779 248 q 412 -19 583 -19 q 143 106 238 -19 q 49 463 49 230 m 413 104 q 556 179 503 104 q 617 420 608 253 l 203 420 q 262 176 209 249 q 413 104 315 104 z "},"Ӛ":{"ha":833,"x_min":49,"x_max":779,"o":"m 49 463 q 50 500 49 480 q 54 540 51 521 l 617 540 q 554 782 611 709 q 397 856 497 856 q 279 832 328 856 q 185 776 231 809 l 108 866 q 239 947 167 916 q 406 978 311 978 q 683 855 587 978 q 779 490 779 732 q 681 115 779 248 q 412 -19 583 -19 q 143 106 238 -19 q 49 463 49 230 m 413 104 q 556 179 503 104 q 617 420 608 253 l 203 420 q 262 176 209 249 q 413 104 315 104 z "},"Ӝ":{"ha":833,"x_min":12,"x_max":822,"o":"m 357 450 l 288 450 l 158 0 l 12 0 l 174 514 l 29 958 l 172 958 l 290 554 l 357 554 l 357 958 l 476 958 l 476 554 l 543 554 l 662 958 l 804 958 l 660 514 l 822 0 l 673 0 l 543 450 l 476 450 l 476 0 l 357 0 l 357 450 z "},"Ӟ":{"ha":833,"x_min":34,"x_max":763,"o":"m 391 978 q 572 945 495 978 q 690 857 648 913 q 731 726 731 800 q 673 585 731 638 q 526 517 615 532 q 645 483 591 511 q 731 404 699 455 q 763 281 763 353 q 717 126 763 194 q 586 20 672 58 q 382 -19 501 -19 q 185 17 274 -19 q 34 118 97 52 l 124 203 q 242 132 178 157 q 381 107 306 107 q 539 154 483 107 q 596 282 596 201 q 538 409 596 369 q 387 449 479 449 l 221 449 l 240 574 l 381 574 q 514 608 458 574 q 569 716 569 642 q 517 819 569 784 q 381 854 464 854 q 248 831 307 854 q 139 768 190 808 l 55 857 q 391 978 197 978 z "},"Ӡ":{"ha":833,"x_min":82,"x_max":751,"o":"m 391 -20 q 209 11 279 -20 q 82 92 140 42 l 160 184 q 264 127 213 147 q 388 106 314 106 q 533 153 481 106 q 584 289 584 200 q 533 410 584 374 q 394 447 483 447 l 239 447 l 239 548 l 528 831 l 126 831 l 126 958 l 707 958 l 707 835 l 420 556 l 438 556 q 675 484 598 556 q 751 289 751 413 q 708 130 751 199 q 583 20 664 60 q 391 -20 502 -20 z "},"Ӣ":{"ha":833,"x_min":99,"x_max":734,"o":"m 99 0 l 99 958 l 253 958 l 253 535 q 249 376 253 444 q 240 252 246 308 q 226 142 233 197 l 542 958 l 734 958 l 734 0 l 581 0 l 581 422 q 589 640 581 543 q 608 812 597 738 l 294 0 l 99 0 z "},"Ӥ":{"ha":833,"x_min":99,"x_max":734,"o":"m 99 0 l 99 958 l 253 958 l 253 535 q 249 376 253 444 q 240 252 246 308 q 226 142 233 197 l 542 958 l 734 958 l 734 0 l 581 0 l 581 422 q 589 640 581 543 q 608 812 597 738 l 294 0 l 99 0 z "},"Ӧ":{"ha":833,"x_min":52,"x_max":781,"o":"m 781 479 q 740 219 781 331 q 618 44 699 107 q 417 -19 537 -19 q 215 42 297 -19 q 93 215 134 103 q 52 478 52 327 q 93 738 52 626 q 215 914 134 851 q 417 978 297 978 q 618 916 537 978 q 740 742 699 854 q 781 479 781 630 m 615 479 q 569 759 615 665 q 417 852 523 852 q 265 758 310 852 q 219 478 219 664 q 266 200 219 292 q 417 107 313 107 q 569 200 523 107 q 615 479 615 294 z "},"Ө":{"ha":833,"x_min":52,"x_max":781,"o":"m 781 479 q 740 219 781 331 q 618 44 699 107 q 417 -19 537 -19 q 215 42 297 -19 q 93 215 134 103 q 52 478 52 327 q 93 738 52 626 q 215 914 134 851 q 417 978 297 978 q 618 916 537 978 q 740 742 699 854 q 781 479 781 630 m 417 852 q 273 775 319 852 q 217 542 226 697 l 615 542 q 561 775 608 697 q 417 852 514 852 m 417 107 q 565 190 519 107 q 616 433 612 272 l 217 433 q 269 189 221 272 q 417 107 317 107 z "},"Ӫ":{"ha":833,"x_min":52,"x_max":781,"o":"m 781 479 q 740 219 781 331 q 618 44 699 107 q 417 -19 537 -19 q 215 42 297 -19 q 93 215 134 103 q 52 478 52 327 q 93 738 52 626 q 215 914 134 851 q 417 978 297 978 q 618 916 537 978 q 740 742 699 854 q 781 479 781 630 m 417 852 q 273 775 319 852 q 217 542 226 697 l 615 542 q 561 775 608 697 q 417 852 514 852 m 417 107 q 565 190 519 107 q 616 433 612 272 l 217 433 q 269 189 221 272 q 417 107 317 107 z "},"Ӭ":{"ha":833,"x_min":44,"x_max":760,"o":"m 369 978 q 655 856 551 978 q 760 490 760 733 q 649 109 760 236 q 353 -19 538 -19 q 178 14 258 -19 q 44 103 99 47 l 129 193 q 229 131 177 152 q 347 109 281 109 q 524 185 460 109 q 594 430 587 262 l 198 430 l 198 554 l 594 554 q 525 786 586 718 q 358 854 464 854 q 230 828 283 854 q 136 769 178 802 l 55 859 q 190 943 113 909 q 369 978 266 978 z "},"Ӯ":{"ha":833,"x_min":20,"x_max":820,"o":"m 820 958 l 546 279 q 461 122 507 183 q 344 26 415 60 q 161 -19 273 -7 l 138 100 q 257 126 211 109 q 332 176 303 144 q 387 260 362 208 l 329 260 l 20 958 l 188 958 l 434 358 l 657 958 l 820 958 z "},"Ӱ":{"ha":833,"x_min":20,"x_max":820,"o":"m 820 958 l 546 279 q 461 122 507 183 q 344 26 415 60 q 161 -19 273 -7 l 138 100 q 257 126 211 109 q 332 176 303 144 q 387 260 362 208 l 329 260 l 20 958 l 188 958 l 434 358 l 657 958 l 820 958 z "},"Ӳ":{"ha":833,"x_min":20,"x_max":820,"o":"m 820 958 l 546 279 q 461 122 507 183 q 344 26 415 60 q 161 -19 273 -7 l 138 100 q 257 126 211 109 q 332 176 303 144 q 387 260 362 208 l 329 260 l 20 958 l 188 958 l 434 358 l 657 958 l 820 958 z "},"Ӵ":{"ha":833,"x_min":57,"x_max":734,"o":"m 218 958 l 218 602 q 260 465 218 508 q 385 423 303 423 q 497 444 451 423 q 573 494 542 465 l 573 958 l 734 958 l 734 0 l 573 0 l 573 371 q 466 312 519 331 q 343 293 413 293 q 134 373 212 293 q 57 593 57 452 l 57 958 l 218 958 z "},"Ӷ":{"ha":833,"x_min":165,"x_max":764,"o":"m 764 958 l 747 825 l 326 825 l 326 0 l 165 0 l 165 958 l 764 958 m 413 126 l 413 -219 l 288 -219 l 265 0 l 228 0 l 256 126 l 413 126 z "},"Ӹ":{"ha":833,"x_min":38,"x_max":795,"o":"m 184 958 l 184 617 l 244 617 q 503 540 415 617 q 592 315 592 463 q 500 77 592 154 q 247 0 408 0 l 38 0 l 38 958 l 184 958 m 795 958 l 795 0 l 649 0 l 649 958 l 795 958 m 259 501 l 184 501 l 184 119 l 255 119 q 391 163 343 119 q 439 314 439 206 q 259 501 439 501 z "},"Ӻ":{"ha":833,"x_min":87,"x_max":833,"o":"m 255 -301 q 157 -285 197 -301 q 87 -246 116 -268 l 147 -148 q 190 -169 169 -161 q 244 -178 211 -178 q 303 -154 283 -178 q 324 -78 324 -131 l 324 0 l 234 0 l 234 492 l 107 492 l 107 601 l 234 601 l 234 958 l 833 958 l 817 825 l 395 825 l 395 601 l 606 601 l 606 492 l 395 492 l 395 126 l 485 126 l 485 -66 q 424 -242 485 -183 q 255 -301 362 -301 z "},"Ӽ":{"ha":833,"x_min":12,"x_max":818,"o":"m 588 -301 q 489 -285 529 -301 q 419 -246 449 -268 l 479 -148 q 523 -169 501 -161 q 576 -178 544 -178 q 636 -154 615 -178 q 657 -78 657 -131 l 657 0 l 610 0 l 397 408 l 184 0 l 12 0 l 302 510 l 36 958 l 215 958 l 400 613 l 588 958 l 759 958 l 494 518 l 717 126 l 818 126 l 818 -66 q 756 -242 818 -183 q 588 -301 694 -301 z "},"Ӿ":{"ha":833,"x_min":28,"x_max":805,"o":"m 53 958 l 231 958 l 417 613 l 604 958 l 776 958 l 510 518 l 805 0 l 626 0 l 414 408 l 201 0 l 28 0 l 319 510 l 53 958 m 45 455 l 45 567 l 790 567 l 790 455 l 45 455 z "},"Ԁ":{"ha":833,"x_min":54,"x_max":723,"o":"m 420 0 q 231 33 314 0 q 101 132 149 65 q 54 302 54 199 q 156 529 54 449 q 431 610 258 610 l 562 610 l 562 958 l 723 958 l 723 0 l 420 0 m 427 124 l 562 124 l 562 489 l 432 489 q 278 443 332 489 q 224 302 224 398 q 280 163 224 203 q 427 124 337 124 z "},"Ԃ":{"ha":833,"x_min":13,"x_max":812,"o":"m 231 -20 q 124 13 174 -20 q 44 110 74 45 q 13 274 13 176 q 92 514 13 428 q 313 601 172 601 l 372 601 l 372 958 l 513 958 l 513 207 q 578 96 513 96 q 644 150 618 96 q 671 343 671 205 q 669 438 671 395 q 664 524 667 481 l 804 524 q 810 441 808 484 q 812 346 812 397 q 746 67 812 154 q 574 -21 681 -21 q 403 81 457 -21 q 330 6 372 33 q 231 -20 288 -20 m 256 96 q 321 119 294 96 q 372 192 347 143 l 372 490 l 315 490 q 197 438 240 490 q 153 274 153 387 q 183 136 153 176 q 256 96 213 96 z "},"Ԅ":{"ha":833,"x_min":30,"x_max":803,"o":"m 67 394 l 67 511 l 168 511 q 310 551 260 511 q 360 681 360 590 q 311 802 360 765 q 155 840 261 840 l 30 840 l 30 958 l 156 958 q 529 681 529 958 q 477 519 529 581 q 330 425 426 456 l 430 206 q 481 127 456 150 q 542 104 506 104 q 598 127 574 104 q 636 204 622 149 q 649 354 649 258 q 647 442 649 399 q 642 527 645 484 l 796 527 q 801 444 799 487 q 803 355 803 401 q 732 69 803 158 q 543 -19 660 -19 q 386 28 447 -19 q 281 171 326 76 l 176 394 l 67 394 z "},"Ԇ":{"ha":833,"x_min":93,"x_max":776,"o":"m 776 126 l 776 -219 l 651 -219 l 628 0 l 569 0 l 328 394 l 133 394 l 133 513 l 342 513 q 485 552 435 513 q 535 681 535 591 q 486 802 535 765 q 338 839 438 839 l 93 839 l 93 958 l 330 958 q 609 889 514 958 q 703 681 703 820 q 640 510 703 575 q 485 417 577 444 l 675 126 l 776 126 z "},"Ԉ":{"ha":833,"x_min":2,"x_max":821,"o":"m 76 -20 l 2 82 q 39 128 23 102 q 69 205 56 155 q 93 342 82 254 q 114 573 103 430 l 142 958 l 522 958 l 522 207 q 588 96 522 96 q 653 150 626 96 q 680 343 680 205 q 678 438 680 395 q 673 524 676 481 l 813 524 q 819 441 817 484 q 821 346 821 397 q 755 67 821 154 q 583 -21 690 -21 q 440 38 499 -21 q 381 215 381 96 l 381 840 l 272 840 l 251 538 q 227 293 241 388 q 193 142 213 199 q 144 49 173 85 q 76 -20 115 13 z "},"Ԋ":{"ha":833,"x_min":58,"x_max":820,"o":"m 580 -21 q 435 38 495 -21 q 374 215 374 96 l 374 435 l 202 435 l 202 0 l 58 0 l 58 958 l 202 958 l 202 558 l 374 558 l 374 958 l 518 958 l 518 207 q 584 96 518 96 q 650 150 623 96 q 676 343 676 205 q 674 438 676 395 q 669 524 672 481 l 813 524 q 818 441 816 484 q 820 346 820 397 q 755 67 820 154 q 580 -21 689 -21 z "},"Ԍ":{"ha":833,"x_min":51,"x_max":764,"o":"m 442 -19 q 155 107 258 -19 q 51 481 51 233 q 109 755 51 644 q 263 922 167 866 q 469 978 358 978 q 633 949 567 978 q 755 867 699 919 l 665 774 q 575 833 621 813 q 474 852 530 852 q 349 816 406 852 q 256 699 291 781 q 220 480 220 617 q 278 193 220 279 q 449 107 335 107 q 608 147 534 107 l 608 411 l 445 411 l 428 534 l 764 534 l 764 69 q 619 6 696 31 q 442 -19 542 -19 z "},"Ԏ":{"ha":833,"x_min":19,"x_max":794,"o":"m 499 -19 q 376 11 432 -19 q 288 99 321 40 q 256 248 256 158 l 256 443 l 255 443 l 255 828 l 19 828 l 19 958 l 683 958 l 667 828 l 416 828 l 416 238 q 440 134 416 166 q 505 102 463 102 q 572 125 542 102 q 621 203 603 149 q 639 350 639 258 q 637 441 639 399 q 632 526 635 483 l 788 526 q 793 443 791 486 q 794 351 794 400 q 752 140 794 222 q 643 20 710 58 q 499 -19 575 -19 z "},"Ԑ":{"ha":833,"x_min":71,"x_max":799,"o":"m 446 978 q 627 947 547 978 q 778 857 708 917 l 694 768 q 586 831 644 808 q 454 854 528 854 q 318 819 372 854 q 264 715 264 783 q 319 608 264 642 q 453 574 374 574 l 613 574 l 594 449 l 447 449 q 296 409 354 449 q 238 281 238 369 q 294 154 238 201 q 451 107 351 107 q 591 132 527 107 q 712 203 656 157 l 799 118 q 644 17 735 53 q 444 -19 553 -19 q 245 19 329 -19 q 116 124 162 57 q 71 277 71 190 q 103 401 71 351 q 189 481 135 452 q 308 517 242 510 q 160 582 217 532 q 102 717 102 632 q 146 853 102 795 q 268 945 190 912 q 446 978 345 978 z "},"Ԓ":{"ha":833,"x_min":6,"x_max":734,"o":"m 734 958 l 734 0 l 573 0 l 573 828 l 356 828 l 329 594 q 298 365 315 459 q 261 209 281 272 q 214 105 240 146 q 153 35 188 64 q 73 -20 118 6 l 6 92 q 57 140 34 114 q 100 215 80 166 q 137 350 119 263 q 171 581 154 438 l 215 958 l 734 958 m 503 -301 q 405 -285 446 -301 q 335 -246 365 -268 l 395 -148 q 439 -169 418 -161 q 492 -178 460 -178 q 552 -154 531 -178 q 573 -78 573 -131 l 573 1 l 734 1 l 734 -66 q 672 -242 734 -183 q 503 -301 610 -301 z "},"Ԕ":{"ha":833,"x_min":-6,"x_max":844,"o":"m 135 958 l 438 958 l 561 610 l 683 958 l 822 958 l 645 515 l 844 0 l 699 0 l 555 408 l 416 0 l 276 0 l 467 511 l 341 836 l 264 836 l 244 538 q 220 293 234 388 q 186 142 206 199 q 137 49 166 85 q 68 -20 108 13 l -6 82 q 32 128 16 102 q 61 205 49 155 q 85 342 74 254 q 106 573 96 430 l 135 958 z "},"Ԗ":{"ha":833,"x_min":58,"x_max":828,"o":"m 58 0 l 58 958 l 251 958 q 468 878 390 958 q 546 660 546 799 l 679 958 l 822 958 l 602 499 l 828 0 l 665 0 l 468 435 q 376 367 430 392 q 257 342 323 342 l 206 342 l 206 0 l 58 0 m 254 840 l 206 840 l 206 463 l 249 463 q 361 506 316 463 q 407 656 407 549 q 366 795 407 750 q 254 840 324 840 z "},"Ԙ":{"ha":833,"x_min":6,"x_max":831,"o":"m 6 0 l 183 404 q 64 507 105 443 q 24 665 24 572 q 65 820 24 754 q 183 922 107 886 q 360 958 258 958 l 823 958 l 805 838 l 551 838 l 551 547 l 759 547 l 759 427 l 551 427 l 551 121 l 831 121 l 831 0 l 398 0 l 398 371 l 322 371 l 176 0 l 6 0 m 334 489 l 398 489 l 398 841 l 351 841 q 229 797 274 841 q 185 664 185 752 q 226 531 185 573 q 334 489 268 489 z "},"Ԛ":{"ha":833,"x_min":56,"x_max":844,"o":"m 780 479 q 736 217 780 331 q 580 44 692 103 q 747 -26 685 24 q 844 -185 808 -76 l 695 -240 q 630 -117 666 -167 q 540 -41 594 -67 q 403 -15 486 -15 q 212 45 289 -15 q 95 216 135 106 q 56 478 56 327 q 97 738 56 626 q 218 914 138 851 q 418 978 298 978 q 618 916 538 978 q 739 742 699 854 q 780 479 780 630 m 613 479 q 568 758 613 665 q 418 851 524 851 q 268 757 312 851 q 224 478 224 663 q 269 200 224 292 q 418 107 315 107 q 568 200 524 107 q 613 479 613 294 z "},"Ԝ":{"ha":833,"x_min":3,"x_max":831,"o":"m 831 958 l 698 0 l 510 0 l 415 709 l 317 0 l 125 0 l 3 958 l 158 958 l 234 156 l 335 847 l 501 847 l 597 156 l 687 958 l 831 958 z "},"Ԟ":{"ha":833,"x_min":104,"x_max":822,"o":"m 367 440 l 265 440 l 265 0 l 104 0 l 104 958 l 265 958 l 265 565 l 367 565 l 477 729 l 324 817 l 377 910 l 536 818 l 630 958 l 795 958 l 657 749 l 801 666 l 748 574 l 598 660 l 502 514 l 822 0 l 637 0 l 367 440 z "},"Ԡ":{"ha":833,"x_min":-15,"x_max":809,"o":"m 58 -20 l -15 82 q 23 128 6 102 q 52 205 39 155 q 75 342 65 254 q 97 573 86 430 l 125 958 l 505 958 l 505 581 q 561 617 530 603 q 633 631 592 631 q 763 574 717 631 q 809 428 809 516 l 809 -74 q 749 -243 809 -185 q 598 -301 688 -301 q 500 -285 540 -301 q 431 -246 460 -268 l 488 -156 q 532 -178 510 -169 q 586 -187 553 -187 q 646 -163 625 -187 q 667 -87 667 -139 l 667 413 q 595 508 667 508 q 505 469 549 508 l 505 0 l 364 0 l 364 840 l 254 840 l 234 538 q 210 293 224 388 q 176 142 197 199 q 127 49 156 85 q 58 -20 98 13 z "},"Ԣ":{"ha":833,"x_min":35,"x_max":818,"o":"m 351 0 l 351 435 l 179 435 l 179 0 l 35 0 l 35 958 l 179 958 l 179 558 l 351 558 l 351 958 l 495 958 l 495 581 q 553 617 521 603 q 628 631 586 631 q 768 573 717 631 q 818 417 818 514 l 818 -74 q 757 -243 818 -185 q 603 -301 697 -301 q 505 -285 545 -301 q 435 -246 464 -268 l 493 -154 q 537 -176 515 -167 q 592 -185 559 -185 q 652 -162 631 -185 q 673 -85 673 -138 l 673 413 q 592 508 673 508 q 495 468 542 508 l 495 0 l 351 0 z "},"Ҍ":{"ha":833,"x_min":42,"x_max":795,"o":"m 153 0 l 153 733 l 42 733 l 42 835 l 153 835 l 153 958 l 315 958 l 315 835 l 490 835 l 490 733 l 315 733 l 315 603 l 433 603 q 695 531 596 603 q 795 312 795 458 q 748 135 795 203 q 617 33 700 66 q 427 0 534 0 l 153 0 m 315 124 l 431 124 q 571 164 515 124 q 626 309 626 204 q 574 442 626 403 q 431 482 521 482 l 315 482 l 315 124 z "},"Ҏ":{"ha":833,"x_min":133,"x_max":784,"o":"m 784 656 q 749 506 784 569 q 651 403 713 443 l 756 233 l 646 233 l 566 365 q 410 342 495 342 l 294 342 l 294 0 l 133 0 l 133 958 l 399 958 q 682 884 579 958 q 784 656 784 810 m 382 665 l 492 665 l 581 520 q 619 654 619 565 q 563 796 619 754 q 413 838 506 838 l 294 838 l 294 465 l 415 465 q 499 474 464 465 l 382 665 z "},"а":{"ha":833,"x_min":78,"x_max":740,"o":"m 684 180 q 697 117 684 136 q 740 88 710 97 l 705 -18 q 611 12 651 -12 q 553 83 572 35 q 451 7 513 32 q 319 -19 389 -19 q 142 44 207 -19 q 78 209 78 107 q 168 388 78 325 q 426 450 258 450 l 531 450 l 531 498 q 488 600 531 569 q 368 631 445 631 q 281 622 332 631 q 173 593 229 613 l 135 703 q 269 741 203 728 q 392 753 335 753 q 611 688 539 753 q 684 507 684 622 l 684 180 m 366 96 q 458 121 413 96 q 531 191 503 146 l 531 353 l 445 353 q 288 316 335 353 q 241 216 241 280 q 366 96 241 96 z "},"б":{"ha":833,"x_min":88,"x_max":744,"o":"m 608 1047 l 669 938 q 571 883 624 908 q 437 831 518 859 q 340 783 379 811 q 279 705 301 756 q 247 566 256 655 q 341 656 285 624 q 472 688 398 688 q 613 647 551 688 q 709 530 674 606 q 744 346 744 453 q 702 146 744 228 q 586 23 660 65 q 416 -19 512 -19 q 244 26 318 -19 q 130 164 171 70 q 88 407 88 258 q 112 664 88 559 q 196 836 135 769 q 367 939 256 902 q 462 972 422 957 q 535 1005 501 988 q 608 1047 569 1022 m 251 358 q 294 167 251 233 q 416 101 337 101 q 500 121 462 101 q 560 193 538 141 q 582 342 582 245 q 543 518 582 467 q 435 569 503 569 q 331 538 379 569 q 251 449 283 506 l 251 358 z "},"в":{"ha":833,"x_min":138,"x_max":753,"o":"m 407 753 q 631 703 546 753 q 717 560 717 653 q 681 460 717 500 q 567 400 646 419 q 753 218 753 378 q 709 92 753 140 q 593 22 666 44 q 433 0 521 0 l 138 0 l 138 725 q 269 745 203 737 q 407 753 335 753 m 407 642 q 346 640 372 642 q 293 634 320 638 l 293 439 l 422 439 q 524 462 487 439 q 562 542 562 485 q 523 618 562 594 q 407 642 485 642 m 293 113 l 429 113 q 592 224 592 113 q 544 315 592 291 q 432 339 496 339 l 293 339 l 293 113 z "},"г":{"ha":833,"x_min":201,"x_max":736,"o":"m 356 0 l 201 0 l 201 733 l 736 733 l 718 609 l 356 609 l 356 0 z "},"ѓ":{"ha":833,"x_min":201,"x_max":736,"o":"m 356 0 l 201 0 l 201 733 l 736 733 l 718 609 l 356 609 l 356 0 m 584 1127 l 649 1002 l 345 880 l 299 960 l 584 1127 z "},"ґ":{"ha":833,"x_min":201,"x_max":736,"o":"m 356 0 l 201 0 l 201 733 l 586 733 l 586 928 l 736 928 l 736 733 l 718 609 l 356 609 l 356 0 z "},"д":{"ha":833,"x_min":30,"x_max":763,"o":"m 30 121 l 82 121 q 132 187 112 147 q 165 300 152 227 q 188 497 178 372 l 206 733 l 703 733 l 703 121 l 763 121 l 763 -219 l 640 -219 l 617 0 l 175 0 l 152 -219 l 30 -219 l 30 121 m 552 617 l 344 617 l 338 506 q 315 305 328 378 q 277 191 301 231 q 213 121 253 150 l 552 121 l 552 617 z "},"е":{"ha":833,"x_min":92,"x_max":742,"o":"m 253 317 q 316 153 260 203 q 453 102 373 102 q 552 119 506 102 q 645 166 599 135 l 713 73 q 592 6 661 31 q 445 -19 524 -19 q 252 30 331 -19 q 132 165 173 78 q 92 366 92 252 q 132 564 92 476 q 247 702 172 651 q 426 753 322 753 q 657 655 572 753 q 742 386 742 557 q 741 349 742 367 q 739 317 740 331 l 253 317 m 428 638 q 307 585 355 638 q 252 423 259 533 l 592 423 q 548 582 590 526 q 428 638 506 638 z "},"ѐ":{"ha":833,"x_min":92,"x_max":742,"o":"m 253 317 q 316 153 260 203 q 453 102 373 102 q 552 119 506 102 q 645 166 599 135 l 713 73 q 592 6 661 31 q 445 -19 524 -19 q 252 30 331 -19 q 132 165 173 78 q 92 366 92 252 q 132 564 92 476 q 247 702 172 651 q 426 753 322 753 q 657 655 572 753 q 742 386 742 557 q 741 349 742 367 q 739 317 740 331 l 253 317 m 428 638 q 307 585 355 638 q 252 423 259 533 l 592 423 q 548 582 590 526 q 428 638 506 638 m 556 864 l 257 994 l 328 1118 l 602 946 l 556 864 z "},"ё":{"ha":833,"x_min":92,"x_max":742,"o":"m 253 317 q 316 153 260 203 q 453 102 373 102 q 552 119 506 102 q 645 166 599 135 l 713 73 q 592 6 661 31 q 445 -19 524 -19 q 252 30 331 -19 q 132 165 173 78 q 92 366 92 252 q 132 564 92 476 q 247 702 172 651 q 426 753 322 753 q 657 655 572 753 q 742 386 742 557 q 741 349 742 367 q 739 317 740 331 l 253 317 m 428 638 q 307 585 355 638 q 252 423 259 533 l 592 423 q 548 582 590 526 q 428 638 506 638 m 279 894 q 214 920 240 894 q 188 983 188 945 q 214 1045 188 1020 q 279 1071 240 1071 q 343 1045 317 1071 q 369 983 369 1020 q 343 920 369 945 q 279 894 317 894 m 578 894 q 515 920 541 894 q 489 983 489 945 q 515 1045 489 1020 q 578 1071 541 1071 q 643 1045 617 1071 q 669 983 669 1020 q 643 920 669 945 q 578 894 617 894 z "},"ж":{"ha":833,"x_min":14,"x_max":819,"o":"m 356 0 l 356 335 l 294 335 l 160 0 l 14 0 l 183 394 l 24 733 l 170 733 l 293 438 l 356 438 l 356 733 l 477 733 l 477 438 l 540 438 l 667 733 l 809 733 l 650 394 l 819 0 l 673 0 l 538 335 l 477 335 l 477 0 l 356 0 z "},"з":{"ha":833,"x_min":60,"x_max":728,"o":"m 254 438 l 386 438 q 492 465 454 438 q 530 537 530 492 q 489 612 530 588 q 375 637 449 637 q 262 621 320 637 q 156 576 204 606 l 86 663 q 223 729 144 706 q 383 753 301 753 q 539 730 469 753 q 648 663 608 707 q 689 551 689 618 q 645 450 689 490 q 530 390 601 410 q 671 339 614 381 q 728 217 728 297 q 683 87 728 140 q 559 8 638 35 q 381 -19 481 -19 q 193 10 272 -19 q 60 81 115 39 l 131 176 q 245 120 185 140 q 382 101 305 101 q 518 133 473 101 q 563 219 563 165 q 397 325 563 325 l 244 325 l 254 438 z "},"и":{"ha":833,"x_min":124,"x_max":710,"o":"m 710 733 l 710 0 l 559 0 l 559 301 q 565 452 559 381 q 582 578 572 524 l 297 0 l 124 0 l 124 733 l 274 733 l 274 431 q 268 282 274 356 q 251 158 262 209 l 533 733 l 710 733 z "},"й":{"ha":833,"x_min":124,"x_max":710,"o":"m 710 733 l 710 0 l 559 0 l 559 301 q 565 452 559 381 q 582 578 572 524 l 297 0 l 124 0 l 124 733 l 274 733 l 274 431 q 268 282 274 356 q 251 158 262 209 l 533 733 l 710 733 m 415 880 q 264 930 322 880 q 197 1058 206 980 l 293 1077 q 415 994 318 994 q 540 1077 515 994 l 635 1058 q 568 930 627 980 q 415 880 508 880 z "},"ѝ":{"ha":833,"x_min":124,"x_max":710,"o":"m 710 733 l 710 0 l 559 0 l 559 301 q 565 452 559 381 q 582 578 572 524 l 297 0 l 124 0 l 124 733 l 274 733 l 274 431 q 268 282 274 356 q 251 158 262 209 l 533 733 l 710 733 m 543 864 l 244 994 l 316 1118 l 590 946 l 543 864 z "},"ҋ":{"ha":833,"x_min":115,"x_max":803,"o":"m 397 880 q 246 930 304 880 q 179 1058 188 980 l 275 1077 q 397 994 300 994 q 522 1077 497 994 l 617 1058 q 550 930 609 980 q 397 880 490 880 m 803 131 l 694 -219 l 567 -219 l 618 0 l 534 0 l 534 301 q 540 473 534 397 q 554 590 547 549 l 287 0 l 115 0 l 115 733 l 263 733 l 263 431 q 256 268 263 347 q 238 141 249 189 l 510 733 l 683 733 l 683 131 l 803 131 z "},"к":{"ha":833,"x_min":129,"x_max":799,"o":"m 129 0 l 129 733 l 285 733 l 285 443 l 415 443 l 606 733 l 768 733 l 538 394 l 799 0 l 624 0 l 411 329 l 285 329 l 285 0 l 129 0 z "},"ќ":{"ha":833,"x_min":129,"x_max":799,"o":"m 129 0 l 129 733 l 285 733 l 285 443 l 415 443 l 606 733 l 768 733 l 538 394 l 799 0 l 624 0 l 411 329 l 285 329 l 285 0 l 129 0 m 557 1127 l 622 1002 l 318 880 l 272 960 l 557 1127 z "},"л":{"ha":833,"x_min":44,"x_max":717,"o":"m 717 733 l 717 0 l 562 0 l 562 613 l 333 613 l 320 458 q 299 255 313 335 q 261 124 285 174 q 201 42 238 74 q 109 -20 164 9 l 44 79 q 90 117 69 96 q 125 176 110 138 q 152 279 141 213 q 172 451 164 344 l 194 733 l 717 733 z "},"м":{"ha":833,"x_min":47,"x_max":786,"o":"m 734 733 l 786 0 l 642 0 l 621 317 q 616 447 617 381 q 619 586 615 513 l 613 586 l 485 121 l 352 121 l 211 586 l 206 586 q 209 451 210 522 q 205 316 208 381 l 188 0 l 47 0 l 98 733 l 283 733 l 420 251 l 545 733 l 734 733 z "},"н":{"ha":833,"x_min":124,"x_max":710,"o":"m 554 0 l 554 314 l 279 314 l 279 0 l 124 0 l 124 733 l 279 733 l 279 435 l 554 435 l 554 733 l 710 733 l 710 0 l 554 0 z "},"о":{"ha":833,"x_min":85,"x_max":748,"o":"m 417 753 q 663 648 578 753 q 748 368 748 543 q 709 165 748 251 q 597 30 671 78 q 417 -19 523 -19 q 171 85 256 -19 q 85 367 85 189 q 124 568 85 481 q 237 704 163 655 q 417 753 311 753 m 417 632 q 291 568 333 632 q 249 367 249 503 q 291 166 249 230 q 417 101 333 101 q 543 166 501 101 q 585 368 585 231 q 543 568 585 503 q 417 632 501 632 z "},"п":{"ha":833,"x_min":124,"x_max":710,"o":"m 555 0 l 555 613 l 278 613 l 278 0 l 124 0 l 124 733 l 710 733 l 710 0 l 555 0 z "},"р":{"ha":833,"x_min":124,"x_max":748,"o":"m 481 753 q 637 705 578 753 q 722 571 695 658 q 748 368 748 485 q 716 169 748 256 q 621 31 684 81 q 465 -19 558 -19 q 279 63 350 -19 l 279 -282 l 124 -299 l 124 733 l 259 733 l 269 639 q 365 724 310 695 q 481 753 420 753 m 438 633 q 346 601 386 633 q 279 528 306 570 l 279 185 q 424 103 334 103 q 544 166 503 103 q 585 367 585 229 q 548 570 585 508 q 438 633 512 633 z "},"с":{"ha":833,"x_min":115,"x_max":730,"o":"m 477 109 q 573 127 528 109 q 658 173 617 145 l 730 73 q 614 7 682 32 q 472 -19 545 -19 q 280 29 360 -19 q 157 162 199 76 q 115 363 115 248 q 158 563 115 475 q 281 702 201 651 q 475 753 362 753 q 729 665 622 753 l 658 567 q 569 612 615 597 q 478 628 524 628 q 335 564 390 628 q 281 363 281 500 q 336 167 281 226 q 477 109 392 109 z "},"т":{"ha":833,"x_min":79,"x_max":763,"o":"m 763 733 l 744 612 l 494 612 l 494 0 l 339 0 l 339 612 l 79 612 l 79 733 l 763 733 z "},"у":{"ha":833,"x_min":68,"x_max":765,"o":"m 765 733 l 513 -3 q 440 -150 484 -86 q 326 -252 395 -214 q 153 -300 256 -291 l 133 -183 q 252 -149 208 -172 q 322 -90 296 -126 q 368 0 348 -53 l 315 0 l 68 733 l 233 733 l 418 108 l 606 733 l 765 733 z "},"ў":{"ha":833,"x_min":68,"x_max":765,"o":"m 765 733 l 513 -3 q 440 -150 484 -86 q 326 -252 395 -214 q 153 -300 256 -291 l 133 -183 q 252 -149 208 -172 q 322 -90 296 -126 q 368 0 348 -53 l 315 0 l 68 733 l 233 733 l 418 108 l 606 733 l 765 733 m 415 880 q 264 930 322 880 q 197 1058 206 980 l 293 1077 q 415 994 318 994 q 540 1077 515 994 l 635 1058 q 568 930 627 980 q 415 880 508 880 z "},"ф":{"ha":833,"x_min":32,"x_max":801,"o":"m 354 1045 l 479 1029 l 479 681 q 543 736 509 719 q 615 753 576 753 q 730 705 690 753 q 786 571 770 658 q 801 367 801 484 q 752 86 801 192 q 601 -19 702 -19 q 479 54 531 -19 l 479 -283 l 354 -299 l 354 53 q 296 -1 328 17 q 229 -19 263 -19 q 81 86 129 -19 q 32 367 32 192 q 50 571 32 484 q 110 705 68 658 q 226 753 153 753 q 354 683 301 753 l 354 1045 m 267 639 q 201 577 222 639 q 181 367 181 515 q 201 158 181 221 q 267 95 222 95 q 312 110 293 95 q 354 156 331 126 l 354 583 q 314 625 332 610 q 267 639 295 639 m 574 639 q 524 625 545 639 q 479 582 503 610 l 479 156 q 520 110 501 126 q 565 95 539 95 q 631 157 609 95 q 653 367 653 219 q 636 577 653 515 q 574 639 618 639 z "},"х":{"ha":833,"x_min":60,"x_max":774,"o":"m 232 0 l 60 0 l 323 387 l 89 733 l 268 733 l 418 475 l 568 733 l 739 733 l 510 393 l 774 0 l 591 0 l 411 299 l 232 0 z "},"ч":{"ha":833,"x_min":99,"x_max":699,"o":"m 699 733 l 699 0 l 543 0 l 543 297 q 445 240 503 261 q 320 219 388 219 q 155 278 211 219 q 99 440 99 336 l 99 733 l 254 733 l 254 458 q 283 366 254 394 q 369 338 313 338 q 464 357 415 338 q 543 408 513 376 l 543 733 l 699 733 z "},"ц":{"ha":833,"x_min":110,"x_max":803,"o":"m 542 733 l 697 733 l 697 0 l 110 0 l 110 733 l 265 733 l 265 122 l 542 122 l 542 733 m 803 121 l 803 -219 l 681 -219 l 658 0 l 607 0 l 598 121 l 803 121 z "},"ш":{"ha":833,"x_min":55,"x_max":778,"o":"m 778 733 l 778 0 l 55 0 l 55 733 l 194 733 l 194 122 l 352 122 l 352 733 l 481 733 l 481 122 l 639 122 l 639 733 l 778 733 z "},"щ":{"ha":833,"x_min":55,"x_max":867,"o":"m 778 733 l 778 0 l 55 0 l 55 733 l 194 733 l 194 122 l 352 122 l 352 733 l 481 733 l 481 122 l 639 122 l 639 733 l 778 733 m 867 121 l 867 -219 l 744 -219 l 722 0 l 670 0 l 661 121 l 867 121 z "},"џ":{"ha":833,"x_min":124,"x_max":710,"o":"m 555 733 l 710 733 l 710 0 l 124 0 l 124 733 l 278 733 l 278 122 l 555 122 l 555 733 m 488 121 l 488 -219 l 366 -219 l 343 0 l 292 0 l 283 121 l 488 121 z "},"ь":{"ha":833,"x_min":155,"x_max":753,"o":"m 310 733 l 310 507 l 429 507 q 677 441 602 507 q 753 256 753 374 q 710 107 753 163 q 598 25 668 51 q 447 0 528 0 l 155 0 l 155 733 l 310 733 m 428 396 l 310 396 l 310 115 l 440 115 q 549 145 508 115 q 590 256 590 176 q 554 361 590 327 q 428 396 519 396 z "},"ъ":{"ha":833,"x_min":35,"x_max":771,"o":"m 354 733 l 354 506 l 429 506 q 681 447 592 506 q 771 257 771 388 q 729 107 771 164 q 613 25 688 51 q 439 0 538 0 l 199 0 l 199 618 l 35 618 l 35 733 l 354 733 m 439 395 l 354 395 l 354 115 l 441 115 q 561 144 514 115 q 608 258 608 173 q 564 364 608 333 q 439 395 520 395 z "},"ы":{"ha":833,"x_min":67,"x_max":766,"o":"m 207 733 l 207 501 l 243 501 q 477 442 394 501 q 560 256 560 384 q 476 62 560 124 q 252 0 393 0 l 67 0 l 67 733 l 207 733 m 766 733 l 766 0 l 626 0 l 626 733 l 766 733 m 251 398 l 207 398 l 207 108 l 253 108 q 368 140 326 108 q 410 257 410 172 q 372 365 410 333 q 251 398 333 398 z "},"љ":{"ha":833,"x_min":-1,"x_max":827,"o":"m 514 733 l 514 499 l 531 499 q 751 440 676 499 q 827 255 827 381 q 748 63 827 126 q 538 0 669 0 l 377 0 l 377 621 l 254 621 l 247 445 q 229 249 242 326 q 194 122 217 171 q 136 40 171 72 q 51 -20 101 8 l -1 81 q 36 116 19 96 q 68 174 53 137 q 92 277 82 212 q 107 447 102 342 l 122 733 l 514 733 m 534 397 l 514 397 l 514 107 l 537 107 q 643 138 607 107 q 680 256 680 169 q 646 364 680 331 q 534 397 612 397 z "},"њ":{"ha":833,"x_min":80,"x_max":831,"o":"m 518 733 l 518 464 l 535 464 q 754 409 677 464 q 831 233 831 355 q 751 54 831 108 q 535 0 671 0 l 381 0 l 381 359 l 219 359 l 219 0 l 80 0 l 80 733 l 219 733 l 219 464 l 381 464 l 381 733 l 518 733 m 541 360 l 518 360 l 518 109 l 536 109 q 646 132 606 109 q 685 234 685 155 q 650 333 685 305 q 541 360 615 360 z "},"ѕ":{"ha":833,"x_min":89,"x_max":714,"o":"m 390 101 q 506 127 463 101 q 549 199 549 153 q 537 249 549 228 q 487 288 524 270 q 373 326 449 306 q 246 370 301 344 q 162 437 192 396 q 132 542 132 478 q 211 695 132 637 q 425 753 290 753 q 586 728 517 753 q 703 668 655 704 l 638 570 q 544 617 595 599 q 429 635 493 635 q 323 613 355 635 q 290 553 290 590 q 307 508 290 526 q 363 474 323 490 q 477 438 403 458 q 602 392 549 418 q 684 322 655 365 q 714 209 714 278 q 668 80 714 130 q 549 5 622 29 q 390 -19 475 -19 q 214 11 288 -19 q 89 85 140 40 l 172 179 q 270 123 215 144 q 390 101 326 101 z "},"є":{"ha":833,"x_min":115,"x_max":730,"o":"m 474 753 q 730 667 624 753 l 660 574 q 478 634 572 634 q 343 584 397 634 q 275 430 288 533 l 593 430 l 593 321 l 274 321 q 339 153 283 205 q 478 102 396 102 q 573 117 529 102 q 661 163 616 132 l 730 68 q 610 3 678 26 q 474 -19 541 -19 q 280 29 360 -19 q 157 162 199 76 q 115 363 115 248 q 158 563 115 475 q 281 702 201 651 q 474 753 361 753 z "},"э":{"ha":833,"x_min":115,"x_max":730,"o":"m 385 753 q 576 705 499 753 q 691 570 653 656 q 730 369 730 484 q 689 167 730 254 q 569 30 648 79 q 374 -19 490 -19 q 233 4 299 -19 q 115 72 167 26 l 188 164 q 372 102 271 102 q 509 153 456 102 q 571 321 562 204 l 253 321 l 253 430 l 569 430 q 510 584 559 535 q 378 634 460 634 q 193 574 277 634 l 123 667 q 385 753 232 753 z "},"і":{"ha":833,"x_min":149,"x_max":724,"o":"m 416 1092 q 490 1065 462 1092 q 518 995 518 1037 q 490 925 518 953 q 416 897 462 897 q 343 925 372 897 q 315 995 315 953 q 343 1065 315 1037 q 416 1092 372 1092 m 524 733 l 524 114 l 724 114 l 724 0 l 149 0 l 149 114 l 369 114 l 369 619 l 156 619 l 156 733 l 524 733 z "},"ї":{"ha":833,"x_min":149,"x_max":724,"o":"m 524 733 l 524 114 l 724 114 l 724 0 l 149 0 l 149 114 l 369 114 l 369 619 l 156 619 l 156 733 l 524 733 m 267 894 q 202 920 228 894 q 176 983 176 945 q 202 1045 176 1020 q 267 1071 228 1071 q 331 1045 305 1071 q 357 983 357 1020 q 331 920 357 945 q 267 894 305 894 m 567 894 q 503 920 529 894 q 477 983 477 945 q 503 1045 477 1020 q 567 1071 529 1071 q 631 1045 605 1071 q 658 983 658 1020 q 631 920 658 945 q 567 894 605 894 z "},"ј":{"ha":833,"x_min":119,"x_max":633,"o":"m 511 1092 q 585 1065 556 1092 q 613 995 613 1037 q 585 925 613 953 q 511 897 556 897 q 438 925 466 897 q 410 995 410 953 q 438 1065 410 1037 q 511 1092 466 1092 m 633 733 l 633 154 q 576 -73 633 17 q 410 -217 519 -163 q 144 -299 301 -272 l 119 -180 q 309 -122 228 -159 q 433 -22 390 -85 q 477 144 477 42 l 477 619 l 188 619 l 188 733 l 633 733 z "},"ћ":{"ha":833,"x_min":21,"x_max":711,"o":"m 499 934 l 499 828 l 279 828 l 279 644 q 383 725 324 698 q 506 753 442 753 q 660 695 610 753 q 711 535 711 638 l 711 0 l 556 0 l 556 510 q 531 605 556 576 q 450 634 506 634 q 353 600 398 634 q 279 524 309 567 l 279 0 l 124 0 l 124 828 l 21 828 l 21 934 l 124 934 l 124 1026 l 279 1043 l 279 934 l 499 934 z "},"ю":{"ha":833,"x_min":65,"x_max":799,"o":"m 541 753 q 737 649 676 753 q 799 368 799 546 q 773 164 799 251 q 690 29 747 77 q 541 -19 633 -19 q 402 24 456 -19 q 320 141 348 66 q 289 316 293 217 l 206 316 l 206 0 l 65 0 l 65 733 l 206 733 l 206 432 l 289 432 q 358 666 298 578 q 541 753 419 753 m 541 638 q 456 573 478 638 q 434 367 434 507 q 455 165 434 235 q 541 96 476 96 q 630 165 608 96 q 651 368 651 235 q 627 572 651 506 q 541 638 603 638 z "},"я":{"ha":833,"x_min":56,"x_max":695,"o":"m 56 0 l 233 308 q 104 503 104 369 q 185 673 104 613 q 418 733 266 733 l 695 733 l 695 0 l 540 0 l 540 274 l 376 274 l 226 0 l 56 0 m 415 382 l 540 382 l 540 623 l 415 623 q 267 506 267 623 q 302 412 267 442 q 415 382 337 382 z "},"ђ":{"ha":833,"x_min":21,"x_max":711,"o":"m 279 1043 l 279 934 l 499 934 l 499 828 l 279 828 l 279 646 q 383 725 324 697 q 506 753 442 753 q 660 695 610 753 q 711 535 711 638 l 711 65 q 683 -116 711 -49 q 600 -224 655 -183 q 466 -299 546 -265 l 410 -185 q 490 -139 457 -163 q 539 -72 522 -114 q 556 44 556 -31 l 556 521 q 530 607 556 581 q 450 634 503 634 q 353 600 398 634 q 279 524 309 567 l 279 0 l 124 0 l 124 828 l 21 828 l 21 934 l 124 934 l 124 1026 l 279 1043 z "},"ѡ":{"ha":833,"x_min":31,"x_max":803,"o":"m 731 733 q 780 554 758 656 q 803 333 803 453 q 749 73 803 165 q 590 -19 695 -19 q 474 19 518 -19 q 415 137 430 56 q 242 -19 378 -19 q 83 71 136 -19 q 31 333 31 161 q 52 555 31 453 q 101 733 74 657 l 231 733 q 186 528 197 621 q 175 338 175 436 q 193 165 175 228 q 265 101 212 101 q 335 163 318 101 q 352 322 352 224 l 352 488 l 481 508 l 481 324 q 499 159 481 217 q 569 101 516 101 q 641 165 624 101 q 658 338 658 228 q 645 529 658 436 q 600 733 633 622 l 731 733 z "},"ѣ":{"ha":833,"x_min":69,"x_max":761,"o":"m 333 919 l 333 750 l 517 750 l 501 644 l 333 644 l 333 501 l 419 501 q 672 442 582 501 q 761 253 761 383 q 671 59 761 118 q 433 0 581 0 l 177 0 l 177 644 l 69 644 l 69 750 l 177 750 l 177 902 l 333 919 m 428 389 l 333 389 l 333 115 l 431 115 q 551 143 504 115 q 597 255 597 171 q 554 358 597 327 q 428 389 510 389 z "},"ѥ":{"ha":833,"x_min":88,"x_max":806,"o":"m 231 733 l 231 432 l 313 432 q 359 598 322 526 q 458 712 395 671 q 610 753 522 753 q 716 733 668 753 q 806 673 764 713 l 736 592 q 678 626 708 613 q 612 638 649 638 q 503 585 541 638 q 456 430 466 532 l 702 430 l 702 321 l 455 321 q 501 149 458 201 q 610 97 544 97 q 678 111 649 97 q 733 148 707 124 l 803 68 q 711 4 763 26 q 605 -19 659 -19 q 397 72 473 -19 q 310 316 321 163 l 231 316 l 231 0 l 88 0 l 88 733 l 231 733 z "},"ѧ":{"ha":833,"x_min":40,"x_max":794,"o":"m 512 733 l 794 0 l 642 0 l 544 272 l 474 272 l 474 0 l 353 0 l 353 272 l 285 272 l 189 0 l 40 0 l 324 733 l 512 733 m 414 637 l 324 383 l 505 383 l 414 637 z "},"ѩ":{"ha":833,"x_min":52,"x_max":840,"o":"m 52 0 l 52 733 l 188 733 l 188 380 l 344 380 l 447 733 l 625 733 l 840 0 l 709 0 l 635 271 l 587 271 l 587 0 l 478 0 l 478 271 l 435 271 l 362 0 l 234 0 l 313 271 l 188 271 l 188 0 l 52 0 m 535 639 l 465 380 l 605 380 l 535 639 z "},"ѫ":{"ha":833,"x_min":22,"x_max":812,"o":"m 22 0 l 171 416 l 288 416 l 126 655 l 126 733 l 701 733 l 701 655 l 538 416 l 665 416 l 812 0 l 676 0 l 577 307 l 488 307 l 488 0 l 347 0 l 347 307 l 258 307 l 160 0 l 22 0 m 415 416 l 549 631 l 279 631 l 415 416 z "},"ѭ":{"ha":833,"x_min":30,"x_max":860,"o":"m 30 0 l 30 733 l 166 733 l 166 418 l 415 418 l 273 655 l 273 733 l 790 733 l 790 655 l 649 418 l 735 418 l 860 0 l 728 0 l 649 308 l 601 308 l 601 0 l 473 0 l 473 308 l 424 308 l 342 0 l 210 0 l 306 308 l 166 308 l 166 0 l 30 0 m 535 418 l 650 635 l 417 635 l 535 418 z "},"ѯ":{"ha":833,"x_min":106,"x_max":730,"o":"m 299 -303 q 156 -217 206 -266 q 106 -103 106 -168 q 162 7 106 -34 q 348 69 218 49 q 513 111 464 88 q 563 192 563 135 q 535 262 563 242 q 457 283 507 283 l 223 283 l 223 387 l 496 612 l 110 612 l 110 733 l 689 733 l 689 619 l 403 393 l 486 393 q 664 342 598 393 q 730 190 730 292 q 694 72 730 118 q 592 -1 658 26 q 441 -42 527 -28 q 329 -64 367 -53 q 277 -87 291 -74 q 264 -119 264 -100 q 286 -164 264 -142 q 350 -206 308 -185 l 299 -303 m 578 1110 l 640 1040 l 451 865 l 351 865 l 159 1040 l 224 1110 l 401 982 l 578 1110 z "},"ѱ":{"ha":833,"x_min":51,"x_max":796,"o":"m 484 733 l 484 102 q 591 142 555 112 q 640 227 627 173 q 653 363 653 282 q 644 538 653 446 q 618 733 635 631 l 759 733 q 786 553 776 644 q 796 353 796 462 q 723 99 796 192 q 484 -12 649 6 l 484 -282 l 351 -299 l 351 -12 q 176 37 242 -3 q 80 139 110 77 q 51 273 51 200 l 51 733 l 192 733 l 192 281 q 228 156 192 199 q 351 102 264 113 l 351 733 l 484 733 z "},"ѳ":{"ha":833,"x_min":85,"x_max":748,"o":"m 417 753 q 663 648 578 753 q 748 368 748 543 q 709 165 748 251 q 597 30 671 78 q 417 -19 523 -19 q 171 85 256 -19 q 85 367 85 189 q 124 568 85 481 q 237 704 163 655 q 417 753 311 753 m 417 633 q 247 425 260 633 l 586 425 q 417 633 572 633 m 586 319 l 247 319 q 297 152 255 204 q 417 101 340 101 q 535 152 492 101 q 586 319 578 204 z "},"ѵ":{"ha":833,"x_min":59,"x_max":821,"o":"m 308 0 l 59 733 l 228 733 l 401 131 l 544 633 q 607 760 567 722 q 719 799 646 799 q 772 792 747 799 q 821 776 797 786 l 784 669 q 744 676 765 676 q 710 663 723 676 q 688 618 697 650 l 493 0 l 308 0 z "},"ѷ":{"ha":833,"x_min":59,"x_max":821,"o":"m 308 0 l 59 733 l 228 733 l 401 131 l 544 633 q 607 760 567 722 q 719 799 646 799 q 772 792 747 799 q 821 776 797 786 l 784 669 q 744 676 765 676 q 710 663 723 676 q 688 618 697 650 l 493 0 l 308 0 z "},"ѹ":{"ha":833,"x_min":-3,"x_max":844,"o":"m 217 -19 q 50 85 104 -19 q -3 367 -3 189 q 20 568 -3 481 q 93 704 44 655 q 217 753 142 753 q 385 648 333 753 q 436 368 436 543 q 413 165 436 251 q 341 30 390 78 q 217 -19 293 -19 m 423 -300 l 401 -208 q 540 -140 492 -184 q 608 0 589 -95 l 550 0 l 431 733 l 560 733 l 639 108 l 719 733 l 844 733 l 724 6 q 622 -212 700 -140 q 423 -300 543 -284 m 217 83 q 289 150 269 83 q 309 368 309 217 q 289 585 309 518 q 217 652 269 652 q 144 584 165 652 q 124 367 124 517 q 144 150 124 217 q 217 83 164 83 z "},"ғ":{"ha":833,"x_min":119,"x_max":776,"o":"m 396 0 l 240 0 l 240 315 l 119 315 l 119 424 l 240 424 l 240 733 l 776 733 l 758 609 l 396 609 l 396 424 l 565 424 l 565 315 l 396 315 l 396 0 z "},"ҕ":{"ha":833,"x_min":131,"x_max":711,"o":"m 131 0 l 131 733 l 612 733 l 590 615 l 287 615 l 287 383 q 379 455 324 427 q 501 483 433 483 q 653 426 594 483 q 711 260 711 368 l 711 0 l 711 0 l 711 -66 q 650 -242 711 -183 q 483 -301 588 -301 q 384 -285 425 -301 q 315 -246 344 -268 l 375 -152 q 418 -173 397 -165 q 472 -181 440 -181 q 533 -158 510 -181 q 556 -81 556 -135 l 556 1 l 556 1 l 556 248 q 529 338 556 312 q 456 365 502 365 q 361 335 401 365 q 287 265 321 306 l 287 0 l 131 0 z "},"җ":{"ha":833,"x_min":23,"x_max":843,"o":"m 356 0 l 356 335 l 294 335 l 169 0 l 23 0 l 183 394 l 33 733 l 179 733 l 293 438 l 356 438 l 356 733 l 477 733 l 477 438 l 540 438 l 658 733 l 800 733 l 650 394 l 762 121 l 843 121 l 843 -219 l 739 -219 l 716 0 l 664 0 l 538 335 l 477 335 l 477 0 l 356 0 z "},"ҙ":{"ha":833,"x_min":60,"x_max":728,"o":"m 254 438 l 386 438 q 492 465 454 438 q 530 537 530 492 q 489 612 530 588 q 375 637 449 637 q 262 621 320 637 q 156 576 204 606 l 86 663 q 223 729 144 706 q 383 753 301 753 q 539 730 469 753 q 648 663 608 707 q 689 551 689 618 q 645 450 689 490 q 530 390 601 410 q 671 339 614 381 q 728 217 728 297 q 683 87 728 140 q 559 8 638 35 q 381 -19 481 -19 q 193 10 272 -19 q 60 81 115 39 l 131 176 q 245 120 185 140 q 382 101 305 101 q 518 133 473 101 q 563 219 563 165 q 397 325 563 325 l 244 325 l 254 438 m 460 -197 q 427 -153 460 -164 q 337 -143 395 -143 l 351 22 l 447 22 l 447 -74 q 550 -116 517 -81 q 582 -199 582 -151 q 528 -306 582 -268 q 398 -344 475 -344 q 314 -333 353 -344 q 246 -306 274 -322 l 289 -226 q 381 -249 332 -249 q 438 -237 416 -249 q 460 -197 460 -226 z "},"қ":{"ha":833,"x_min":129,"x_max":821,"o":"m 129 0 l 129 733 l 285 733 l 285 443 l 415 443 l 606 733 l 768 733 l 538 394 l 799 0 l 624 0 l 411 329 l 285 329 l 285 0 l 129 0 m 821 121 l 821 -219 l 699 -219 l 676 0 l 624 0 l 615 121 l 821 121 z "},"ҝ":{"ha":833,"x_min":129,"x_max":799,"o":"m 129 0 l 129 733 l 281 733 l 281 439 l 338 439 l 338 599 l 406 599 l 406 439 l 440 439 l 613 733 l 768 733 l 563 395 l 799 0 l 633 0 l 440 334 l 406 334 l 406 165 l 338 165 l 338 334 l 281 334 l 281 0 l 129 0 z "},"ҟ":{"ha":833,"x_min":40,"x_max":793,"o":"m 531 394 l 793 0 l 617 0 l 404 329 l 306 329 l 306 0 l 150 0 l 150 787 l 40 787 l 40 893 l 150 893 l 150 1028 l 306 1045 l 306 893 l 499 893 l 499 787 l 306 787 l 306 443 l 408 443 l 599 733 l 762 733 l 531 394 z "},"ҡ":{"ha":833,"x_min":7,"x_max":822,"o":"m 170 0 l 170 618 l 7 618 l 7 733 l 326 733 l 326 443 l 442 443 l 629 733 l 792 733 l 565 394 l 822 0 l 647 0 l 438 329 l 326 329 l 326 0 l 170 0 z "},"ң":{"ha":833,"x_min":101,"x_max":794,"o":"m 531 0 l 531 314 l 256 314 l 256 0 l 101 0 l 101 733 l 256 733 l 256 435 l 531 435 l 531 733 l 687 733 l 687 0 l 531 0 m 794 121 l 794 -219 l 672 -219 l 649 0 l 597 0 l 588 121 l 794 121 z "},"ҥ":{"ha":833,"x_min":99,"x_max":840,"o":"m 489 0 l 489 314 l 255 314 l 255 0 l 99 0 l 99 733 l 255 733 l 255 435 l 489 435 l 489 733 l 840 733 l 820 613 l 644 613 l 644 0 l 489 0 z "},"ԥ":{"ha":833,"x_min":113,"x_max":806,"o":"m 544 0 l 544 613 l 267 613 l 267 0 l 113 0 l 113 733 l 699 733 l 699 0 l 544 0 m 806 121 l 806 -219 l 683 -219 l 660 0 l 609 0 l 600 121 l 806 121 z "},"ҧ":{"ha":833,"x_min":34,"x_max":833,"o":"m 34 0 l 34 733 l 508 733 l 508 433 q 571 470 536 457 q 651 483 606 483 q 782 428 731 483 q 833 282 833 374 l 833 -70 q 772 -242 833 -183 q 613 -301 711 -301 q 515 -285 556 -301 q 446 -246 475 -268 l 504 -156 q 548 -177 526 -169 q 603 -185 569 -185 q 664 -163 641 -185 q 686 -88 686 -140 l 686 276 q 609 368 686 368 q 555 358 578 368 q 508 328 531 347 l 508 0 l 361 0 l 361 616 l 181 616 l 181 0 l 34 0 z "},"ҩ":{"ha":833,"x_min":73,"x_max":778,"o":"m 656 -181 q 512 -9 568 -83 q 419 -19 467 -19 q 165 83 258 -19 q 73 361 73 185 q 114 565 73 477 q 231 703 155 653 q 411 753 306 753 q 585 710 510 753 l 529 601 q 477 621 503 614 q 418 628 450 628 q 287 564 336 628 q 238 363 238 500 q 288 166 238 226 q 426 106 338 106 q 435 106 431 106 q 374 299 374 212 q 427 443 374 385 q 577 501 481 501 q 722 448 666 501 q 778 300 778 395 q 736 150 778 222 q 619 33 695 78 q 740 -114 665 -28 l 656 -181 m 503 301 q 514 221 503 261 q 552 133 526 181 q 623 204 600 159 q 646 305 646 249 q 576 397 646 397 q 522 371 540 397 q 503 301 503 344 z "},"ҫ":{"ha":833,"x_min":115,"x_max":730,"o":"m 477 109 q 573 127 528 109 q 658 173 617 145 l 730 73 q 614 7 682 32 q 472 -19 545 -19 q 280 29 360 -19 q 157 162 199 76 q 115 363 115 248 q 158 563 115 475 q 281 702 201 651 q 475 753 362 753 q 729 665 622 753 l 658 567 q 569 612 615 597 q 478 628 524 628 q 335 564 390 628 q 281 363 281 500 q 336 167 281 226 q 477 109 392 109 m 422 36 q 582 -50 522 3 q 642 -182 642 -103 q 592 -298 642 -254 q 454 -342 542 -342 q 374 -332 408 -342 q 315 -307 340 -322 l 351 -222 q 389 -237 367 -230 q 443 -245 412 -245 q 503 -225 483 -245 q 522 -170 522 -204 q 493 -83 522 -128 q 395 0 465 -39 l 422 36 z "},"ҭ":{"ha":833,"x_min":79,"x_max":763,"o":"m 763 733 l 744 612 l 494 612 l 494 0 l 339 0 l 339 612 l 79 612 l 79 733 l 763 733 m 601 121 l 601 -219 l 479 -219 l 456 0 l 405 0 l 396 121 l 601 121 z "},"ү":{"ha":833,"x_min":63,"x_max":771,"o":"m 341 -299 l 341 17 l 63 733 l 229 733 l 420 156 l 611 733 l 771 733 l 492 17 l 492 -282 l 341 -299 z "},"ұ":{"ha":833,"x_min":63,"x_max":771,"o":"m 341 -299 l 341 -5 l 200 -5 l 200 100 l 308 100 l 63 733 l 229 733 l 420 156 l 611 733 l 771 733 l 525 100 l 634 100 l 634 -5 l 492 -5 l 492 -282 l 341 -299 z "},"ҳ":{"ha":833,"x_min":60,"x_max":774,"o":"m 232 0 l 60 0 l 323 387 l 89 733 l 268 733 l 418 475 l 568 733 l 739 733 l 510 393 l 774 0 l 591 0 l 411 299 l 232 0 m 488 121 l 488 -219 l 366 -219 l 343 0 l 292 0 l 283 121 l 488 121 z "},"ҵ":{"ha":833,"x_min":0,"x_max":776,"o":"m 776 121 l 776 -219 l 657 -219 l 634 0 l 153 0 l 153 623 l 0 623 l 0 733 l 463 733 l 442 623 l 304 623 l 304 122 l 542 122 l 542 733 l 693 733 l 693 121 l 776 121 z "},"ҷ":{"ha":833,"x_min":85,"x_max":791,"o":"m 685 733 l 685 0 l 529 0 l 529 297 q 431 240 489 261 q 306 219 374 219 q 141 278 197 219 q 85 440 85 336 l 85 733 l 240 733 l 240 458 q 269 366 240 394 q 355 338 299 338 q 450 357 401 338 q 529 408 499 376 l 529 733 l 685 733 m 791 121 l 791 -219 l 669 -219 l 646 0 l 594 0 l 585 121 l 791 121 z "},"ҹ":{"ha":833,"x_min":99,"x_max":699,"o":"m 428 546 l 428 346 q 492 370 462 354 q 543 408 522 386 l 543 733 l 699 733 l 699 0 l 543 0 l 543 297 q 428 235 496 255 l 428 122 l 350 122 l 350 220 q 320 219 335 219 q 155 278 211 219 q 99 440 99 336 l 99 733 l 254 733 l 254 458 q 278 371 254 399 q 350 339 303 343 l 350 546 l 428 546 z "},"һ":{"ha":833,"x_min":125,"x_max":709,"o":"m 125 0 l 125 1026 l 281 1043 l 281 567 q 373 644 319 615 q 494 672 426 672 q 652 613 594 672 q 709 446 709 553 l 709 0 l 553 0 l 553 429 q 526 526 553 499 q 450 553 499 553 q 354 524 394 553 q 281 447 314 494 l 281 0 l 125 0 z "},"ԧ":{"ha":833,"x_min":117,"x_max":808,"o":"m 117 0 l 117 1026 l 273 1043 l 273 567 q 365 644 311 615 q 487 672 419 672 q 644 613 587 672 q 701 446 701 553 l 701 0 l 546 0 l 546 429 q 518 526 546 499 q 442 553 491 553 q 347 524 387 553 q 273 447 306 494 l 273 0 l 117 0 m 808 121 l 808 -219 l 686 -219 l 663 0 l 612 0 l 603 121 l 808 121 z "},"ҽ":{"ha":833,"x_min":12,"x_max":781,"o":"m 350 317 q 403 151 353 203 q 526 100 453 100 q 614 115 578 100 q 685 153 651 131 l 753 65 q 654 6 712 31 q 523 -19 596 -19 q 295 74 376 -19 q 204 317 215 166 q 61 364 110 319 q 12 485 12 410 q 27 562 12 528 q 61 624 43 595 l 151 583 q 134 539 142 560 q 126 490 126 517 q 196 423 126 423 l 205 423 q 251 592 213 517 q 351 710 288 667 q 499 753 414 753 q 708 655 635 753 q 781 386 781 557 q 780 349 781 367 q 778 317 779 331 l 350 317 m 500 640 q 396 587 435 640 q 349 423 356 534 l 638 423 q 500 640 634 640 z "},"ҿ":{"ha":833,"x_min":12,"x_max":781,"o":"m 350 317 q 403 151 353 203 q 526 100 453 100 q 614 115 578 100 q 685 153 651 131 l 753 65 q 654 6 712 31 q 523 -19 596 -19 q 295 74 376 -19 q 204 317 215 166 q 61 364 110 319 q 12 485 12 410 q 27 562 12 528 q 61 624 43 595 l 151 583 q 134 539 142 560 q 126 490 126 517 q 196 423 126 423 l 205 423 q 251 592 213 517 q 351 710 288 667 q 499 753 414 753 q 708 655 635 753 q 781 386 781 557 q 780 349 781 367 q 778 317 779 331 l 350 317 m 500 640 q 396 587 435 640 q 349 423 356 534 l 638 423 q 500 640 634 640 m 615 53 l 636 0 q 531 -55 567 -28 q 482 -106 495 -81 q 469 -157 469 -131 q 547 -224 469 -224 q 588 -221 569 -224 q 629 -214 606 -219 l 615 -321 q 575 -328 595 -326 q 530 -331 556 -331 q 396 -290 447 -331 q 345 -181 345 -249 q 415 -40 345 -94 q 615 53 485 15 z "},"ӏ":{"ha":833,"x_min":69,"x_max":713,"o":"m 446 1028 l 446 200 q 477 128 446 149 q 557 107 508 107 q 617 114 588 107 q 673 131 646 120 l 713 23 q 632 -6 680 6 q 524 -19 585 -19 q 352 44 413 -19 q 290 214 290 106 l 290 913 l 69 913 l 69 1028 l 446 1028 z "},"ӂ":{"ha":833,"x_min":14,"x_max":819,"o":"m 356 0 l 356 335 l 294 335 l 160 0 l 14 0 l 183 394 l 24 733 l 170 733 l 293 438 l 356 438 l 356 733 l 477 733 l 477 438 l 540 438 l 667 733 l 809 733 l 650 394 l 819 0 l 673 0 l 538 335 l 477 335 l 477 0 l 356 0 m 415 880 q 264 930 322 880 q 197 1058 206 980 l 293 1077 q 415 994 318 994 q 540 1077 515 994 l 635 1058 q 568 930 627 980 q 415 880 508 880 z "},"ӄ":{"ha":833,"x_min":129,"x_max":717,"o":"m 129 0 l 129 733 l 285 733 l 285 424 l 376 424 l 560 733 l 717 733 l 521 418 q 658 351 610 407 q 707 194 707 294 l 707 -66 q 645 -242 707 -183 q 479 -301 584 -301 q 381 -285 422 -301 q 311 -246 340 -268 l 371 -152 q 414 -173 393 -165 q 468 -181 435 -181 q 529 -158 506 -181 q 551 -81 551 -135 l 551 188 q 523 282 551 255 q 428 310 494 310 l 285 310 l 285 0 l 129 0 z "},"ӆ":{"ha":833,"x_min":40,"x_max":792,"o":"m 792 131 l 683 -219 l 556 -219 l 606 0 l 517 0 l 517 613 l 329 613 l 317 458 q 294 255 308 335 q 257 124 281 174 q 197 42 233 74 q 106 -20 160 9 l 40 79 q 86 117 66 96 q 122 176 107 138 q 149 279 138 213 q 169 451 160 344 l 190 733 l 672 733 l 672 131 l 792 131 z "},"ӈ":{"ha":833,"x_min":124,"x_max":710,"o":"m 554 0 l 554 314 l 279 314 l 279 0 l 124 0 l 124 733 l 279 733 l 279 435 l 554 435 l 554 733 l 710 733 l 710 0 l 554 0 m 482 -301 q 384 -285 424 -301 q 314 -246 343 -268 l 374 -152 q 417 -173 397 -165 q 471 -181 438 -181 q 532 -158 509 -181 q 554 -81 554 -135 l 554 1 l 710 1 l 710 -66 q 649 -242 710 -183 q 482 -301 588 -301 z "},"ӊ":{"ha":833,"x_min":123,"x_max":796,"o":"m 522 0 l 522 314 l 278 314 l 278 0 l 123 0 l 123 733 l 278 733 l 278 435 l 522 435 l 522 733 l 678 733 l 678 131 l 796 131 l 687 -219 l 560 -219 l 611 0 l 522 0 z "},"ӌ":{"ha":833,"x_min":99,"x_max":699,"o":"m 442 121 l 543 121 l 543 318 q 445 263 503 283 q 320 242 387 242 q 155 300 211 242 q 99 462 99 358 l 99 733 l 254 733 l 254 481 q 283 388 254 415 q 369 360 313 360 q 464 379 415 360 q 543 430 513 398 l 543 733 l 699 733 l 699 0 l 588 0 l 565 -219 l 442 -219 l 442 121 z "},"ӎ":{"ha":833,"x_min":56,"x_max":839,"o":"m 839 131 l 729 -219 l 614 -219 l 665 0 l 592 0 l 570 317 q 564 449 566 381 q 564 603 563 517 l 461 121 l 329 121 l 214 603 q 216 453 217 526 q 211 316 215 381 l 195 0 l 56 0 l 107 733 l 292 733 l 397 251 l 490 733 l 681 733 l 724 131 l 839 131 z "},"ӑ":{"ha":833,"x_min":78,"x_max":740,"o":"m 684 180 q 697 117 684 136 q 740 88 710 97 l 705 -18 q 611 12 651 -12 q 553 83 572 35 q 451 7 513 32 q 319 -19 389 -19 q 142 44 207 -19 q 78 209 78 107 q 168 388 78 325 q 426 450 258 450 l 531 450 l 531 498 q 488 600 531 569 q 368 631 445 631 q 281 622 332 631 q 173 593 229 613 l 135 703 q 269 741 203 728 q 392 753 335 753 q 611 688 539 753 q 684 507 684 622 l 684 180 m 366 96 q 458 121 413 96 q 531 191 503 146 l 531 353 l 445 353 q 288 316 335 353 q 241 216 241 280 q 366 96 241 96 m 404 880 q 253 930 311 880 q 186 1058 194 980 l 282 1077 q 404 994 307 994 q 528 1077 503 994 l 624 1058 q 557 930 616 980 q 404 880 497 880 z "},"ӓ":{"ha":833,"x_min":78,"x_max":740,"o":"m 684 180 q 697 117 684 136 q 740 88 710 97 l 705 -18 q 611 12 651 -12 q 553 83 572 35 q 451 7 513 32 q 319 -19 389 -19 q 142 44 207 -19 q 78 209 78 107 q 168 388 78 325 q 426 450 258 450 l 531 450 l 531 498 q 488 600 531 569 q 368 631 445 631 q 281 622 332 631 q 173 593 229 613 l 135 703 q 269 741 203 728 q 392 753 335 753 q 611 688 539 753 q 684 507 684 622 l 684 180 m 366 96 q 458 121 413 96 q 531 191 503 146 l 531 353 l 445 353 q 288 316 335 353 q 241 216 241 280 q 366 96 241 96 m 256 894 q 191 920 217 894 q 165 983 165 945 q 191 1045 165 1020 q 256 1071 217 1071 q 320 1045 294 1071 q 346 983 346 1020 q 320 920 346 945 q 256 894 294 894 m 556 894 q 492 920 518 894 q 466 983 466 945 q 492 1045 466 1020 q 556 1071 518 1071 q 620 1045 594 1071 q 647 983 647 1020 q 620 920 647 945 q 556 894 594 894 z "},"ӕ":{"ha":833,"x_min":-8,"x_max":839,"o":"m 600 753 q 783 656 727 753 q 839 386 839 559 q 836 319 839 349 l 477 319 q 522 151 487 205 q 625 97 558 97 q 693 110 663 97 q 757 148 724 124 l 822 56 q 731 2 780 23 q 619 -19 683 -19 q 492 13 544 -19 q 403 108 440 45 q 316 11 360 40 q 201 -19 272 -19 q 48 44 105 -19 q -8 210 -8 108 q 65 387 -8 326 q 283 449 138 449 l 344 449 l 344 498 q 311 607 344 572 q 218 641 278 641 q 153 633 183 641 q 79 604 123 624 l 41 705 q 138 740 90 727 q 233 753 185 753 q 356 722 313 753 q 421 640 399 691 q 489 722 444 692 q 600 753 534 753 m 595 640 q 512 592 540 640 q 477 422 484 544 l 706 422 q 681 585 704 531 q 595 640 658 640 m 344 353 l 296 353 q 173 317 208 353 q 139 218 139 280 q 163 124 139 156 q 227 92 186 92 q 298 120 267 92 q 356 205 328 149 q 344 353 344 276 z "},"ӗ":{"ha":833,"x_min":92,"x_max":742,"o":"m 253 317 q 316 153 260 203 q 453 102 373 102 q 552 119 506 102 q 645 166 599 135 l 713 73 q 592 6 661 31 q 445 -19 524 -19 q 252 30 331 -19 q 132 165 173 78 q 92 366 92 252 q 132 564 92 476 q 247 702 172 651 q 426 753 322 753 q 657 655 572 753 q 742 386 742 557 q 741 349 742 367 q 739 317 740 331 l 253 317 m 428 638 q 307 585 355 638 q 252 423 259 533 l 592 423 q 548 582 590 526 q 428 638 506 638 m 428 880 q 276 930 335 880 q 210 1058 218 980 l 306 1077 q 428 994 331 994 q 552 1077 527 994 l 648 1058 q 580 930 640 980 q 428 880 521 880 z "},"ә":{"ha":833,"x_min":85,"x_max":747,"o":"m 406 753 q 600 705 524 753 q 711 570 675 656 q 747 368 747 483 q 707 165 747 252 q 592 30 667 78 q 410 -19 517 -19 q 173 78 260 -19 q 85 348 85 175 q 86 383 85 365 q 90 417 88 401 l 588 417 q 534 582 581 531 q 401 633 488 633 q 299 618 346 633 q 206 566 252 603 l 138 663 q 256 728 190 704 q 406 753 322 753 m 410 99 q 539 147 493 99 q 588 311 584 195 l 235 311 l 235 301 q 282 152 237 205 q 410 99 326 99 z "},"ӛ":{"ha":833,"x_min":85,"x_max":747,"o":"m 406 753 q 600 705 524 753 q 711 570 675 656 q 747 368 747 483 q 707 165 747 252 q 592 30 667 78 q 410 -19 517 -19 q 173 78 260 -19 q 85 348 85 175 q 86 383 85 365 q 90 417 88 401 l 588 417 q 534 582 581 531 q 401 633 488 633 q 299 618 346 633 q 206 566 252 603 l 138 663 q 256 728 190 704 q 406 753 322 753 m 410 99 q 539 147 493 99 q 588 311 584 195 l 235 311 l 235 301 q 282 152 237 205 q 410 99 326 99 m 272 894 q 207 920 233 894 q 181 983 181 945 q 207 1045 181 1020 q 272 1071 233 1071 q 336 1045 310 1071 q 362 983 362 1020 q 336 920 362 945 q 272 894 310 894 m 572 894 q 508 920 534 894 q 482 983 482 945 q 508 1045 482 1020 q 572 1071 534 1071 q 636 1045 610 1071 q 663 983 663 1020 q 636 920 663 945 q 572 894 610 894 z "},"ӝ":{"ha":833,"x_min":14,"x_max":819,"o":"m 356 0 l 356 335 l 294 335 l 160 0 l 14 0 l 183 394 l 24 733 l 170 733 l 293 438 l 356 438 l 356 733 l 477 733 l 477 438 l 540 438 l 667 733 l 809 733 l 650 394 l 819 0 l 673 0 l 538 335 l 477 335 l 477 0 l 356 0 m 267 894 q 202 920 228 894 q 176 983 176 945 q 202 1045 176 1020 q 267 1071 228 1071 q 330 1045 304 1071 q 356 983 356 1020 q 330 920 356 945 q 267 894 304 894 m 566 894 q 502 920 528 894 q 476 983 476 945 q 502 1045 476 1020 q 566 1071 528 1071 q 631 1045 604 1071 q 657 983 657 1020 q 631 920 657 945 q 566 894 604 894 z "},"ӟ":{"ha":833,"x_min":60,"x_max":728,"o":"m 254 438 l 386 438 q 492 465 454 438 q 530 537 530 492 q 489 612 530 588 q 375 637 449 637 q 262 621 320 637 q 156 576 204 606 l 86 663 q 223 729 144 706 q 383 753 301 753 q 539 730 469 753 q 648 663 608 707 q 689 551 689 618 q 645 450 689 490 q 530 390 601 410 q 671 339 614 381 q 728 217 728 297 q 683 87 728 140 q 559 8 638 35 q 381 -19 481 -19 q 193 10 272 -19 q 60 81 115 39 l 131 176 q 245 120 185 140 q 382 101 305 101 q 518 133 473 101 q 563 219 563 165 q 397 325 563 325 l 244 325 l 254 438 m 254 893 q 189 918 215 893 q 163 981 163 944 q 189 1044 163 1019 q 254 1069 215 1069 q 318 1044 292 1069 q 344 981 344 1019 q 318 918 344 944 q 254 893 292 893 m 553 893 q 490 918 516 893 q 464 981 464 944 q 490 1044 464 1019 q 553 1069 516 1069 q 618 1044 592 1069 q 644 981 644 1019 q 618 918 644 944 q 553 893 592 893 z "},"ӡ":{"ha":833,"x_min":72,"x_max":733,"o":"m 234 288 l 521 611 l 116 611 l 116 733 l 696 733 l 696 621 l 398 290 l 413 290 q 643 221 554 290 q 733 14 733 152 q 689 -149 733 -78 q 566 -259 644 -219 q 383 -299 487 -299 q 199 -267 272 -299 q 72 -176 127 -234 l 156 -91 q 253 -156 203 -135 q 377 -178 304 -178 q 516 -130 465 -178 q 567 13 567 -81 q 514 143 567 105 q 365 182 460 182 l 234 182 l 234 288 z "},"ӣ":{"ha":833,"x_min":124,"x_max":710,"o":"m 710 733 l 710 0 l 559 0 l 559 301 q 565 452 559 381 q 582 578 572 524 l 297 0 l 124 0 l 124 733 l 274 733 l 274 431 q 268 282 274 356 q 251 158 262 209 l 533 733 l 710 733 m 613 929 l 220 929 l 220 1042 l 613 1042 l 613 929 z "},"ӥ":{"ha":833,"x_min":124,"x_max":710,"o":"m 710 733 l 710 0 l 559 0 l 559 301 q 565 452 559 381 q 582 578 572 524 l 297 0 l 124 0 l 124 733 l 274 733 l 274 431 q 268 282 274 356 q 251 158 262 209 l 533 733 l 710 733 m 267 894 q 202 920 228 894 q 176 983 176 945 q 202 1045 176 1020 q 267 1071 228 1071 q 330 1045 304 1071 q 356 983 356 1020 q 330 920 356 945 q 267 894 304 894 m 566 894 q 502 920 528 894 q 476 983 476 945 q 502 1045 476 1020 q 566 1071 528 1071 q 631 1045 604 1071 q 657 983 657 1020 q 631 920 657 945 q 566 894 604 894 z "},"ӧ":{"ha":833,"x_min":85,"x_max":748,"o":"m 417 753 q 663 648 578 753 q 748 368 748 543 q 709 165 748 251 q 597 30 671 78 q 417 -19 523 -19 q 171 85 256 -19 q 85 367 85 189 q 124 568 85 481 q 237 704 163 655 q 417 753 311 753 m 417 632 q 291 568 333 632 q 249 367 249 503 q 291 166 249 230 q 417 101 333 101 q 543 166 501 101 q 585 368 585 231 q 543 568 585 503 q 417 632 501 632 m 267 894 q 202 920 228 894 q 176 983 176 945 q 202 1045 176 1020 q 267 1071 228 1071 q 330 1045 304 1071 q 356 983 356 1020 q 330 920 356 945 q 267 894 304 894 m 566 894 q 502 920 528 894 q 476 983 476 945 q 502 1045 476 1020 q 566 1071 528 1071 q 631 1045 604 1071 q 657 983 657 1020 q 631 920 657 945 q 566 894 604 894 z "},"ө":{"ha":833,"x_min":85,"x_max":748,"o":"m 417 753 q 663 648 578 753 q 748 368 748 543 q 709 165 748 251 q 597 30 671 78 q 417 -19 523 -19 q 171 85 256 -19 q 85 367 85 189 q 124 568 85 481 q 237 704 163 655 q 417 753 311 753 m 417 633 q 247 425 260 633 l 586 425 q 417 633 572 633 m 586 319 l 247 319 q 297 152 255 204 q 417 101 340 101 q 535 152 492 101 q 586 319 578 204 z "},"ӫ":{"ha":833,"x_min":85,"x_max":748,"o":"m 417 753 q 663 648 578 753 q 748 368 748 543 q 709 165 748 251 q 597 30 671 78 q 417 -19 523 -19 q 171 85 256 -19 q 85 367 85 189 q 124 568 85 481 q 237 704 163 655 q 417 753 311 753 m 417 633 q 247 425 260 633 l 586 425 q 417 633 572 633 m 586 319 l 247 319 q 297 152 255 204 q 417 101 340 101 q 535 152 492 101 q 586 319 578 204 m 268 894 q 203 920 229 894 q 177 983 177 945 q 203 1045 177 1020 q 268 1071 229 1071 q 332 1045 306 1071 q 358 983 358 1020 q 332 920 358 945 q 268 894 306 894 m 567 894 q 504 920 530 894 q 478 983 478 945 q 504 1045 478 1020 q 567 1071 530 1071 q 632 1045 606 1071 q 658 983 658 1020 q 632 920 658 945 q 567 894 606 894 z "},"ӭ":{"ha":833,"x_min":115,"x_max":730,"o":"m 385 753 q 576 705 499 753 q 691 570 653 656 q 730 369 730 484 q 689 167 730 254 q 569 30 648 79 q 374 -19 490 -19 q 233 4 299 -19 q 115 72 167 26 l 188 164 q 372 102 271 102 q 509 153 456 102 q 571 321 562 204 l 253 321 l 253 430 l 569 430 q 510 584 559 535 q 378 634 460 634 q 193 574 277 634 l 123 667 q 385 753 232 753 m 263 894 q 198 920 224 894 q 172 983 172 945 q 198 1045 172 1020 q 263 1071 224 1071 q 326 1045 300 1071 q 352 983 352 1020 q 326 920 352 945 q 263 894 300 894 m 562 894 q 498 920 524 894 q 472 983 472 945 q 498 1045 472 1020 q 562 1071 524 1071 q 626 1045 600 1071 q 653 983 653 1020 q 626 920 653 945 q 562 894 600 894 z "},"ӯ":{"ha":833,"x_min":68,"x_max":765,"o":"m 765 733 l 513 -3 q 440 -150 484 -86 q 326 -252 395 -214 q 153 -300 256 -291 l 133 -183 q 252 -149 208 -172 q 322 -90 296 -126 q 368 0 348 -53 l 315 0 l 68 733 l 233 733 l 418 108 l 606 733 l 765 733 m 613 929 l 220 929 l 220 1042 l 613 1042 l 613 929 z "},"ӱ":{"ha":833,"x_min":68,"x_max":765,"o":"m 765 733 l 513 -3 q 440 -150 484 -86 q 326 -252 395 -214 q 153 -300 256 -291 l 133 -183 q 252 -149 208 -172 q 322 -90 296 -126 q 368 0 348 -53 l 315 0 l 68 733 l 233 733 l 418 108 l 606 733 l 765 733 m 267 894 q 202 920 228 894 q 176 983 176 945 q 202 1045 176 1020 q 267 1071 228 1071 q 330 1045 304 1071 q 356 983 356 1020 q 330 920 356 945 q 267 894 304 894 m 566 894 q 502 920 528 894 q 476 983 476 945 q 502 1045 476 1020 q 566 1071 528 1071 q 631 1045 604 1071 q 657 983 657 1020 q 631 920 657 945 q 566 894 604 894 z "}}}
